<?xml version="1.0" encoding="UTF-8"?>
<svg xmlns="http://www.w3.org/2000/svg" font-family="ConsolasFallback,Consolas,monospace" width="985px" height="530px" font-size="16px" role="img" aria-label="Aravindhan Batman ASCII GitHub profile card">
<style>
@font-face { src: local('Consolas'), local('Consolas Bold'); font-family: 'ConsolasFallback'; font-display: swap; -webkit-size-adjust: 109%; size-adjust: 109%; }
.key {fill: #953800;} .value {fill: #0a3069;} .cc {fill: #8c959f;} text, tspan {white-space: pre;}
</style>
<rect width="985px" height="530px" fill="#f6f8fa" rx="15"/>
<text x="15" y="30" fill="#24292f" class="ascii" font-size="14px">
<tspan x="15" y="30">           ;@s                2B,          </tspan>
<tspan x="15" y="50">           i&amp;M.    .....     :S&amp;;          </tspan>
<tspan x="15" y="70">           sB#HAAAAAAA25522A5GB&amp;s          </tspan>
<tspan x="15" y="90">           A###SHM33533MMHHG#99&amp;5          </tspan>
<tspan x="15" y="110">          .5HGGSSGHHGGGSSSGGS9BBH,         </tspan>
<tspan x="15" y="130">          ;3MS#9##SSSSS#99999BBB#r         </tspan>
<tspan x="15" y="150">          XhG9B9##SGS###99B&amp;&amp;&amp;BB95         </tspan>
<tspan x="15" y="170">          5H9&amp;&amp;BB999999B9B&amp;&amp;&amp;&amp;&amp;BBM,        </tspan>
<tspan x="15" y="190">         .hSB&amp;&amp;&amp;&amp;BBB999BBBB&amp;&amp;&amp;&amp;&amp;&amp;G:        </tspan>
<tspan x="15" y="210">         .hBB&amp;&amp;&amp;BBBBBBBBBB&amp;&amp;&amp;&amp;&amp;B&amp;S;        </tspan>
<tspan x="15" y="230">          5BB9BBBB&amp;&amp;&amp;&amp;&amp;&amp;&amp;&amp;&amp;&amp;&amp;&amp;BB&amp;S:        </tspan>
<tspan x="15" y="250">          ABBBBBB&amp;&amp;&amp;&amp;&amp;&amp;&amp;&amp;&amp;&amp;&amp;&amp;&amp;&amp;B9M,        </tspan>
<tspan x="15" y="270">          :HS9@&amp;&amp;&amp;&amp;&amp;&amp;&amp;&amp;&amp;&amp;&amp;&amp;&amp;&amp;&amp;&amp;&amp;Hr         </tspan>
<tspan x="15" y="290">           XH9B&amp;&amp;&amp;&amp;&amp;&amp;&amp;&amp;&amp;&amp;&amp;&amp;&amp;&amp;&amp;&amp;@M          </tspan>
<tspan x="15" y="310">           ;#@@&amp;&amp;&amp;&amp;&amp;&amp;B&amp;&amp;&amp;&amp;&amp;@@@@9A          </tspan>
<tspan x="15" y="330">           ihMB&amp;&amp;&amp;&amp;&amp;&amp;&amp;&amp;&amp;&amp;&amp;&amp;&amp;&amp;&amp;#35:         </tspan>
<tspan x="15" y="350">          2Bh2#B##9B&amp;&amp;&amp;&amp;&amp;B99#BG39G,        </tspan>
<tspan x="15" y="370">         ;hBShH&amp;#S##9BB99###9BHG9Mr        </tspan>
<tspan x="15" y="390">         XG#BBG9B9##99B99##9B99&amp;#H5.       </tspan>
<tspan x="15" y="410">        .3BBB&amp;&amp;BBBB9#S####9B&amp;&amp;@BB#Hi       </tspan>
<tspan x="15" y="430">        ;G&amp;&amp;&amp;B&amp;&amp;&amp;&amp;&amp;B9###9B&amp;&amp;@@&amp;B&amp;B#2       </tspan>
<tspan x="15" y="450">      .:5#&amp;&amp;@&amp;&amp;&amp;&amp;&amp;@@@@&amp;&amp;@@@@@&amp;B&amp;&amp;&amp;9G5H2,   </tspan>
<tspan x="15" y="470">  :irX5hMMH&amp;@&amp;&amp;&amp;@@@&amp;&amp;&amp;&amp;@&amp;&amp;&amp;&amp;@&amp;&amp;&amp;@&amp;&amp;BB@5.sr,</tspan>
<tspan x="15" y="490">;2H###9SHS9&amp;&amp;&amp;&amp;&amp;&amp;@@@@&amp;&amp;&amp;&amp;@&amp;&amp;&amp;&amp;@&amp;&amp;@@@&amp;&amp;#HSHs</tspan>
<tspan x="15" y="510">M###999##BB&amp;&amp;&amp;&amp;&amp;&amp;&amp;&amp;&amp;&amp;&amp;&amp;&amp;&amp;@&amp;&amp;&amp;@@&amp;&amp;@@@@&amp;&amp;&amp;Bh5</tspan>
</text>
<text x="390" y="30" fill="#24292f">
<tspan x="390" y="30">aravindhan@batcave</tspan> -—————————————————————————————————————————-—-
<tspan x="390" y="50" class="cc">. </tspan><tspan class="key">Role</tspan>:<tspan class="cc"> ............. </tspan><tspan x="610" class="value">AI Builder · Full-Stack Developer</tspan>
<tspan x="390" y="70" class="cc">. </tspan><tspan class="key">Focus</tspan>:<tspan class="cc"> ............ </tspan><tspan x="610" class="value">LLM · RAG · Agents · Web · Flutter</tspan>
<tspan x="390" y="90" class="cc">. </tspan><tspan class="key">Stack</tspan>:<tspan class="cc"> ............ </tspan><tspan x="610" class="value">Python · TypeScript · Dart · GitHub</tspan>
<tspan x="390" y="110" class="cc">. </tspan><tspan class="key">Status</tspan>:<tspan class="cc"> ........... </tspan><tspan x="610" class="value">Building · Learning · Shipping</tspan>
<tspan x="390" y="130" class="cc">. </tspan>
<tspan x="390" y="150">- Current Focus</tspan> -—————————————————————————————————————————-—-
<tspan x="390" y="170" class="cc">. </tspan><tspan class="key">AI</tspan>:<tspan class="cc"> ............... </tspan><tspan x="610" class="value">LLM systems · RAG · agent workflows</tspan>
<tspan x="390" y="190" class="cc">. </tspan><tspan class="key">Apps</tspan>:<tspan class="cc"> ............. </tspan><tspan x="610" class="value">Web products · Flutter · automation</tspan>
<tspan x="390" y="210" class="cc">. </tspan><tspan class="key">Research</tspan>:<tspan class="cc"> ......... </tspan><tspan x="610" class="value">Neuro-symbolic · inference · retrieval</tspan>
<tspan x="390" y="230" class="cc">. </tspan><tspan class="key">Mode</tspan>:<tspan class="cc"> ............. </tspan><tspan x="610" class="value">Build in the shadows. Ship in the light.</tspan>
<tspan x="390" y="250" class="cc">. </tspan>
<tspan x="390" y="266">- GitHub Activity · rolling 365 days</tspan> -——————————————————————-
<tspan x="390" y="286" class="cc">. </tspan><tspan class="key">Contributions</tspan>:<tspan class="cc" id="contrib_data_dots"> .... </tspan><tspan x="610" class="value" id="contrib_data">4,618</tspan>
<tspan x="390" y="306" class="cc">. </tspan><tspan class="key">Current Streak</tspan>:<tspan class="cc" id="streak_data_dots"> ... </tspan><tspan x="610" class="value" id="streak_data">24 days</tspan>
<tspan x="390" y="326" class="cc">. </tspan><tspan class="key">Commits</tspan>:<tspan class="cc" id="commit_data_dots"> .......... </tspan><tspan x="610" class="value" id="commit_data">522</tspan>
<tspan x="390" y="346" class="cc">. </tspan><tspan class="key">Active Days</tspan>:<tspan class="cc" id="active_data_dots"> ...... </tspan><tspan x="610" class="value" id="active_data">191</tspan>
<tspan x="390" y="366" class="cc">. </tspan><tspan class="key">Followers</tspan>:<tspan class="cc" id="follower_data_dots"> ........ </tspan><tspan x="610" class="value" id="follower_data">6</tspan>
<tspan x="390" y="386" class="cc">. </tspan><tspan class="key">Last Refresh</tspan>:<tspan class="cc" id="updated_data_dots"> ..... </tspan><tspan x="610" class="value" id="updated_data">2026-08-22 UTC</tspan>
<tspan x="390" y="426" class="cc">. </tspan><tspan class="key">Signal</tspan>:<tspan class="cc"> ........... </tspan><tspan x="610" class="value">The code is the signal.</tspan>
<tspan x="390" y="446" class="cc">. </tspan><tspan class="key">Handle</tspan>:<tspan class="cc"> ........... </tspan><tspan x="610" class="value">@Aravindh-dev12</tspan>
</text>
<g fill="#24292f" pointer-events="none">
<g opacity="0"><path d="M0,-11 L-5,-17 L-3,-9 C-10,-11 -15,-17 -24,-20 L-39,-19 L-31,-12 L-45,-7 L-35,-2 L-43,5 L-31,4 L-26,12 L-18,7 L-12,14 L-7,5 C-6,10 -4,14 0,18 C4,14 6,10 7,5 L12,14 L18,7 L26,12 L31,4 L43,5 L35,-2 L45,-7 L31,-12 L39,-19 L24,-20 C15,-17 10,-11 3,-9 L5,-17 Z" transform="scale(0.34)"/><animate attributeName="opacity" values="0;0.18;0.18;0" keyTimes="0;0.06;0.88;1" begin="0.00s" dur="2.20s" calcMode="linear" repeatCount="1" fill="freeze"/><animateMotion path="M-35,58 C170,5 350,28 545,86 C735,142 900,110 1030,30" begin="0.00s" dur="2.20s" calcMode="paced" repeatCount="1" fill="freeze" rotate="auto"/></g>
<g opacity="0"><path d="M0,-11 L-5,-17 L-3,-9 C-10,-11 -15,-17 -24,-20 L-39,-19 L-31,-12 L-45,-7 L-35,-2 L-43,5 L-31,4 L-26,12 L-18,7 L-12,14 L-7,5 C-6,10 -4,14 0,18 C4,14 6,10 7,5 L12,14 L18,7 L26,12 L31,4 L43,5 L35,-2 L45,-7 L31,-12 L39,-19 L24,-20 C15,-17 10,-11 3,-9 L5,-17 Z" transform="scale(0.39)"/><animate attributeName="opacity" values="0;0.20;0.20;0" keyTimes="0;0.06;0.88;1" begin="0.03s" dur="2.35s" calcMode="linear" repeatCount="1" fill="freeze"/><animateMotion path="M-28,92 C155,28 338,45 520,105 C705,166 885,132 1035,58" begin="0.03s" dur="2.35s" calcMode="paced" repeatCount="1" fill="freeze" rotate="auto"/></g>
<g opacity="0"><path d="M0,-11 L-5,-17 L-3,-9 C-10,-11 -15,-17 -24,-20 L-39,-19 L-31,-12 L-45,-7 L-35,-2 L-43,5 L-31,4 L-26,12 L-18,7 L-12,14 L-7,5 C-6,10 -4,14 0,18 C4,14 6,10 7,5 L12,14 L18,7 L26,12 L31,4 L43,5 L35,-2 L45,-7 L31,-12 L39,-19 L24,-20 C15,-17 10,-11 3,-9 L5,-17 Z" transform="scale(0.43)"/><animate attributeName="opacity" values="0;0.23;0.23;0" keyTimes="0;0.06;0.88;1" begin="0.06s" dur="2.50s" calcMode="linear" repeatCount="1" fill="freeze"/><animateMotion path="M-32,128 C160,55 345,70 530,132 C720,194 890,162 1032,86" begin="0.06s" dur="2.50s" calcMode="paced" repeatCount="1" fill="freeze" rotate="auto"/></g>
<g opacity="0"><path d="M0,-11 L-5,-17 L-3,-9 C-10,-11 -15,-17 -24,-20 L-39,-19 L-31,-12 L-45,-7 L-35,-2 L-43,5 L-31,4 L-26,12 L-18,7 L-12,14 L-7,5 C-6,10 -4,14 0,18 C4,14 6,10 7,5 L12,14 L18,7 L26,12 L31,4 L43,5 L35,-2 L45,-7 L31,-12 L39,-19 L24,-20 C15,-17 10,-11 3,-9 L5,-17 Z" transform="scale(0.48)"/><animate attributeName="opacity" values="0;0.26;0.26;0" keyTimes="0;0.06;0.88;1" begin="0.09s" dur="2.25s" calcMode="linear" repeatCount="1" fill="freeze"/><animateMotion path="M-30,166 C170,92 355,105 538,164 C725,225 895,195 1038,120" begin="0.09s" dur="2.25s" calcMode="paced" repeatCount="1" fill="freeze" rotate="auto"/></g>
<g opacity="0"><path d="M0,-11 L-5,-17 L-3,-9 C-10,-11 -15,-17 -24,-20 L-39,-19 L-31,-12 L-45,-7 L-35,-2 L-43,5 L-31,4 L-26,12 L-18,7 L-12,14 L-7,5 C-6,10 -4,14 0,18 C4,14 6,10 7,5 L12,14 L18,7 L26,12 L31,4 L43,5 L35,-2 L45,-7 L31,-12 L39,-19 L24,-20 C15,-17 10,-11 3,-9 L5,-17 Z" transform="scale(0.52)"/><animate attributeName="opacity" values="0;0.18;0.18;0" keyTimes="0;0.06;0.88;1" begin="0.12s" dur="2.40s" calcMode="linear" repeatCount="1" fill="freeze"/><animateMotion path="M-35,208 C175,132 365,145 548,205 C735,263 900,232 1032,160" begin="0.12s" dur="2.40s" calcMode="paced" repeatCount="1" fill="freeze" rotate="auto"/></g>
<g opacity="0"><path d="M0,-11 L-5,-17 L-3,-9 C-10,-11 -15,-17 -24,-20 L-39,-19 L-31,-12 L-45,-7 L-35,-2 L-43,5 L-31,4 L-26,12 L-18,7 L-12,14 L-7,5 C-6,10 -4,14 0,18 C4,14 6,10 7,5 L12,14 L18,7 L26,12 L31,4 L43,5 L35,-2 L45,-7 L31,-12 L39,-19 L24,-20 C15,-17 10,-11 3,-9 L5,-17 Z" transform="scale(0.56)"/><animate attributeName="opacity" values="0;0.20;0.20;0" keyTimes="0;0.06;0.88;1" begin="0.15s" dur="2.55s" calcMode="linear" repeatCount="1" fill="freeze"/><animateMotion path="M-32,250 C180,176 370,188 555,248 C742,306 905,278 1030,205" begin="0.15s" dur="2.55s" calcMode="paced" repeatCount="1" fill="freeze" rotate="auto"/></g>
<g opacity="0"><path d="M0,-11 L-5,-17 L-3,-9 C-10,-11 -15,-17 -24,-20 L-39,-19 L-31,-12 L-45,-7 L-35,-2 L-43,5 L-31,4 L-26,12 L-18,7 L-12,14 L-7,5 C-6,10 -4,14 0,18 C4,14 6,10 7,5 L12,14 L18,7 L26,12 L31,4 L43,5 L35,-2 L45,-7 L31,-12 L39,-19 L24,-20 C15,-17 10,-11 3,-9 L5,-17 Z" transform="scale(0.34)"/><animate attributeName="opacity" values="0;0.23;0.23;0" keyTimes="0;0.06;0.88;1" begin="0.18s" dur="2.65s" calcMode="linear" repeatCount="1" fill="freeze"/><animateMotion path="M-30,294 C185,220 378,232 563,290 C750,347 910,320 1032,245" begin="0.18s" dur="2.65s" calcMode="paced" repeatCount="1" fill="freeze" rotate="auto"/></g>
<g opacity="0"><path d="M0,-11 L-5,-17 L-3,-9 C-10,-11 -15,-17 -24,-20 L-39,-19 L-31,-12 L-45,-7 L-35,-2 L-43,5 L-31,4 L-26,12 L-18,7 L-12,14 L-7,5 C-6,10 -4,14 0,18 C4,14 6,10 7,5 L12,14 L18,7 L26,12 L31,4 L43,5 L35,-2 L45,-7 L31,-12 L39,-19 L24,-20 C15,-17 10,-11 3,-9 L5,-17 Z" transform="scale(0.39)"/><animate attributeName="opacity" values="0;0.26;0.26;0" keyTimes="0;0.06;0.88;1" begin="0.21s" dur="2.35s" calcMode="linear" repeatCount="1" fill="freeze"/><animateMotion path="M-34,338 C195,265 390,278 575,335 C760,392 915,365 1035,292" begin="0.21s" dur="2.35s" calcMode="paced" repeatCount="1" fill="freeze" rotate="auto"/></g>
<g opacity="0"><path d="M0,-11 L-5,-17 L-3,-9 C-10,-11 -15,-17 -24,-20 L-39,-19 L-31,-12 L-45,-7 L-35,-2 L-43,5 L-31,4 L-26,12 L-18,7 L-12,14 L-7,5 C-6,10 -4,14 0,18 C4,14 6,10 7,5 L12,14 L18,7 L26,12 L31,4 L43,5 L35,-2 L45,-7 L31,-12 L39,-19 L24,-20 C15,-17 10,-11 3,-9 L5,-17 Z" transform="scale(0.43)"/><animate attributeName="opacity" values="0;0.18;0.18;0" keyTimes="0;0.06;0.88;1" begin="0.24s" dur="2.20s" calcMode="linear" repeatCount="1" fill="freeze"/><animateMotion path="M-30,382 C205,312 402,322 590,378 C775,433 920,410 1032,340" begin="0.24s" dur="2.20s" calcMode="paced" repeatCount="1" fill="freeze" rotate="auto"/></g>
<g opacity="0"><path d="M0,-11 L-5,-17 L-3,-9 C-10,-11 -15,-17 -24,-20 L-39,-19 L-31,-12 L-45,-7 L-35,-2 L-43,5 L-31,4 L-26,12 L-18,7 L-12,14 L-7,5 C-6,10 -4,14 0,18 C4,14 6,10 7,5 L12,14 L18,7 L26,12 L31,4 L43,5 L35,-2 L45,-7 L31,-12 L39,-19 L24,-20 C15,-17 10,-11 3,-9 L5,-17 Z" transform="scale(0.48)"/><animate attributeName="opacity" values="0;0.20;0.20;0" keyTimes="0;0.06;0.88;1" begin="0.27s" dur="2.45s" calcMode="linear" repeatCount="1" fill="freeze"/><animateMotion path="M-32,426 C215,360 418,368 605,420 C790,472 925,450 1030,388" begin="0.27s" dur="2.45s" calcMode="paced" repeatCount="1" fill="freeze" rotate="auto"/></g>
<g opacity="0"><path d="M0,-11 L-5,-17 L-3,-9 C-10,-11 -15,-17 -24,-20 L-39,-19 L-31,-12 L-45,-7 L-35,-2 L-43,5 L-31,4 L-26,12 L-18,7 L-12,14 L-7,5 C-6,10 -4,14 0,18 C4,14 6,10 7,5 L12,14 L18,7 L26,12 L31,4 L43,5 L35,-2 L45,-7 L31,-12 L39,-19 L24,-20 C15,-17 10,-11 3,-9 L5,-17 Z" transform="scale(0.52)"/><animate attributeName="opacity" values="0;0.23;0.23;0" keyTimes="0;0.06;0.88;1" begin="0.30s" dur="2.30s" calcMode="linear" repeatCount="1" fill="freeze"/><animateMotion path="M-30,468 C225,405 430,412 618,463 C800,512 930,492 1028,435" begin="0.30s" dur="2.30s" calcMode="paced" repeatCount="1" fill="freeze" rotate="auto"/></g>
<g opacity="0"><path d="M0,-11 L-5,-17 L-3,-9 C-10,-11 -15,-17 -24,-20 L-39,-19 L-31,-12 L-45,-7 L-35,-2 L-43,5 L-31,4 L-26,12 L-18,7 L-12,14 L-7,5 C-6,10 -4,14 0,18 C4,14 6,10 7,5 L12,14 L18,7 L26,12 L31,4 L43,5 L35,-2 L45,-7 L31,-12 L39,-19 L24,-20 C15,-17 10,-11 3,-9 L5,-17 Z" transform="scale(0.56)"/><animate attributeName="opacity" values="0;0.26;0.26;0" keyTimes="0;0.06;0.88;1" begin="0.33s" dur="2.55s" calcMode="linear" repeatCount="1" fill="freeze"/><animateMotion path="M-28,505 C235,452 445,456 632,500 C810,542 940,525 1032,478" begin="0.33s" dur="2.55s" calcMode="paced" repeatCount="1" fill="freeze" rotate="auto"/></g>
<g opacity="0"><path d="M0,-11 L-5,-17 L-3,-9 C-10,-11 -15,-17 -24,-20 L-39,-19 L-31,-12 L-45,-7 L-35,-2 L-43,5 L-31,4 L-26,12 L-18,7 L-12,14 L-7,5 C-6,10 -4,14 0,18 C4,14 6,10 7,5 L12,14 L18,7 L26,12 L31,4 L43,5 L35,-2 L45,-7 L31,-12 L39,-19 L24,-20 C15,-17 10,-11 3,-9 L5,-17 Z" transform="scale(0.34)"/><animate attributeName="opacity" values="0;0.18;0.18;0" keyTimes="0;0.06;0.88;1" begin="0.02s" dur="2.30s" calcMode="linear" repeatCount="1" fill="freeze"/><animateMotion path="M1025,62 C830,10 650,38 470,104 C295,168 130,148 -45,55" begin="0.02s" dur="2.30s" calcMode="paced" repeatCount="1" fill="freeze" rotate="auto"/></g>
<g opacity="0"><path d="M0,-11 L-5,-17 L-3,-9 C-10,-11 -15,-17 -24,-20 L-39,-19 L-31,-12 L-45,-7 L-35,-2 L-43,5 L-31,4 L-26,12 L-18,7 L-12,14 L-7,5 C-6,10 -4,14 0,18 C4,14 6,10 7,5 L12,14 L18,7 L26,12 L31,4 L43,5 L35,-2 L45,-7 L31,-12 L39,-19 L24,-20 C15,-17 10,-11 3,-9 L5,-17 Z" transform="scale(0.39)"/><animate attributeName="opacity" values="0;0.20;0.20;0" keyTimes="0;0.06;0.88;1" begin="0.05s" dur="2.45s" calcMode="linear" repeatCount="1" fill="freeze"/><animateMotion path="M1032,100 C835,45 655,70 475,136 C298,201 125,178 -48,86" begin="0.05s" dur="2.45s" calcMode="paced" repeatCount="1" fill="freeze" rotate="auto"/></g>
<g opacity="0"><path d="M0,-11 L-5,-17 L-3,-9 C-10,-11 -15,-17 -24,-20 L-39,-19 L-31,-12 L-45,-7 L-35,-2 L-43,5 L-31,4 L-26,12 L-18,7 L-12,14 L-7,5 C-6,10 -4,14 0,18 C4,14 6,10 7,5 L12,14 L18,7 L26,12 L31,4 L43,5 L35,-2 L45,-7 L31,-12 L39,-19 L24,-20 C15,-17 10,-11 3,-9 L5,-17 Z" transform="scale(0.43)"/><animate attributeName="opacity" values="0;0.23;0.23;0" keyTimes="0;0.06;0.88;1" begin="0.08s" dur="2.20s" calcMode="linear" repeatCount="1" fill="freeze"/><animateMotion path="M1030,138 C838,80 660,105 480,170 C300,235 120,208 -45,118" begin="0.08s" dur="2.20s" calcMode="paced" repeatCount="1" fill="freeze" rotate="auto"/></g>
<g opacity="0"><path d="M0,-11 L-5,-17 L-3,-9 C-10,-11 -15,-17 -24,-20 L-39,-19 L-31,-12 L-45,-7 L-35,-2 L-43,5 L-31,4 L-26,12 L-18,7 L-12,14 L-7,5 C-6,10 -4,14 0,18 C4,14 6,10 7,5 L12,14 L18,7 L26,12 L31,4 L43,5 L35,-2 L45,-7 L31,-12 L39,-19 L24,-20 C15,-17 10,-11 3,-9 L5,-17 Z" transform="scale(0.48)"/><animate attributeName="opacity" values="0;0.26;0.26;0" keyTimes="0;0.06;0.88;1" begin="0.11s" dur="2.35s" calcMode="linear" repeatCount="1" fill="freeze"/><animateMotion path="M1035,178 C842,120 665,142 485,207 C302,271 118,245 -48,155" begin="0.11s" dur="2.35s" calcMode="paced" repeatCount="1" fill="freeze" rotate="auto"/></g>
<g opacity="0"><path d="M0,-11 L-5,-17 L-3,-9 C-10,-11 -15,-17 -24,-20 L-39,-19 L-31,-12 L-45,-7 L-35,-2 L-43,5 L-31,4 L-26,12 L-18,7 L-12,14 L-7,5 C-6,10 -4,14 0,18 C4,14 6,10 7,5 L12,14 L18,7 L26,12 L31,4 L43,5 L35,-2 L45,-7 L31,-12 L39,-19 L24,-20 C15,-17 10,-11 3,-9 L5,-17 Z" transform="scale(0.52)"/><animate attributeName="opacity" values="0;0.18;0.18;0" keyTimes="0;0.06;0.88;1" begin="0.14s" dur="2.50s" calcMode="linear" repeatCount="1" fill="freeze"/><animateMotion path="M1030,220 C845,163 670,184 490,247 C305,311 115,286 -45,198" begin="0.14s" dur="2.50s" calcMode="paced" repeatCount="1" fill="freeze" rotate="auto"/></g>
<g opacity="0"><path d="M0,-11 L-5,-17 L-3,-9 C-10,-11 -15,-17 -24,-20 L-39,-19 L-31,-12 L-45,-7 L-35,-2 L-43,5 L-31,4 L-26,12 L-18,7 L-12,14 L-7,5 C-6,10 -4,14 0,18 C4,14 6,10 7,5 L12,14 L18,7 L26,12 L31,4 L43,5 L35,-2 L45,-7 L31,-12 L39,-19 L24,-20 C15,-17 10,-11 3,-9 L5,-17 Z" transform="scale(0.56)"/><animate attributeName="opacity" values="0;0.20;0.20;0" keyTimes="0;0.06;0.88;1" begin="0.17s" dur="2.60s" calcMode="linear" repeatCount="1" fill="freeze"/><animateMotion path="M1032,264 C848,208 675,228 495,291 C308,354 112,330 -48,242" begin="0.17s" dur="2.60s" calcMode="paced" repeatCount="1" fill="freeze" rotate="auto"/></g>
<g opacity="0"><path d="M0,-11 L-5,-17 L-3,-9 C-10,-11 -15,-17 -24,-20 L-39,-19 L-31,-12 L-45,-7 L-35,-2 L-43,5 L-31,4 L-26,12 L-18,7 L-12,14 L-7,5 C-6,10 -4,14 0,18 C4,14 6,10 7,5 L12,14 L18,7 L26,12 L31,4 L43,5 L35,-2 L45,-7 L31,-12 L39,-19 L24,-20 C15,-17 10,-11 3,-9 L5,-17 Z" transform="scale(0.34)"/><animate attributeName="opacity" values="0;0.23;0.23;0" keyTimes="0;0.06;0.88;1" begin="0.20s" dur="2.40s" calcMode="linear" repeatCount="1" fill="freeze"/><animateMotion path="M1030,310 C850,255 678,274 500,336 C310,398 110,375 -45,288" begin="0.20s" dur="2.40s" calcMode="paced" repeatCount="1" fill="freeze" rotate="auto"/></g>
<g opacity="0"><path d="M0,-11 L-5,-17 L-3,-9 C-10,-11 -15,-17 -24,-20 L-39,-19 L-31,-12 L-45,-7 L-35,-2 L-43,5 L-31,4 L-26,12 L-18,7 L-12,14 L-7,5 C-6,10 -4,14 0,18 C4,14 6,10 7,5 L12,14 L18,7 L26,12 L31,4 L43,5 L35,-2 L45,-7 L31,-12 L39,-19 L24,-20 C15,-17 10,-11 3,-9 L5,-17 Z" transform="scale(0.39)"/><animate attributeName="opacity" values="0;0.26;0.26;0" keyTimes="0;0.06;0.88;1" begin="0.23s" dur="2.25s" calcMode="linear" repeatCount="1" fill="freeze"/><animateMotion path="M1035,356 C852,302 680,320 502,381 C312,442 108,420 -48,334" begin="0.23s" dur="2.25s" calcMode="paced" repeatCount="1" fill="freeze" rotate="auto"/></g>
<g opacity="0"><path d="M0,-11 L-5,-17 L-3,-9 C-10,-11 -15,-17 -24,-20 L-39,-19 L-31,-12 L-45,-7 L-35,-2 L-43,5 L-31,4 L-26,12 L-18,7 L-12,14 L-7,5 C-6,10 -4,14 0,18 C4,14 6,10 7,5 L12,14 L18,7 L26,12 L31,4 L43,5 L35,-2 L45,-7 L31,-12 L39,-19 L24,-20 C15,-17 10,-11 3,-9 L5,-17 Z" transform="scale(0.43)"/><animate attributeName="opacity" values="0;0.18;0.18;0" keyTimes="0;0.06;0.88;1" begin="0.26s" dur="2.45s" calcMode="linear" repeatCount="1" fill="freeze"/><animateMotion path="M1030,402 C848,350 675,367 498,426 C310,486 110,465 -45,380" begin="0.26s" dur="2.45s" calcMode="paced" repeatCount="1" fill="freeze" rotate="auto"/></g>
<g opacity="0"><path d="M0,-11 L-5,-17 L-3,-9 C-10,-11 -15,-17 -24,-20 L-39,-19 L-31,-12 L-45,-7 L-35,-2 L-43,5 L-31,4 L-26,12 L-18,7 L-12,14 L-7,5 C-6,10 -4,14 0,18 C4,14 6,10 7,5 L12,14 L18,7 L26,12 L31,4 L43,5 L35,-2 L45,-7 L31,-12 L39,-19 L24,-20 C15,-17 10,-11 3,-9 L5,-17 Z" transform="scale(0.48)"/><animate attributeName="opacity" values="0;0.20;0.20;0" keyTimes="0;0.06;0.88;1" begin="0.29s" dur="2.35s" calcMode="linear" repeatCount="1" fill="freeze"/><animateMotion path="M1032,446 C845,398 668,414 492,470 C305,526 115,508 -48,425" begin="0.29s" dur="2.35s" calcMode="paced" repeatCount="1" fill="freeze" rotate="auto"/></g>
<g opacity="0"><path d="M0,-11 L-5,-17 L-3,-9 C-10,-11 -15,-17 -24,-20 L-39,-19 L-31,-12 L-45,-7 L-35,-2 L-43,5 L-31,4 L-26,12 L-18,7 L-12,14 L-7,5 C-6,10 -4,14 0,18 C4,14 6,10 7,5 L12,14 L18,7 L26,12 L31,4 L43,5 L35,-2 L45,-7 L31,-12 L39,-19 L24,-20 C15,-17 10,-11 3,-9 L5,-17 Z" transform="scale(0.52)"/><animate attributeName="opacity" values="0;0.23;0.23;0" keyTimes="0;0.06;0.88;1" begin="0.32s" dur="2.50s" calcMode="linear" repeatCount="1" fill="freeze"/><animateMotion path="M1028,486 C838,444 660,456 485,506 C300,557 122,540 -45,465" begin="0.32s" dur="2.50s" calcMode="paced" repeatCount="1" fill="freeze" rotate="auto"/></g>
<g opacity="0"><path d="M0,-11 L-5,-17 L-3,-9 C-10,-11 -15,-17 -24,-20 L-39,-19 L-31,-12 L-45,-7 L-35,-2 L-43,5 L-31,4 L-26,12 L-18,7 L-12,14 L-7,5 C-6,10 -4,14 0,18 C4,14 6,10 7,5 L12,14 L18,7 L26,12 L31,4 L43,5 L35,-2 L45,-7 L31,-12 L39,-19 L24,-20 C15,-17 10,-11 3,-9 L5,-17 Z" transform="scale(0.56)"/><animate attributeName="opacity" values="0;0.26;0.26;0" keyTimes="0;0.06;0.88;1" begin="0.35s" dur="2.65s" calcMode="linear" repeatCount="1" fill="freeze"/><animateMotion path="M1025,520 C830,486 650,494 475,536 C290,580 130,565 -42,500" begin="0.35s" dur="2.65s" calcMode="paced" repeatCount="1" fill="freeze" rotate="auto"/></g>
</g>
</svg>