<svg xmlns="http://www.w3.org/2000/svg" viewBox="0 0 230 230" width="360" height="360" role="img" aria-label="Batman portrait">
<rect width="230" height="230" fill="#f5f2e6"/>
<path d="M68,0 66,29 59,67 60,108 65,120 68,143 60,149 61,150 57,157 53,188 50,193 50,203 48,203 46,197 42,202 33,207 23,207 18,212 13,214 12,222 9,216 0,218 0,229 229,229 229,211 225,211 214,223 215,224 212,225 211,222 217,214 215,210 208,205 205,206 204,211 201,213 195,209 201,200 191,193 187,197 183,188 176,149 168,141 168,129 176,103 176,71 168,31 165,0 158,0 155,15 149,21 138,21 121,17 83,21 77,13 75,1Z" fill="#d7d4c9" fill-rule="evenodd"/>
<path d="M68,0 66,33 60,63 59,87 61,110 65,119 66,129 68,131 68,139 70,141 62,148 59,155 49,204 47,202 46,198 42,204 39,204 33,208 23,209 19,213 14,214 12,223 9,217 0,220 0,229 229,229 229,212 224,212 214,223 216,225 213,226 210,223 217,212 206,205 205,210 202,213 199,213 195,207 201,201 191,193 187,198 183,190 178,160 173,147 168,142 168,127 175,107 176,76 174,58 168,33 165,0 159,0 155,16 150,21 137,21 115,17 89,22 81,20 77,14 74,0Z M49,211 50,209 52,210 50,212Z M60,203 62,207 61,210 56,212 55,211 59,208Z" fill="#aaa9a4" fill-rule="evenodd"/>
<path d="M68,0 66,40 64,43 60,66 60,92 62,110 69,130 68,134 71,148 70,149 68,145 66,145 61,151 62,157 60,157 60,162 58,164 59,168 57,169 55,187 51,195 51,203 48,204 46,201 41,207 37,207 36,209 24,209 18,216 14,217 13,224 9,219 0,223 0,229 229,229 229,213 225,212 215,222 218,226 217,227 212,226 210,222 217,212 206,206 202,213 198,213 195,210 195,206 201,201 192,194 190,194 186,199 181,188 182,182 178,167 176,165 175,154 174,156 173,155 173,147 167,141 166,131 168,129 168,119 175,104 175,71 173,67 174,60 171,45 168,39 169,35 167,31 165,0 159,0 156,14 150,21 140,22 120,19 117,22 115,20 114,23 114,18 108,21 106,19 100,22 84,22 77,14 74,0Z M52,209 53,210 51,211 50,216 48,211Z M60,203 62,206 61,211 55,212 54,211 58,209 58,204Z M76,160 77,158 79,159 77,161Z M75,156 76,155 77,157 76,158Z M74,154 76,152 78,154Z M70,152 71,151 73,153 71,154Z M69,150 70,149 71,151 70,152Z M162,147 164,150 163,152 160,151Z M74,145 77,146 76,152 73,148Z M72,143 73,142 74,144 73,145Z M162,141 164,144 163,146 161,145Z M73,141 74,140 75,142 74,143Z M109,24 111,26 110,28 112,28 111,30 107,28Z M104,26 105,23 108,24 106,27Z M112,21 115,24 113,27 111,24Z" fill="#767777" fill-rule="evenodd"/>
<path d="M69,0 68,38 66,43 68,40 72,45 69,50 70,53 68,53 68,62 66,63 66,60 64,60 65,62 62,68 61,83 63,109 68,118 71,119 74,124 68,124 73,156 71,158 68,157 69,149 67,145 62,149 64,163 63,164 60,161 61,168 57,174 58,177 55,193 51,197 52,203 50,205 47,203 43,208 40,208 39,211 32,209 34,210 33,212 25,210 18,219 14,219 15,221 13,226 11,222 9,224 0,223 0,229 229,229 229,213 224,213 215,222 218,226 215,227 210,224 212,218 216,214 214,210 206,206 203,213 198,213 194,208 200,200 191,194 185,200 181,195 182,193 178,174 176,173 178,172 176,171 177,170 172,169 173,161 172,162 171,159 173,148 170,144 168,144 168,150 165,150 166,129 168,125 168,120 166,117 168,113 172,111 174,84 170,51 166,36 164,0 159,1 156,15 151,21 143,23 132,22 130,24 127,21 128,25 127,26 125,24 127,29 124,29 124,32 120,31 119,34 118,32 117,33 119,34 118,35 106,34 102,37 101,35 96,34 98,32 97,31 96,33 93,31 95,30 93,29 94,27 96,27 94,24 83,22 78,17 74,0Z M51,208 54,210 51,212 50,221 48,210Z M59,202 62,205 62,209 58,213 54,211 58,209Z M53,201 55,200 56,202 55,203Z M169,165 170,164 171,166 170,167Z M63,164 64,163 65,165 64,166Z M72,157 73,156 74,158 73,159Z M165,152 166,151 167,153 166,154Z M72,137 79,145 79,156 82,167 81,171 76,164 71,140Z M164,134 164,154 160,164 157,167 156,164 159,154 159,141Z M65,65 66,64 67,66 66,67Z M69,50 70,49 72,51 70,52Z M70,48 71,47 72,49 71,50Z" fill="#4c4f50" fill-rule="evenodd"/>
<path d="M223,214 215,223 219,229 229,229 229,218 225,217 228,214Z M50,208 52,207 53,209 55,207 55,210 58,208 55,204 54,206 52,204 53,205Z M69,0 69,36 76,36 81,40 81,46 78,48 76,46 78,51 77,52 75,50 67,77 63,80 64,109 66,114 70,117 69,118 72,118 73,113 75,113 74,126 71,127 68,125 71,131 69,135 75,161 74,162 71,159 70,161 69,160 68,146 64,147 62,149 62,155 68,170 67,171 62,164 64,171 61,171 59,174 59,188 52,201 58,201 62,205 62,210 59,213 52,211 50,225 43,224 49,223 48,212 44,212 42,209 42,212 39,214 38,212 35,214 25,212 25,215 20,220 22,221 21,223 23,223 22,225 15,224 16,227 14,228 9,225 0,224 0,229 22,229 23,226 24,229 214,228 210,225 211,218 207,218 205,214 200,214 194,209 194,207 200,202 197,198 191,194 184,202 183,199 181,199 182,197 178,188 177,179 172,176 173,174 170,172 171,169 168,169 168,164 173,151 172,146 169,144 167,156 165,158 164,157 166,141 165,132 167,127 167,119 164,114 164,108 166,108 167,113 168,109 172,107 173,80 166,38 164,0 160,0 155,18 146,26 147,32 145,34 146,33 149,36 147,38 150,40 149,43 147,44 145,42 144,44 140,41 139,43 136,39 135,41 133,41 133,39 130,41 129,38 124,42 117,41 118,42 114,45 111,44 113,43 111,40 108,40 107,42 104,41 101,45 99,43 97,44 93,39 93,42 91,40 89,42 88,40 90,38 86,35 86,38 82,33 82,27 87,24 84,24 84,22 78,17 74,0Z M110,182 111,181 114,183 111,184Z M126,181 127,179 130,180 127,182Z M111,180 117,178 117,180 121,180 116,184Z M69,164 70,163 71,165 70,166Z M71,136 80,146 80,155 84,170 83,174 76,165Z M164,134 164,155 160,165 156,169 155,164 158,155 158,142Z M103,57 108,58 108,62 106,64 104,62 106,60 100,60Z M98,59 100,56 102,58 100,60Z M100,54 102,53 103,55 102,56Z M102,53 104,52 106,54 104,55Z M107,52 109,49 114,51 109,54Z M115,45 116,44 118,46 116,47Z M87,37 88,39 86,40 85,39Z M73,28 74,27 75,29 74,30Z M74,26 76,25 77,27 75,28Z" fill="#292c2d" fill-rule="evenodd"/>
<path d="M5,228 10,229 11,227 13,229 11,227Z M16,229 21,229 20,227 23,226 17,225Z M221,216 215,223 219,226 219,229 229,229 229,219 227,222 226,219 224,220 224,217 222,218Z M165,140 165,151 163,157 165,154Z M163,0 160,0 158,14 152,22 157,24 160,28 159,30 154,28 154,36 153,37 151,35 155,42 152,47 141,49 136,46 131,46 132,47 128,49 127,47 129,45 127,45 127,48 131,54 130,58 123,60 125,61 124,62 121,61 122,62 116,66 116,69 114,68 114,65 110,65 112,67 105,69 103,67 99,68 98,70 96,64 94,67 91,62 95,62 89,61 88,59 91,58 91,53 87,56 86,55 89,52 88,50 85,49 81,53 77,53 77,57 73,61 72,70 70,71 69,77 70,75 71,79 67,81 68,82 66,83 64,90 66,96 65,108 66,113 71,113 70,110 72,109 76,115 77,120 75,120 75,127 70,127 72,129 72,136 81,146 83,167 87,175 85,176 80,173 73,161 71,163 72,167 69,167 68,147 66,147 63,152 65,159 64,162 67,164 70,170 69,172 72,175 69,176 66,172 68,175 63,176 61,174 60,191 58,191 59,193 56,197 59,202 62,204 65,203 66,205 64,208 62,207 61,213 57,217 55,216 54,218 58,218 56,221 54,220 55,225 48,229 47,225 47,227 45,225 41,225 41,223 48,223 49,220 47,218 44,219 39,215 39,220 34,217 30,223 27,222 34,228 30,229 37,229 37,227 39,227 39,229 42,227 48,229 211,229 213,227 209,227 207,224 208,221 204,218 203,214 200,215 195,211 194,207 198,201 191,196 187,201 185,201 185,203 181,206 179,205 180,202 179,198 177,197 178,191 173,189 176,187 173,186 172,179 169,176 170,171 165,183 163,183 167,171 166,168 172,155 172,148 169,146 166,167 165,168 162,164 163,159 158,167 159,168 153,173 152,172 156,161 157,142 161,136 165,134 167,120 163,112 163,108 165,105 167,106 166,108 170,105 170,100 172,98 170,66 168,65 169,61 166,51 167,43 164,36 166,32 164,24 165,17Z M113,226 120,224 130,225 122,227Z M36,225 39,224 41,227 37,227Z M59,222 61,225 60,227 58,225Z M60,216 61,218 58,221 57,219Z M188,201 189,202 186,204 185,203Z M175,197 176,196 177,198 176,199Z M162,185 163,188 160,194 159,191Z M162,184 163,183 164,185 163,186Z M102,180 107,177 109,178 115,176 131,176 138,180 136,181 137,184 135,186 122,190 111,188Z M121,162 122,160 127,161 124,163Z M118,161 120,160 121,162 120,163Z M86,151 88,150 88,147 92,146 96,148 96,150 101,150 108,159 112,160 110,164 108,162 107,164 100,163 100,166 115,165 121,167 122,165 129,165 131,167 139,165 141,167 140,163 136,162 132,164 127,160 141,149 152,149 149,156 149,161 144,169 142,169 141,173 131,175 129,173 130,170 108,170 107,176 106,174 100,174 93,168 92,164 90,163 91,159 87,156 88,154Z M86,146 87,145 88,147 87,148Z M114,130 115,129 117,132 116,133Z M95,114 96,113 97,115 96,116Z M79,104 84,103 87,105 84,106Z M71,104 72,103 73,105 72,106Z M76,102 78,100 80,102Z M163,100 164,99 165,101 164,102Z M73,96 74,101 71,103 70,102Z M118,82 119,84 117,85 116,84Z M94,74 95,70 99,71 95,75Z M126,63 128,64 127,68 125,65Z M128,63 129,62 130,64 129,65Z M87,63 89,61 91,63Z M83,58 85,60 83,62 81,60Z M88,56 89,58 87,59 86,58Z M86,55 87,57 85,58 84,57Z M132,58 134,57 134,54 139,57 136,59Z M77,55 78,54 79,56 78,57Z M133,53 135,51 138,52 135,54Z M84,51 85,50 86,52 85,53Z M155,39 156,38 157,40 156,41Z M73,0 70,0 69,3 69,32 72,29 75,6Z" fill="#090b0c" fill-rule="evenodd"/>
</svg>