<svg xmlns="http://www.w3.org/2000/svg" width="1000" height="205" viewBox="0 0 1000 205" role="img" aria-labelledby="title desc">
<title id="title">Rocky, an Eridian from Project Hail Mary, walking</title>
<desc id="desc">A stylized faceless five-limbed rock-like Eridian with carved markings and teal mineral inclusions, animated walking across the profile.</desc>
<defs>
  <linearGradient id="rock" x1="0" y1="0" x2="1" y2="1">
    <stop offset="0" stop-color="#b58a61"/>
    <stop offset=".28" stop-color="#896343"/>
    <stop offset=".62" stop-color="#654731"/>
    <stop offset="1" stop-color="#3b2b22"/>
  </linearGradient>
  <linearGradient id="rock2" x1="0" y1="0" x2=".8" y2="1">
    <stop offset="0" stop-color="#98704d"/>
    <stop offset=".55" stop-color="#694a33"/>
    <stop offset="1" stop-color="#352820"/>
  </linearGradient>
  <linearGradient id="edge" x1="0" y1="0" x2="1" y2="0">
    <stop offset="0" stop-color="#221b18"/>
    <stop offset=".48" stop-color="#5d4534"/>
    <stop offset="1" stop-color="#181413"/>
  </linearGradient>
  <radialGradient id="mineral">
    <stop offset="0" stop-color="#72ead6"/>
    <stop offset=".45" stop-color="#25aa98"/>
    <stop offset="1" stop-color="#0b615b"/>
  </radialGradient>
  <radialGradient id="bodyLight" cx=".35" cy=".18" r=".9">
    <stop offset="0" stop-color="#a77a54"/>
    <stop offset=".4" stop-color="#76543a"/>
    <stop offset="1" stop-color="#35271f"/>
  </radialGradient>
  <filter id="shadow" x="-80%" y="-400%" width="260%" height="900%">
    <feGaussianBlur stdDeviation="4"/>
  </filter>
  <filter id="softGlow" x="-80%" y="-80%" width="260%" height="260%">
    <feGaussianBlur stdDeviation="2.2" result="b"/>
    <feMerge><feMergeNode in="b"/><feMergeNode in="SourceGraphic"/></feMerge>
  </filter>
</defs>

<g opacity=".20" fill="#0f1720">
  <circle cx="80" cy="22" r="1.1"/><circle cx="280" cy="31" r=".8"/><circle cx="490" cy="17" r=".9"/>
  <circle cx="720" cy="28" r=".7"/><circle cx="915" cy="19" r="1"/>
</g>

<g transform="translate(112 0)">
  <animateTransform attributeName="transform" type="translate"
    values="112 0;888 0;888 0;112 0;112 0"
    keyTimes="0;.43;.50;.93;1" dur="18s" repeatCount="indefinite"/>

  <ellipse cx="0" cy="188" rx="75" ry="6" fill="#000" opacity=".22" filter="url(#shadow)">
    <animate attributeName="rx" values="72;61;70;60;72" dur=".92s" repeatCount="indefinite"/>
    <animate attributeName="opacity" values=".22;.14;.22" dur=".92s" repeatCount="indefinite"/>
  </ellipse>

  <g>
    <animateTransform attributeName="transform" type="scale"
      values="1 1;1 1;-1 1;-1 1;1 1"
      keyTimes="0;.43;.50;.93;1" dur="18s" repeatCount="indefinite"/>

    <g>
      <animateTransform attributeName="transform" type="translate"
        values="0 1;0 -3;0 1" dur=".92s" repeatCount="indefinite"/>

      <!-- rear upper limb -->
      <g>
        <animateTransform attributeName="transform" type="rotate"
          values="-4 -31 86;9 -31 86;-4 -31 86" dur=".92s" repeatCount="indefinite"/>
        <path d="M-33 76 C-53 75 -71 84 -84 100 C-90 108 -88 118 -79 122 C-70 126 -63 119 -58 111 C-49 98 -39 95 -27 95 Z"
              fill="url(#rock2)" stroke="#2b211b" stroke-width="2"/>
        <path d="M-83 105 C-98 116 -110 132 -113 150 C-114 160 -108 166 -99 165 C-91 164 -88 156 -88 149 C-86 138 -78 128 -69 121 Z"
              fill="url(#rock)" stroke="#2b211b" stroke-width="2"/>
        <path d="M-102 163 l-10 18 l16 2 l11-18 z" fill="#3a2b22" stroke="#211916" stroke-width="2"/>
        <path d="M-71 91 l12 5 M-82 101 l12 6 M-94 121 l12 7 M-101 136 l11 5" fill="none" stroke="#c2a07c" stroke-opacity=".38" stroke-width="1.4"/>
      </g>

      <!-- rear lower limb -->
      <g>
        <animateTransform attributeName="transform" type="rotate"
          values="10 -36 101;-8 -36 101;10 -36 101" dur=".92s" repeatCount="indefinite"/>
        <path d="M-39 94 C-58 104 -69 121 -72 139 C-74 149 -67 155 -58 153 C-50 152 -47 144 -46 136 C-44 126 -37 118 -28 113 Z"
              fill="url(#rock)" stroke="#2b211b" stroke-width="2"/>
        <path d="M-61 149 C-67 160 -70 172 -67 183 L-47 183 C-49 174 -45 164 -39 156 Z"
              fill="url(#rock2)" stroke="#2b211b" stroke-width="2"/>
        <path d="M-68 180 l-7 7 l31 0 l-5-7 z" fill="#30241e"/>
        <path d="M-56 112 l13 4 M-61 123 l13 5 M-63 166 l15 3" fill="none" stroke="#d0ae88" stroke-opacity=".34" stroke-width="1.4"/>
      </g>

      <!-- central support limb -->
      <g>
        <animateTransform attributeName="transform" type="rotate"
          values="-3 0 112;5 0 112;-3 0 112" dur=".92s" begin="-.31s" repeatCount="indefinite"/>
        <path d="M-13 106 C-17 123 -14 139 -7 150 C-2 157 9 156 14 149 C20 140 19 124 13 107 Z"
              fill="url(#rock2)" stroke="#2a211c" stroke-width="2"/>
        <path d="M-7 149 C-11 160 -12 173 -7 183 L12 183 C14 171 12 161 9 151 Z"
              fill="url(#rock)" stroke="#2a211c" stroke-width="2"/>
        <path d="M-10 181 l-8 6 h37 l-8-6 z" fill="#2d241f"/>
        <path d="M-7 124 l15 0 M-5 132 l15 0 M-3 164 l12 0" fill="none" stroke="#c6a27c" stroke-opacity=".32" stroke-width="1.3"/>
      </g>

      <!-- front ground limb -->
      <g>
        <animateTransform attributeName="transform" type="rotate"
          values="-10 35 101;10 35 101;-10 35 101" dur=".92s" repeatCount="indefinite"/>
        <path d="M29 94 C48 103 60 119 64 137 C67 148 60 155 51 153 C43 151 40 143 39 136 C36 125 31 118 22 113 Z"
              fill="url(#rock)" stroke="#2b211b" stroke-width="2"/>
        <path d="M54 149 C61 160 64 172 61 183 L42 183 C43 172 39 163 33 156 Z"
              fill="url(#rock2)" stroke="#2b211b" stroke-width="2"/>
        <path d="M62 180 l9 7 H38 l5-7 z" fill="#30241e"/>
        <path d="M39 109 l13 5 M44 120 l13 5 M45 166 l14 3" fill="none" stroke="#d0ae88" stroke-opacity=".36" stroke-width="1.4"/>
        <path d="M51 133 q6 3 12 0" fill="none" stroke="#1b756d" stroke-width="3" opacity=".8"/>
      </g>

      <!-- expressive / forward limb with three fingers -->
      <g>
        <animateTransform attributeName="transform" type="rotate"
          values="7 31 79;-9 31 79;7 31 79" dur=".92s" begin="-.31s" repeatCount="indefinite"/>
        <path d="M28 70 C47 70 64 79 77 91 C84 98 84 108 76 113 C68 118 61 112 55 106 C47 98 38 94 26 94 Z"
              fill="url(#rock2)" stroke="#2b211b" stroke-width="2"/>
        <path d="M75 93 C91 99 104 110 112 123 C117 132 114 140 106 143 C98 146 93 139 89 132 C84 124 77 119 68 116 Z"
              fill="url(#rock)" stroke="#2b211b" stroke-width="2"/>
        <g transform="translate(108 136)">
          <path d="M0 0 l20 4 l-16 8 z" fill="#4b3528" stroke="#261d18" stroke-width="1.4"/>
          <path d="M1 1 l18 12 l-20 1 z" fill="#5b402f" stroke="#261d18" stroke-width="1.4"/>
          <path d="M-1 2 l8 18 l-14-9 z" fill="#473228" stroke="#261d18" stroke-width="1.4"/>
        </g>
        <path d="M48 82 l13 6 M60 91 l12 7 M84 108 l13 8 M91 119 l12 8" fill="none" stroke="#ceb08d" stroke-opacity=".42" stroke-width="1.4"/>
        <circle cx="70" cy="101" r="4.7" fill="url(#mineral)" filter="url(#softGlow)"/>
      </g>

      <!-- dark articulated shoulder joints -->
      <g fill="url(#edge)" stroke="#221a16" stroke-width="2">
        <ellipse cx="-34" cy="86" rx="17" ry="15"/>
        <ellipse cx="-34" cy="102" rx="16" ry="14"/>
        <ellipse cx="0" cy="108" rx="16" ry="13"/>
        <ellipse cx="34" cy="102" rx="16" ry="14"/>
        <ellipse cx="33" cy="80" rx="17" ry="15"/>
      </g>

      <!-- faceless central carapace -->
      <path d="M-44 61 Q-31 42 -8 36 Q15 34 38 48 L49 73 Q45 99 29 117 Q1 128 -26 116 Q-44 102 -50 79 Z"
            fill="url(#bodyLight)" stroke="#251c18" stroke-width="2.6"/>
      <path d="M-36 59 Q-16 44 8 44 Q28 46 39 60 L32 77 Q4 68 -31 77 Z"
            fill="#b38a62" opacity=".25"/>
      <path d="M-25 45 Q0 29 25 45 L18 58 Q0 52 -20 59 Z"
            fill="url(#rock)" stroke="#2d211b" stroke-width="2"/>

      <!-- pentagonal crown plate; deliberately no eyes or face -->
      <path d="M-19 46 L-6 35 L13 37 L26 49 L16 60 L-7 59 Z"
            fill="url(#rock2)" stroke="#2a201a" stroke-width="2"/>
      <path d="M-9 42 l10-4 l12 5 l-2 7 l-16 2 z" fill="#b18a64" opacity=".28"/>

      <!-- mineral inclusions -->
      <path d="M-39 68 C-30 61 -19 61 -12 66 C-16 74 -25 80 -36 79 Z"
            fill="url(#mineral)" stroke="#0f544f" stroke-width="1.3" filter="url(#softGlow)"/>
      <ellipse cx="34" cy="86" rx="6.5" ry="4.3" fill="url(#mineral)" transform="rotate(-18 34 86)"/>
      <ellipse cx="-14" cy="109" rx="4" ry="3" fill="url(#mineral)"/>

      <!-- cracked mineral texture -->
      <g fill="none" stroke="#2f241e" stroke-width="1.5" stroke-linecap="round" opacity=".75">
        <path d="M-16 63 l9 9 l-7 10 l12 10"/>
        <path d="M16 58 l-5 12 l9 7 l-5 14"/>
        <path d="M-35 86 l12 4 l5 12"/>
        <path d="M30 67 l-9 9 l7 8"/>
        <path d="M2 99 l8 10 l-4 10"/>
      </g>

      <!-- carved Eridian tool, family-crest and star-map inspired marks -->
      <g fill="none" stroke="#d8b691" stroke-width="1.35" stroke-linecap="round" stroke-linejoin="round" opacity=".58">
        <path d="M-31 91 h16 m-13 -4 v8 m5 -8 v8"/>
        <path d="M12 99 l8 6 l8 -6 M16 103 v7 M24 103 v7"/>
        <path d="M-4 75 l5 -5 l5 5 l-5 5 z"/>
        <path d="M4 81 l10 5 l7 -3"/>
      </g>

      <path d="M-31 56 Q-11 43 10 44" fill="none" stroke="#e8c6a2" stroke-opacity=".18" stroke-width="3" stroke-linecap="round"/>

      <circle cx="-25" cy="70" r="1.8" fill="#9ff5e6" opacity=".55">
        <animate attributeName="opacity" values=".25;.9;.25" dur="2.6s" repeatCount="indefinite"/>
      </circle>
    </g>
  </g>
</g>
</svg>