<svg xmlns="http://www.w3.org/2000/svg" viewBox="0 0 1200 700" role="img" aria-labelledby="title desc">
<title id="title">Aravindh-dev12 — mathematical GitHub state</title>
<desc id="desc">A live mathematical portrait generated from GitHub contributions. Daily contribution counts form a logarithmic height field, while profile statistics seed a Lorenz attractor.</desc>
<style>
  :root { --fg:#c9d1d9; --muted:#8b949e; --faint:#30363d; --accent:#58a6ff; --accent2:#bc8cff; --hot:#3fb950; --panel:#0d1117; }
  .bg { fill:var(--panel); } .fg { fill:var(--fg); } .muted { fill:var(--muted); }
  .label { font:600 14px ui-monospace,SFMono-Regular,Menlo,Consolas,monospace; letter-spacing:.08em; }
  .small { font:12px ui-monospace,SFMono-Regular,Menlo,Consolas,monospace; }
  .metric { font:700 25px ui-monospace,SFMono-Regular,Menlo,Consolas,monospace; fill:var(--fg); }
  .eq { font:15px "Times New Roman",serif; fill:var(--fg); }
  .mesh { fill:none; stroke:var(--accent); stroke-width:1; vector-effect:non-scaling-stroke; }
  .mesh-day { stroke-width:1.4; opacity:.52; stroke-dasharray:7 7; animation:flow 8s linear infinite; }
  .sample { fill:var(--hot); animation:pulse 3.4s ease-in-out infinite; }
  .lorenz { fill:none; stroke:var(--accent2); stroke-width:1.25; opacity:.82; stroke-dasharray:5 5; animation:flow 18s linear infinite; }
  .axis,.divider { stroke:var(--faint); stroke-width:1; }
  .formula-box { fill:none; stroke:var(--faint); rx:12; }
  @keyframes flow { to { stroke-dashoffset:-84; } }
  @keyframes pulse { 0%,100%{opacity:.35} 50%{opacity:1} }
  @media (prefers-color-scheme: light) {
    :root { --fg:#24292f; --muted:#57606a; --faint:#d0d7de; --accent:#0969da; --accent2:#8250df; --hot:#1a7f37; --panel:#ffffff; }
  }
</style>
<rect class="bg" width="1200" height="700" rx="18"/>
<text x="48" y="48" class="fg label">ARAVINDHAN / MATHEMATICAL STATE</text>
<text x="48" y="76" class="muted small">profile(t) = data × structure × iteration</text>
<line x1="48" y1="96" x2="1152" y2="96" class="divider"/>

<text x="48" y="128" class="muted label">01 / CONTRIBUTION FIELD</text>
<text x="48" y="154" class="eq">c(w,d) ∈ ℕ,   h(w,d) = ln(1 + c(w,d))</text>
<text x="48" y="177" class="muted small">53 weeks × 7 days → discrete scalar field → isometric surface</text>
<text x="48" y="202" class="muted small">Σc = 7,546  ·  active = 202  ·  streak_max = 37  ·  repos = 81</text>

<line x1="78" y1="498" x2="895" y2="474" class="axis"/>
<line x1="78" y1="498" x2="110" y2="610" class="axis"/>
<g aria-label="Contribution surface"><path class="mesh mesh-day" d="M 78.0,355.8 L 93.5,377.6 L 109.0,377.2 L 124.5,376.8 L 140.0,376.4 L 155.5,376.0 L 171.0,375.6 L 186.5,375.2 L 202.0,374.8 L 217.5,374.4 L 233.0,374.0 L 248.5,373.6 L 264.0,373.2 L 279.5,355.2 L 295.0,354.8 L 310.5,372.0 L 326.0,371.6 L 341.5,360.1 L 357.0,339.7 L 372.5,348.2 L 388.0,352.4 L 403.5,369.6 L 419.0,369.2 L 434.5,368.8 L 450.0,346.2 L 465.5,368.0 L 481.0,367.6 L 496.5,367.2 L 512.0,355.7 L 527.5,366.4 L 543.0,366.0 L 558.5,365.6 L 574.0,365.2 L 589.5,364.8 L 605.0,364.4 L 620.5,364.0 L 636.0,363.6 L 651.5,317.0 L 667.0,312.6 L 682.5,344.8 L 698.0,362.0 L 713.5,344.0 L 729.0,326.0 L 744.5,360.8 L 760.0,360.4 L 775.5,314.7 L 791.0,308.8 L 806.5,348.1 L 822.0,280.7 L 837.5,292.9 L 853.0,257.3 L 868.5,272.0 L 884.0,311.0" style="animation-delay:-0.00s"/><path class="mesh mesh-day" d="M 82.8,396.0 L 98.3,395.6 L 113.8,364.1 L 129.3,361.5 L 144.8,394.4 L 160.3,394.0 L 175.8,393.6 L 191.3,371.0 L 206.8,392.8 L 222.3,392.4 L 237.8,392.0 L 253.3,362.9 L 268.8,391.2 L 284.3,368.6 L 299.8,390.4 L 315.3,390.0 L 330.8,389.6 L 346.3,389.2 L 361.8,388.8 L 377.3,388.4 L 392.8,352.8 L 408.3,361.8 L 423.8,387.2 L 439.3,358.1 L 454.8,386.4 L 470.3,368.4 L 485.8,356.9 L 501.3,367.6 L 516.8,384.8 L 532.3,362.2 L 547.8,361.8 L 563.3,354.9 L 578.8,383.2 L 594.3,357.0 L 609.8,382.4 L 625.3,370.9 L 640.8,381.6 L 656.3,339.0 L 671.8,327.5 L 687.3,336.0 L 702.8,362.4 L 718.3,379.6 L 733.8,340.8 L 749.3,333.5 L 764.8,378.4 L 780.3,329.3 L 795.8,366.5 L 811.3,309.2 L 826.8,304.8 L 842.3,314.1 L 857.8,311.6 L 873.3,310.6 L 888.8,283.1" style="animation-delay:-0.35s"/><path class="mesh mesh-day" d="M 87.6,396.4 L 103.1,413.6 L 118.6,387.4 L 134.1,401.7 L 149.6,383.7 L 165.1,412.0 L 180.6,400.5 L 196.1,411.2 L 211.6,410.8 L 227.1,410.4 L 242.6,410.0 L 258.1,387.4 L 273.6,409.2 L 289.1,375.5 L 304.6,408.4 L 320.1,408.0 L 335.6,407.6 L 351.1,407.2 L 366.6,406.8 L 382.1,359.3 L 397.6,406.0 L 413.1,405.6 L 428.6,387.6 L 444.1,404.8 L 459.6,404.4 L 475.1,404.0 L 490.6,392.5 L 506.1,385.6 L 521.6,402.8 L 537.1,380.2 L 552.6,368.7 L 568.1,370.5 L 583.6,366.0 L 599.1,400.8 L 614.6,389.3 L 630.1,382.4 L 645.6,373.8 L 661.1,399.2 L 676.6,370.1 L 692.1,376.2 L 707.6,375.8 L 723.1,397.6 L 738.6,348.5 L 754.1,363.5 L 769.6,396.4 L 785.1,351.6 L 800.6,384.5 L 816.1,308.1 L 831.6,337.5 L 847.1,344.2 L 862.6,319.7 L 878.1,331.3 L 893.6,294.1" style="animation-delay:-0.70s"/><path class="mesh mesh-day" d="M 92.4,406.2 L 107.9,400.5 L 123.4,397.9 L 138.9,430.8 L 154.4,397.1 L 169.9,412.4 L 185.4,429.6 L 200.9,429.2 L 216.4,428.8 L 231.9,428.4 L 247.4,428.0 L 262.9,416.5 L 278.4,427.2 L 293.9,426.8 L 309.4,426.4 L 324.9,426.0 L 340.4,425.6 L 355.9,407.6 L 371.4,407.2 L 386.9,424.4 L 402.4,424.0 L 417.9,423.6 L 433.4,423.2 L 448.9,422.8 L 464.4,391.3 L 479.9,422.0 L 495.4,410.5 L 510.9,392.5 L 526.4,389.7 L 541.9,380.6 L 557.4,420.0 L 572.9,390.9 L 588.4,419.2 L 603.9,401.2 L 619.4,418.4 L 634.9,418.0 L 650.4,417.6 L 665.9,399.6 L 681.4,416.8 L 696.9,381.2 L 712.4,382.7 L 727.9,377.2 L 743.4,415.2 L 758.9,403.7 L 774.4,388.6 L 789.9,360.7 L 805.4,413.6 L 820.9,325.3 L 836.4,319.3 L 851.9,311.9 L 867.4,337.5 L 882.9,324.2 L 898.4,316.0" style="animation-delay:-1.05s"/><path class="mesh mesh-day" d="M 97.2,421.3 L 112.7,420.9 L 128.2,449.2 L 143.7,397.3 L 159.2,448.4 L 174.7,448.0 L 190.2,406.6 L 205.7,447.2 L 221.2,446.8 L 236.7,446.4 L 252.2,446.0 L 267.7,434.5 L 283.2,445.2 L 298.7,444.8 L 314.2,444.4 L 329.7,444.0 L 345.2,443.6 L 360.7,443.2 L 376.2,442.8 L 391.7,442.4 L 407.2,442.0 L 422.7,441.6 L 438.2,423.6 L 453.7,440.8 L 469.2,422.8 L 484.7,417.8 L 500.2,410.9 L 515.7,395.9 L 531.2,397.8 L 546.7,401.6 L 562.2,404.7 L 577.7,411.8 L 593.2,408.5 L 608.7,411.0 L 624.2,414.2 L 639.7,418.4 L 655.2,435.6 L 670.7,413.0 L 686.2,423.7 L 701.7,399.2 L 717.2,411.8 L 732.7,407.8 L 748.2,433.2 L 763.7,407.0 L 779.2,392.6 L 794.7,391.0 L 810.2,405.8 L 825.7,343.4 L 841.2,350.6 L 856.7,352.8 L 872.2,349.2 L 887.7,384.3 L 903.2,411.6" style="animation-delay:-1.40s"/><path class="mesh mesh-day" d="M 102.0,468.0 L 117.5,467.6 L 133.0,423.9 L 148.5,466.8 L 164.0,466.4 L 179.5,440.2 L 195.0,465.6 L 210.5,465.2 L 226.0,464.8 L 241.5,464.4 L 257.0,452.9 L 272.5,463.6 L 288.0,463.2 L 303.5,462.8 L 319.0,462.4 L 334.5,450.9 L 350.0,404.7 L 365.5,461.2 L 381.0,460.8 L 396.5,449.3 L 412.0,460.0 L 427.5,459.6 L 443.0,459.2 L 458.5,427.7 L 474.0,436.2 L 489.5,435.8 L 505.0,431.8 L 520.5,428.5 L 536.0,434.6 L 551.5,434.2 L 567.0,420.8 L 582.5,433.4 L 598.0,433.0 L 613.5,421.5 L 629.0,425.7 L 644.5,425.3 L 660.0,436.0 L 675.5,396.3 L 691.0,409.5 L 706.5,426.6 L 722.0,452.0 L 737.5,451.6 L 753.0,451.2 L 768.5,439.7 L 784.0,432.8 L 799.5,400.5 L 815.0,432.0 L 830.5,391.0 L 846.0,380.6 L 861.5,349.2 L 877.0,368.8 L 892.5,376.9 L 908.0,447.2" style="animation-delay:-1.75s"/><path class="mesh mesh-day" d="M 106.8,457.3 L 122.3,485.6 L 137.8,474.1 L 153.3,484.8 L 168.8,484.4 L 184.3,484.0 L 199.8,457.8 L 215.3,483.2 L 230.8,482.8 L 246.3,482.4 L 261.8,464.4 L 277.3,481.6 L 292.8,481.2 L 308.3,480.8 L 323.8,480.4 L 339.3,440.2 L 354.8,479.6 L 370.3,479.2 L 385.8,478.8 L 401.3,478.4 L 416.8,478.0 L 432.3,477.6 L 447.8,477.2 L 463.3,476.8 L 478.8,476.4 L 494.3,476.0 L 509.8,458.0 L 525.3,464.1 L 540.8,452.6 L 556.3,452.2 L 571.8,456.4 L 587.3,462.5 L 602.8,444.5 L 618.3,455.2 L 633.8,472.4 L 649.3,454.4 L 664.8,433.2 L 680.3,409.3 L 695.8,459.7 L 711.3,420.9 L 726.8,470.0 L 742.3,438.5 L 757.8,469.2 L 773.3,468.8 L 788.8,401.6 L 804.3,445.8 L 819.8,409.0 L 835.3,394.2 L 850.8,406.6 L 866.3,372.6 L 881.8,401.6 L 897.3,465.6 L 912.8,465.2" style="animation-delay:-2.10s"/><path class="mesh" opacity="0.13" d="M 78.0,355.8 L 82.8,396.0 L 87.6,396.4 L 92.4,406.2 L 97.2,421.3 L 102.0,468.0 L 106.8,457.3"/><path class="mesh" opacity="0.15" d="M 93.5,377.6 L 98.3,395.6 L 103.1,413.6 L 107.9,400.5 L 112.7,420.9 L 117.5,467.6 L 122.3,485.6"/><path class="mesh" opacity="0.18" d="M 109.0,377.2 L 113.8,364.1 L 118.6,387.4 L 123.4,397.9 L 128.2,449.2 L 133.0,423.9 L 137.8,474.1"/><path class="mesh" opacity="0.21" d="M 124.5,376.8 L 129.3,361.5 L 134.1,401.7 L 138.9,430.8 L 143.7,397.3 L 148.5,466.8 L 153.3,484.8"/><path class="mesh" opacity="0.13" d="M 140.0,376.4 L 144.8,394.4 L 149.6,383.7 L 154.4,397.1 L 159.2,448.4 L 164.0,466.4 L 168.8,484.4"/><path class="mesh" opacity="0.15" d="M 155.5,376.0 L 160.3,394.0 L 165.1,412.0 L 169.9,412.4 L 174.7,448.0 L 179.5,440.2 L 184.3,484.0"/><path class="mesh" opacity="0.18" d="M 171.0,375.6 L 175.8,393.6 L 180.6,400.5 L 185.4,429.6 L 190.2,406.6 L 195.0,465.6 L 199.8,457.8"/><path class="mesh" opacity="0.21" d="M 186.5,375.2 L 191.3,371.0 L 196.1,411.2 L 200.9,429.2 L 205.7,447.2 L 210.5,465.2 L 215.3,483.2"/><path class="mesh" opacity="0.13" d="M 202.0,374.8 L 206.8,392.8 L 211.6,410.8 L 216.4,428.8 L 221.2,446.8 L 226.0,464.8 L 230.8,482.8"/><path class="mesh" opacity="0.15" d="M 217.5,374.4 L 222.3,392.4 L 227.1,410.4 L 231.9,428.4 L 236.7,446.4 L 241.5,464.4 L 246.3,482.4"/><path class="mesh" opacity="0.18" d="M 233.0,374.0 L 237.8,392.0 L 242.6,410.0 L 247.4,428.0 L 252.2,446.0 L 257.0,452.9 L 261.8,464.4"/><path class="mesh" opacity="0.21" d="M 248.5,373.6 L 253.3,362.9 L 258.1,387.4 L 262.9,416.5 L 267.7,434.5 L 272.5,463.6 L 277.3,481.6"/><path class="mesh" opacity="0.13" d="M 264.0,373.2 L 268.8,391.2 L 273.6,409.2 L 278.4,427.2 L 283.2,445.2 L 288.0,463.2 L 292.8,481.2"/><path class="mesh" opacity="0.15" d="M 279.5,355.2 L 284.3,368.6 L 289.1,375.5 L 293.9,426.8 L 298.7,444.8 L 303.5,462.8 L 308.3,480.8"/><path class="mesh" opacity="0.18" d="M 295.0,354.8 L 299.8,390.4 L 304.6,408.4 L 309.4,426.4 L 314.2,444.4 L 319.0,462.4 L 323.8,480.4"/><path class="mesh" opacity="0.21" d="M 310.5,372.0 L 315.3,390.0 L 320.1,408.0 L 324.9,426.0 L 329.7,444.0 L 334.5,450.9 L 339.3,440.2"/><path class="mesh" opacity="0.13" d="M 326.0,371.6 L 330.8,389.6 L 335.6,407.6 L 340.4,425.6 L 345.2,443.6 L 350.0,404.7 L 354.8,479.6"/><path class="mesh" opacity="0.15" d="M 341.5,360.1 L 346.3,389.2 L 351.1,407.2 L 355.9,407.6 L 360.7,443.2 L 365.5,461.2 L 370.3,479.2"/><path class="mesh" opacity="0.18" d="M 357.0,339.7 L 361.8,388.8 L 366.6,406.8 L 371.4,407.2 L 376.2,442.8 L 381.0,460.8 L 385.8,478.8"/><path class="mesh" opacity="0.21" d="M 372.5,348.2 L 377.3,388.4 L 382.1,359.3 L 386.9,424.4 L 391.7,442.4 L 396.5,449.3 L 401.3,478.4"/><path class="mesh" opacity="0.13" d="M 388.0,352.4 L 392.8,352.8 L 397.6,406.0 L 402.4,424.0 L 407.2,442.0 L 412.0,460.0 L 416.8,478.0"/><path class="mesh" opacity="0.15" d="M 403.5,369.6 L 408.3,361.8 L 413.1,405.6 L 417.9,423.6 L 422.7,441.6 L 427.5,459.6 L 432.3,477.6"/><path class="mesh" opacity="0.18" d="M 419.0,369.2 L 423.8,387.2 L 428.6,387.6 L 433.4,423.2 L 438.2,423.6 L 443.0,459.2 L 447.8,477.2"/><path class="mesh" opacity="0.21" d="M 434.5,368.8 L 439.3,358.1 L 444.1,404.8 L 448.9,422.8 L 453.7,440.8 L 458.5,427.7 L 463.3,476.8"/><path class="mesh" opacity="0.13" d="M 450.0,346.2 L 454.8,386.4 L 459.6,404.4 L 464.4,391.3 L 469.2,422.8 L 474.0,436.2 L 478.8,476.4"/><path class="mesh" opacity="0.15" d="M 465.5,368.0 L 470.3,368.4 L 475.1,404.0 L 479.9,422.0 L 484.7,417.8 L 489.5,435.8 L 494.3,476.0"/><path class="mesh" opacity="0.18" d="M 481.0,367.6 L 485.8,356.9 L 490.6,392.5 L 495.4,410.5 L 500.2,410.9 L 505.0,431.8 L 509.8,458.0"/><path class="mesh" opacity="0.21" d="M 496.5,367.2 L 501.3,367.6 L 506.1,385.6 L 510.9,392.5 L 515.7,395.9 L 520.5,428.5 L 525.3,464.1"/><path class="mesh" opacity="0.13" d="M 512.0,355.7 L 516.8,384.8 L 521.6,402.8 L 526.4,389.7 L 531.2,397.8 L 536.0,434.6 L 540.8,452.6"/><path class="mesh" opacity="0.15" d="M 527.5,366.4 L 532.3,362.2 L 537.1,380.2 L 541.9,380.6 L 546.7,401.6 L 551.5,434.2 L 556.3,452.2"/><path class="mesh" opacity="0.18" d="M 543.0,366.0 L 547.8,361.8 L 552.6,368.7 L 557.4,420.0 L 562.2,404.7 L 567.0,420.8 L 571.8,456.4"/><path class="mesh" opacity="0.21" d="M 558.5,365.6 L 563.3,354.9 L 568.1,370.5 L 572.9,390.9 L 577.7,411.8 L 582.5,433.4 L 587.3,462.5"/><path class="mesh" opacity="0.13" d="M 574.0,365.2 L 578.8,383.2 L 583.6,366.0 L 588.4,419.2 L 593.2,408.5 L 598.0,433.0 L 602.8,444.5"/><path class="mesh" opacity="0.15" d="M 589.5,364.8 L 594.3,357.0 L 599.1,400.8 L 603.9,401.2 L 608.7,411.0 L 613.5,421.5 L 618.3,455.2"/><path class="mesh" opacity="0.18" d="M 605.0,364.4 L 609.8,382.4 L 614.6,389.3 L 619.4,418.4 L 624.2,414.2 L 629.0,425.7 L 633.8,472.4"/><path class="mesh" opacity="0.21" d="M 620.5,364.0 L 625.3,370.9 L 630.1,382.4 L 634.9,418.0 L 639.7,418.4 L 644.5,425.3 L 649.3,454.4"/><path class="mesh" opacity="0.13" d="M 636.0,363.6 L 640.8,381.6 L 645.6,373.8 L 650.4,417.6 L 655.2,435.6 L 660.0,436.0 L 664.8,433.2"/><path class="mesh" opacity="0.15" d="M 651.5,317.0 L 656.3,339.0 L 661.1,399.2 L 665.9,399.6 L 670.7,413.0 L 675.5,396.3 L 680.3,409.3"/><path class="mesh" opacity="0.18" d="M 667.0,312.6 L 671.8,327.5 L 676.6,370.1 L 681.4,416.8 L 686.2,423.7 L 691.0,409.5 L 695.8,459.7"/><path class="mesh" opacity="0.21" d="M 682.5,344.8 L 687.3,336.0 L 692.1,376.2 L 696.9,381.2 L 701.7,399.2 L 706.5,426.6 L 711.3,420.9"/><path class="mesh" opacity="0.13" d="M 698.0,362.0 L 702.8,362.4 L 707.6,375.8 L 712.4,382.7 L 717.2,411.8 L 722.0,452.0 L 726.8,470.0"/><path class="mesh" opacity="0.15" d="M 713.5,344.0 L 718.3,379.6 L 723.1,397.6 L 727.9,377.2 L 732.7,407.8 L 737.5,451.6 L 742.3,438.5"/><path class="mesh" opacity="0.18" d="M 729.0,326.0 L 733.8,340.8 L 738.6,348.5 L 743.4,415.2 L 748.2,433.2 L 753.0,451.2 L 757.8,469.2"/><path class="mesh" opacity="0.21" d="M 744.5,360.8 L 749.3,333.5 L 754.1,363.5 L 758.9,403.7 L 763.7,407.0 L 768.5,439.7 L 773.3,468.8"/><path class="mesh" opacity="0.13" d="M 760.0,360.4 L 764.8,378.4 L 769.6,396.4 L 774.4,388.6 L 779.2,392.6 L 784.0,432.8 L 788.8,401.6"/><path class="mesh" opacity="0.15" d="M 775.5,314.7 L 780.3,329.3 L 785.1,351.6 L 789.9,360.7 L 794.7,391.0 L 799.5,400.5 L 804.3,445.8"/><path class="mesh" opacity="0.18" d="M 791.0,308.8 L 795.8,366.5 L 800.6,384.5 L 805.4,413.6 L 810.2,405.8 L 815.0,432.0 L 819.8,409.0"/><path class="mesh" opacity="0.21" d="M 806.5,348.1 L 811.3,309.2 L 816.1,308.1 L 820.9,325.3 L 825.7,343.4 L 830.5,391.0 L 835.3,394.2"/><path class="mesh" opacity="0.13" d="M 822.0,280.7 L 826.8,304.8 L 831.6,337.5 L 836.4,319.3 L 841.2,350.6 L 846.0,380.6 L 850.8,406.6"/><path class="mesh" opacity="0.15" d="M 837.5,292.9 L 842.3,314.1 L 847.1,344.2 L 851.9,311.9 L 856.7,352.8 L 861.5,349.2 L 866.3,372.6"/><path class="mesh" opacity="0.18" d="M 853.0,257.3 L 857.8,311.6 L 862.6,319.7 L 867.4,337.5 L 872.2,349.2 L 877.0,368.8 L 881.8,401.6"/><path class="mesh" opacity="0.21" d="M 868.5,272.0 L 873.3,310.6 L 878.1,331.3 L 882.9,324.2 L 887.7,384.3 L 892.5,376.9 L 897.3,465.6"/><path class="mesh" opacity="0.13" d="M 884.0,311.0 L 888.8,283.1 L 893.6,294.1 L 898.4,316.0 L 903.2,411.6 L 908.0,447.2 L 912.8,465.2"/><circle class="sample" cx="78.0" cy="355.8" r="2.05" opacity="0.38" style="animation-delay:0.00s"/><circle class="sample" cx="87.6" cy="396.4" r="2.00" opacity="0.38" style="animation-delay:-0.40s"/><circle class="sample" cx="92.4" cy="406.2" r="2.08" opacity="0.38" style="animation-delay:-0.60s"/><circle class="sample" cx="97.2" cy="421.3" r="2.12" opacity="0.39" style="animation-delay:-0.80s"/><circle class="sample" cx="106.8" cy="457.3" r="2.12" opacity="0.39" style="animation-delay:-1.20s"/><circle class="sample" cx="107.9" cy="400.5" r="2.15" opacity="0.39" style="animation-delay:-2.00s"/><circle class="sample" cx="112.7" cy="420.9" r="2.12" opacity="0.39" style="animation-delay:-2.20s"/><circle class="sample" cx="113.8" cy="364.1" r="2.15" opacity="0.39" style="animation-delay:-3.00s"/><circle class="sample" cx="118.6" cy="387.4" r="2.08" opacity="0.38" style="animation-delay:-3.20s"/><circle class="sample" cx="123.4" cy="397.9" r="2.18" opacity="0.39" style="animation-delay:-3.40s"/><circle class="sample" cx="133.0" cy="423.9" r="2.33" opacity="0.39" style="animation-delay:-3.80s"/><circle class="sample" cx="137.8" cy="474.1" r="1.94" opacity="0.38" style="animation-delay:-4.00s"/><circle class="sample" cx="129.3" cy="361.5" r="2.18" opacity="0.39" style="animation-delay:-4.40s"/><circle class="sample" cx="134.1" cy="401.7" r="1.94" opacity="0.38" style="animation-delay:-4.60s"/><circle class="sample" cx="143.7" cy="397.3" r="2.50" opacity="0.40" style="animation-delay:-5.00s"/><circle class="sample" cx="149.6" cy="383.7" r="2.12" opacity="0.39" style="animation-delay:-6.00s"/><circle class="sample" cx="154.4" cy="397.1" r="2.18" opacity="0.39" style="animation-delay:-6.20s"/><circle class="sample" cx="169.9" cy="412.4" r="2.00" opacity="0.38" style="animation-delay:-0.20s"/><circle class="sample" cx="179.5" cy="440.2" r="2.08" opacity="0.38" style="animation-delay:-0.60s"/><circle class="sample" cx="180.6" cy="400.5" r="1.94" opacity="0.38" style="animation-delay:-1.40s"/><circle class="sample" cx="190.2" cy="406.6" r="2.29" opacity="0.39" style="animation-delay:-1.80s"/><circle class="sample" cx="199.8" cy="457.8" r="2.08" opacity="0.38" style="animation-delay:-2.20s"/><circle class="sample" cx="191.3" cy="371.0" r="2.05" opacity="0.38" style="animation-delay:-2.60s"/><circle class="sample" cx="257.0" cy="452.9" r="1.94" opacity="0.38" style="animation-delay:-0.20s"/><circle class="sample" cx="261.8" cy="464.4" r="2.00" opacity="0.38" style="animation-delay:-0.40s"/><circle class="sample" cx="253.3" cy="362.9" r="2.12" opacity="0.39" style="animation-delay:-0.80s"/><circle class="sample" cx="258.1" cy="387.4" r="2.05" opacity="0.38" style="animation-delay:-1.00s"/><circle class="sample" cx="262.9" cy="416.5" r="1.94" opacity="0.38" style="animation-delay:-1.20s"/><circle class="sample" cx="267.7" cy="434.5" r="1.94" opacity="0.38" style="animation-delay:-1.40s"/><circle class="sample" cx="279.5" cy="355.2" r="2.00" opacity="0.38" style="animation-delay:-3.40s"/><circle class="sample" cx="284.3" cy="368.6" r="2.05" opacity="0.38" style="animation-delay:-3.60s"/><circle class="sample" cx="289.1" cy="375.5" r="2.18" opacity="0.39" style="animation-delay:-3.80s"/><circle class="sample" cx="295.0" cy="354.8" r="2.00" opacity="0.38" style="animation-delay:-4.80s"/><circle class="sample" cx="334.5" cy="450.9" r="1.94" opacity="0.38" style="animation-delay:-7.20s"/><circle class="sample" cx="339.3" cy="440.2" r="2.27" opacity="0.39" style="animation-delay:0.00s"/><circle class="sample" cx="350.0" cy="404.7" r="2.63" opacity="0.41" style="animation-delay:-1.20s"/><circle class="sample" cx="341.5" cy="360.1" r="1.94" opacity="0.38" style="animation-delay:-1.60s"/><circle class="sample" cx="355.9" cy="407.6" r="2.00" opacity="0.38" style="animation-delay:-2.20s"/><circle class="sample" cx="357.0" cy="339.7" r="2.15" opacity="0.39" style="animation-delay:-3.00s"/><circle class="sample" cx="371.4" cy="407.2" r="2.00" opacity="0.38" style="animation-delay:-3.60s"/><circle class="sample" cx="372.5" cy="348.2" r="2.05" opacity="0.38" style="animation-delay:-4.40s"/><circle class="sample" cx="382.1" cy="359.3" r="2.40" opacity="0.40" style="animation-delay:-4.80s"/><circle class="sample" cx="396.5" cy="449.3" r="1.94" opacity="0.38" style="animation-delay:-5.40s"/><circle class="sample" cx="388.0" cy="352.4" r="2.00" opacity="0.38" style="animation-delay:-5.80s"/><circle class="sample" cx="392.8" cy="352.8" r="2.20" opacity="0.39" style="animation-delay:-6.00s"/><circle class="sample" cx="408.3" cy="361.8" r="2.08" opacity="0.38" style="animation-delay:0.00s"/><circle class="sample" cx="428.6" cy="387.6" r="2.00" opacity="0.38" style="animation-delay:-1.60s"/><circle class="sample" cx="438.2" cy="423.6" r="2.00" opacity="0.38" style="animation-delay:-2.00s"/><circle class="sample" cx="439.3" cy="358.1" r="2.12" opacity="0.39" style="animation-delay:-2.80s"/><circle class="sample" cx="458.5" cy="427.7" r="2.15" opacity="0.39" style="animation-delay:-3.60s"/><circle class="sample" cx="450.0" cy="346.2" r="2.05" opacity="0.38" style="animation-delay:-4.00s"/><circle class="sample" cx="464.4" cy="391.3" r="2.15" opacity="0.39" style="animation-delay:-4.60s"/><circle class="sample" cx="469.2" cy="422.8" r="2.00" opacity="0.38" style="animation-delay:-4.80s"/><circle class="sample" cx="474.0" cy="436.2" r="2.05" opacity="0.38" style="animation-delay:-5.00s"/><circle class="sample" cx="470.3" cy="368.4" r="2.00" opacity="0.38" style="animation-delay:-5.60s"/><circle class="sample" cx="484.7" cy="417.8" r="2.05" opacity="0.38" style="animation-delay:-6.20s"/><circle class="sample" cx="489.5" cy="435.8" r="2.05" opacity="0.38" style="animation-delay:-6.40s"/><circle class="sample" cx="485.8" cy="356.9" r="2.12" opacity="0.39" style="animation-delay:-7.00s"/><circle class="sample" cx="490.6" cy="392.5" r="1.94" opacity="0.38" style="animation-delay:-7.20s"/><circle class="sample" cx="495.4" cy="410.5" r="1.94" opacity="0.38" style="animation-delay:0.00s"/><circle class="sample" cx="500.2" cy="410.9" r="2.12" opacity="0.39" style="animation-delay:-0.20s"/><circle class="sample" cx="505.0" cy="431.8" r="2.08" opacity="0.38" style="animation-delay:-0.40s"/><circle class="sample" cx="509.8" cy="458.0" r="2.00" opacity="0.38" style="animation-delay:-0.60s"/><circle class="sample" cx="501.3" cy="367.6" r="2.00" opacity="0.38" style="animation-delay:-1.00s"/><circle class="sample" cx="506.1" cy="385.6" r="2.00" opacity="0.38" style="animation-delay:-1.20s"/><circle class="sample" cx="510.9" cy="392.5" r="2.12" opacity="0.39" style="animation-delay:-1.40s"/><circle class="sample" cx="515.7" cy="395.9" r="2.33" opacity="0.39" style="animation-delay:-1.60s"/><circle class="sample" cx="520.5" cy="428.5" r="2.12" opacity="0.39" style="animation-delay:-1.80s"/><circle class="sample" cx="525.3" cy="464.1" r="1.94" opacity="0.38" style="animation-delay:-2.00s"/><circle class="sample" cx="512.0" cy="355.7" r="1.94" opacity="0.38" style="animation-delay:-2.20s"/><circle class="sample" cx="526.4" cy="389.7" r="2.15" opacity="0.39" style="animation-delay:-2.80s"/><circle class="sample" cx="531.2" cy="397.8" r="2.29" opacity="0.39" style="animation-delay:-3.00s"/><circle class="sample" cx="536.0" cy="434.6" r="2.05" opacity="0.38" style="animation-delay:-3.20s"/><circle class="sample" cx="540.8" cy="452.6" r="2.05" opacity="0.38" style="animation-delay:-3.40s"/><circle class="sample" cx="532.3" cy="362.2" r="2.05" opacity="0.38" style="animation-delay:-3.80s"/><circle class="sample" cx="537.1" cy="380.2" r="2.05" opacity="0.38" style="animation-delay:-4.00s"/><circle class="sample" cx="541.9" cy="380.6" r="2.27" opacity="0.39" style="animation-delay:-4.20s"/><circle class="sample" cx="546.7" cy="401.6" r="2.23" opacity="0.39" style="animation-delay:-4.40s"/><circle class="sample" cx="551.5" cy="434.2" r="2.05" opacity="0.38" style="animation-delay:-4.60s"/><circle class="sample" cx="556.3" cy="452.2" r="2.05" opacity="0.38" style="animation-delay:-4.80s"/><circle class="sample" cx="547.8" cy="361.8" r="2.05" opacity="0.38" style="animation-delay:-5.20s"/><circle class="sample" cx="552.6" cy="368.7" r="2.18" opacity="0.39" style="animation-delay:-5.40s"/><circle class="sample" cx="562.2" cy="404.7" r="2.18" opacity="0.39" style="animation-delay:-5.80s"/><circle class="sample" cx="567.0" cy="420.8" r="2.20" opacity="0.39" style="animation-delay:-6.00s"/><circle class="sample" cx="571.8" cy="456.4" r="2.00" opacity="0.38" style="animation-delay:-6.20s"/><circle class="sample" cx="563.3" cy="354.9" r="2.12" opacity="0.39" style="animation-delay:-6.60s"/><circle class="sample" cx="568.1" cy="370.5" r="2.15" opacity="0.39" style="animation-delay:-6.80s"/><circle class="sample" cx="572.9" cy="390.9" r="2.12" opacity="0.39" style="animation-delay:-7.00s"/><circle class="sample" cx="577.7" cy="411.8" r="2.08" opacity="0.38" style="animation-delay:-7.20s"/><circle class="sample" cx="582.5" cy="433.4" r="2.05" opacity="0.38" style="animation-delay:0.00s"/><circle class="sample" cx="587.3" cy="462.5" r="1.94" opacity="0.38" style="animation-delay:-0.20s"/><circle class="sample" cx="583.6" cy="366.0" r="2.20" opacity="0.39" style="animation-delay:-0.80s"/><circle class="sample" cx="593.2" cy="408.5" r="2.12" opacity="0.39" style="animation-delay:-1.20s"/><circle class="sample" cx="598.0" cy="433.0" r="2.05" opacity="0.38" style="animation-delay:-1.40s"/><circle class="sample" cx="602.8" cy="444.5" r="2.12" opacity="0.39" style="animation-delay:-1.60s"/><circle class="sample" cx="594.3" cy="357.0" r="2.08" opacity="0.38" style="animation-delay:-2.00s"/><circle class="sample" cx="603.9" cy="401.2" r="2.00" opacity="0.38" style="animation-delay:-2.40s"/><circle class="sample" cx="608.7" cy="411.0" r="2.08" opacity="0.38" style="animation-delay:-2.60s"/><circle class="sample" cx="613.5" cy="421.5" r="2.18" opacity="0.39" style="animation-delay:-2.80s"/><circle class="sample" cx="618.3" cy="455.2" r="2.00" opacity="0.38" style="animation-delay:-3.00s"/><circle class="sample" cx="614.6" cy="389.3" r="1.94" opacity="0.38" style="animation-delay:-3.60s"/><circle class="sample" cx="624.2" cy="414.2" r="2.05" opacity="0.38" style="animation-delay:-4.00s"/><circle class="sample" cx="629.0" cy="425.7" r="2.12" opacity="0.39" style="animation-delay:-4.20s"/><circle class="sample" cx="625.3" cy="370.9" r="1.94" opacity="0.38" style="animation-delay:-4.80s"/><circle class="sample" cx="630.1" cy="382.4" r="2.00" opacity="0.38" style="animation-delay:-5.00s"/><circle class="sample" cx="639.7" cy="418.4" r="2.00" opacity="0.38" style="animation-delay:-5.40s"/><circle class="sample" cx="644.5" cy="425.3" r="2.12" opacity="0.39" style="animation-delay:-5.60s"/><circle class="sample" cx="649.3" cy="454.4" r="2.00" opacity="0.38" style="animation-delay:-5.80s"/><circle class="sample" cx="645.6" cy="373.8" r="2.08" opacity="0.38" style="animation-delay:-6.40s"/><circle class="sample" cx="660.0" cy="436.0" r="2.00" opacity="0.38" style="animation-delay:-7.00s"/><circle class="sample" cx="664.8" cy="433.2" r="2.25" opacity="0.39" style="animation-delay:-7.20s"/><circle class="sample" cx="651.5" cy="317.0" r="2.39" opacity="0.40" style="animation-delay:0.00s"/><circle class="sample" cx="656.3" cy="339.0" r="2.31" opacity="0.39" style="animation-delay:-0.20s"/><circle class="sample" cx="665.9" cy="399.6" r="2.00" opacity="0.38" style="animation-delay:-0.60s"/><circle class="sample" cx="670.7" cy="413.0" r="2.05" opacity="0.38" style="animation-delay:-0.80s"/><circle class="sample" cx="675.5" cy="396.3" r="2.63" opacity="0.41" style="animation-delay:-1.00s"/><circle class="sample" cx="680.3" cy="409.3" r="2.77" opacity="0.43" style="animation-delay:-1.20s"/><circle class="sample" cx="667.0" cy="312.6" r="2.47" opacity="0.40" style="animation-delay:-1.40s"/><circle class="sample" cx="671.8" cy="327.5" r="2.54" opacity="0.41" style="animation-delay:-1.60s"/><circle class="sample" cx="676.6" cy="370.1" r="2.12" opacity="0.39" style="animation-delay:-1.80s"/><circle class="sample" cx="686.2" cy="423.7" r="1.94" opacity="0.38" style="animation-delay:-2.20s"/><circle class="sample" cx="691.0" cy="409.5" r="2.33" opacity="0.39" style="animation-delay:-2.40s"/><circle class="sample" cx="695.8" cy="459.7" r="1.94" opacity="0.38" style="animation-delay:-2.60s"/><circle class="sample" cx="682.5" cy="344.8" r="2.00" opacity="0.38" style="animation-delay:-2.80s"/><circle class="sample" cx="687.3" cy="336.0" r="2.35" opacity="0.40" style="animation-delay:-3.00s"/><circle class="sample" cx="692.1" cy="376.2" r="2.05" opacity="0.38" style="animation-delay:-3.20s"/><circle class="sample" cx="696.9" cy="381.2" r="2.20" opacity="0.39" style="animation-delay:-3.40s"/><circle class="sample" cx="701.7" cy="399.2" r="2.20" opacity="0.39" style="animation-delay:-3.60s"/><circle class="sample" cx="706.5" cy="426.6" r="2.08" opacity="0.38" style="animation-delay:-3.80s"/><circle class="sample" cx="711.3" cy="420.9" r="2.45" opacity="0.40" style="animation-delay:-4.00s"/><circle class="sample" cx="702.8" cy="362.4" r="2.00" opacity="0.38" style="animation-delay:-4.40s"/><circle class="sample" cx="707.6" cy="375.8" r="2.05" opacity="0.38" style="animation-delay:-4.60s"/><circle class="sample" cx="712.4" cy="382.7" r="2.18" opacity="0.39" style="animation-delay:-4.80s"/><circle class="sample" cx="717.2" cy="411.8" r="2.05" opacity="0.38" style="animation-delay:-5.00s"/><circle class="sample" cx="713.5" cy="344.0" r="2.00" opacity="0.38" style="animation-delay:-5.60s"/><circle class="sample" cx="727.9" cy="377.2" r="2.25" opacity="0.39" style="animation-delay:-6.20s"/><circle class="sample" cx="732.7" cy="407.8" r="2.08" opacity="0.38" style="animation-delay:-6.40s"/><circle class="sample" cx="742.3" cy="438.5" r="2.15" opacity="0.39" style="animation-delay:-6.80s"/><circle class="sample" cx="729.0" cy="326.0" r="2.20" opacity="0.39" style="animation-delay:-7.00s"/><circle class="sample" cx="733.8" cy="340.8" r="2.25" opacity="0.39" style="animation-delay:-7.20s"/><circle class="sample" cx="738.6" cy="348.5" r="2.44" opacity="0.40" style="animation-delay:0.00s"/><circle class="sample" cx="749.3" cy="333.5" r="2.37" opacity="0.40" style="animation-delay:-1.20s"/><circle class="sample" cx="754.1" cy="363.5" r="2.18" opacity="0.39" style="animation-delay:-1.40s"/><circle class="sample" cx="758.9" cy="403.7" r="1.94" opacity="0.38" style="animation-delay:-1.60s"/><circle class="sample" cx="763.7" cy="407.0" r="2.08" opacity="0.38" style="animation-delay:-1.80s"/><circle class="sample" cx="768.5" cy="439.7" r="1.94" opacity="0.38" style="animation-delay:-2.00s"/><circle class="sample" cx="774.4" cy="388.6" r="2.08" opacity="0.38" style="animation-delay:-3.00s"/><circle class="sample" cx="779.2" cy="392.6" r="2.27" opacity="0.39" style="animation-delay:-3.20s"/><circle class="sample" cx="784.0" cy="432.8" r="2.00" opacity="0.38" style="animation-delay:-3.40s"/><circle class="sample" cx="788.8" cy="401.6" r="2.94" opacity="0.45" style="animation-delay:-3.60s"/><circle class="sample" cx="775.5" cy="314.7" r="2.37" opacity="0.40" style="animation-delay:-3.80s"/><circle class="sample" cx="780.3" cy="329.3" r="2.44" opacity="0.40" style="animation-delay:-4.00s"/><circle class="sample" cx="785.1" cy="351.6" r="2.35" opacity="0.40" style="animation-delay:-4.20s"/><circle class="sample" cx="789.9" cy="360.7" r="2.54" opacity="0.41" style="animation-delay:-4.40s"/><circle class="sample" cx="794.7" cy="391.0" r="2.29" opacity="0.39" style="animation-delay:-4.60s"/><circle class="sample" cx="799.5" cy="400.5" r="2.45" opacity="0.40" style="animation-delay:-4.80s"/><circle class="sample" cx="804.3" cy="445.8" r="2.05" opacity="0.38" style="animation-delay:-5.00s"/><circle class="sample" cx="791.0" cy="308.8" r="2.48" opacity="0.40" style="animation-delay:-5.20s"/><circle class="sample" cx="795.8" cy="366.5" r="1.94" opacity="0.38" style="animation-delay:-5.40s"/><circle class="sample" cx="800.6" cy="384.5" r="1.94" opacity="0.38" style="animation-delay:-5.60s"/><circle class="sample" cx="810.2" cy="405.8" r="2.08" opacity="0.38" style="animation-delay:-6.00s"/><circle class="sample" cx="815.0" cy="432.0" r="2.00" opacity="0.38" style="animation-delay:-6.20s"/><circle class="sample" cx="819.8" cy="409.0" r="2.68" opacity="0.42" style="animation-delay:-6.40s"/><circle class="sample" cx="806.5" cy="348.1" r="1.94" opacity="0.38" style="animation-delay:-6.60s"/><circle class="sample" cx="811.3" cy="309.2" r="2.98" opacity="0.45" style="animation-delay:-6.80s"/><circle class="sample" cx="816.1" cy="308.1" r="3.96" opacity="0.62" style="animation-delay:-7.00s"/><circle class="sample" cx="820.9" cy="325.3" r="4.01" opacity="0.63" style="animation-delay:-7.20s"/><circle class="sample" cx="825.7" cy="343.4" r="4.00" opacity="0.62" style="animation-delay:0.00s"/><circle class="sample" cx="830.5" cy="391.0" r="2.66" opacity="0.42" style="animation-delay:-0.20s"/><circle class="sample" cx="835.3" cy="394.2" r="3.19" opacity="0.48" style="animation-delay:-0.40s"/><circle class="sample" cx="822.0" cy="280.7" r="3.43" opacity="0.51" style="animation-delay:-0.60s"/><circle class="sample" cx="826.8" cy="304.8" r="3.14" opacity="0.47" style="animation-delay:-0.80s"/><circle class="sample" cx="831.6" cy="337.5" r="2.64" opacity="0.42" style="animation-delay:-1.00s"/><circle class="sample" cx="836.4" cy="319.3" r="4.44" opacity="0.73" style="animation-delay:-1.20s"/><circle class="sample" cx="841.2" cy="350.6" r="3.54" opacity="0.53" style="animation-delay:-1.40s"/><circle class="sample" cx="846.0" cy="380.6" r="2.99" opacity="0.45" style="animation-delay:-1.60s"/><circle class="sample" cx="850.8" cy="406.6" r="2.72" opacity="0.42" style="animation-delay:-1.80s"/><circle class="sample" cx="837.5" cy="292.9" r="2.89" opacity="0.44" style="animation-delay:-2.00s"/><circle class="sample" cx="842.3" cy="314.1" r="2.78" opacity="0.43" style="animation-delay:-2.20s"/><circle class="sample" cx="847.1" cy="344.2" r="2.47" opacity="0.40" style="animation-delay:-2.40s"/><circle class="sample" cx="851.9" cy="311.9" r="5.08" opacity="0.92" style="animation-delay:-2.60s"/><circle class="sample" cx="856.7" cy="352.8" r="3.40" opacity="0.51" style="animation-delay:-2.80s"/><circle class="sample" cx="861.5" cy="349.2" r="4.96" opacity="0.88" style="animation-delay:-3.00s"/><circle class="sample" cx="866.3" cy="372.6" r="4.46" opacity="0.74" style="animation-delay:-3.20s"/><circle class="sample" cx="853.0" cy="257.3" r="5.10" opacity="0.93" style="animation-delay:-3.40s"/><circle class="sample" cx="857.8" cy="311.6" r="2.85" opacity="0.44" style="animation-delay:-3.60s"/><circle class="sample" cx="862.6" cy="319.7" r="3.24" opacity="0.49" style="animation-delay:-3.80s"/><circle class="sample" cx="867.4" cy="337.5" r="3.25" opacity="0.49" style="animation-delay:-4.00s"/><circle class="sample" cx="872.2" cy="349.2" r="3.57" opacity="0.54" style="animation-delay:-4.20s"/><circle class="sample" cx="877.0" cy="368.8" r="3.48" opacity="0.52" style="animation-delay:-4.40s"/><circle class="sample" cx="881.8" cy="401.6" r="2.85" opacity="0.44" style="animation-delay:-4.60s"/><circle class="sample" cx="868.5" cy="272.0" r="3.85" opacity="0.59" style="animation-delay:-4.80s"/><circle class="sample" cx="873.3" cy="310.6" r="2.87" opacity="0.44" style="animation-delay:-5.00s"/><circle class="sample" cx="878.1" cy="331.3" r="2.78" opacity="0.43" style="animation-delay:-5.20s"/><circle class="sample" cx="882.9" cy="324.2" r="3.97" opacity="0.62" style="animation-delay:-5.40s"/><circle class="sample" cx="887.7" cy="384.3" r="2.37" opacity="0.40" style="animation-delay:-5.60s"/><circle class="sample" cx="892.5" cy="376.9" r="3.09" opacity="0.46" style="animation-delay:-5.80s"/><circle class="sample" cx="884.0" cy="311.0" r="2.39" opacity="0.40" style="animation-delay:-6.20s"/><circle class="sample" cx="888.8" cy="283.1" r="4.33" opacity="0.70" style="animation-delay:-6.40s"/><circle class="sample" cx="893.6" cy="294.1" r="4.94" opacity="0.88" style="animation-delay:-6.60s"/><circle class="sample" cx="898.4" cy="316.0" r="4.58" opacity="0.77" style="animation-delay:-6.80s"/><circle class="sample" cx="903.2" cy="411.6" r="2.00" opacity="0.38" style="animation-delay:-7.00s"/></g>
<text x="48" y="616" class="muted small">w → time</text>
<text x="104" y="642" class="muted small">d → weekday</text>
<text x="48" y="674" class="muted small">height = log(1 + daily contributions)</text>

<line x1="918" y1="118" x2="918" y2="640" class="divider"/>
<text x="950" y="128" class="muted label">02 / CHAOTIC SIGNATURE</text>
<text x="950" y="153" class="eq">ẋ=σ(y−x)</text>
<text x="950" y="174" class="eq">ẏ=x(ρ−z)−y</text>
<text x="950" y="195" class="eq">ż=xy−βz</text>
<path class="lorenz" d="M 1005.1,310.3 L 1004.0,310.2 L 1003.0,310.1 L 1002.2,310.0 L 1001.5,310.0 L 1000.9,309.9 L 1000.4,309.8 L 1000.0,309.7 L 999.7,309.5 L 999.5,309.4 L 999.3,309.2 L 999.2,309.0 L 999.2,308.8 L 999.3,308.5 L 999.4,308.3 L 999.6,307.9 L 999.8,307.6 L 1000.0,307.2 L 1000.3,306.8 L 1000.6,306.4 L 1001.0,305.9 L 1001.4,305.4 L 1001.8,304.9 L 1002.2,304.3 L 1002.6,303.8 L 1003.0,303.2 L 1003.4,302.6 L 1003.9,302.0 L 1004.3,301.4 L 1004.7,300.7 L 1005.2,300.1 L 1005.6,299.4 L 1006.0,298.8 L 1006.4,298.1 L 1006.7,297.4 L 1007.1,296.8 L 1007.4,296.1 L 1007.8,295.4 L 1008.1,294.8 L 1008.3,294.1 L 1008.6,293.5 L 1008.8,292.8 L 1009.0,292.2 L 1009.2,291.6 L 1009.4,291.0 L 1009.5,290.4 L 1009.6,289.8 L 1009.7,289.2 L 1009.7,288.7 L 1009.7,288.2 L 1009.7,287.7 L 1009.7,287.2 L 1009.6,286.7 L 1009.5,286.2 L 1009.4,285.8 L 1009.3,285.4 L 1009.1,285.0 L 1008.9,284.7 L 1008.7,284.3 L 1008.5,284.0 L 1008.2,283.8 L 1007.9,283.5 L 1007.6,283.3 L 1007.3,283.1 L 1006.9,283.0 L 1006.5,282.9 L 1006.1,282.8 L 1005.7,282.8 L 1005.2,282.8 L 1004.7,282.8 L 1004.2,282.9 L 1003.7,283.0 L 1003.2,283.2 L 1002.6,283.4 L 1002.0,283.6 L 1001.4,283.9 L 1000.8,284.3 L 1000.2,284.7 L 999.6,285.1 L 999.0,285.6 L 998.3,286.1 L 997.7,286.6 L 997.0,287.3 L 996.4,287.9 L 995.7,288.6 L 995.1,289.3 L 994.4,290.1 L 993.8,290.9 L 993.2,291.8 L 992.6,292.6 L 992.0,293.5 L 991.4,294.4 L 990.9,295.4 L 990.4,296.3 L 989.9,297.3 L 989.5,298.3 L 989.0,299.2 L 988.7,300.2 L 988.4,301.1 L 988.1,302.1 L 987.9,303.0 L 987.7,303.8 L 987.6,304.7 L 987.5,305.4 L 987.5,306.2 L 987.6,306.9 L 987.7,307.5 L 987.8,308.1 L 988.1,308.6 L 988.4,309.0 L 988.7,309.4 L 989.1,309.7 L 989.5,309.9 L 990.0,310.1 L 990.6,310.1 L 991.2,310.1 L 991.8,310.1 L 992.5,309.9 L 993.2,309.7 L 993.9,309.5 L 994.7,309.1 L 995.5,308.8 L 996.3,308.3 L 997.1,307.8 L 997.9,307.3 L 998.7,306.7 L 999.5,306.1 L 1000.4,305.5 L 1001.2,304.8 L 1002.0,304.1 L 1002.8,303.3 L 1003.5,302.6 L 1004.3,301.8 L 1005.0,301.0 L 1005.7,300.2 L 1006.4,299.4 L 1007.0,298.6 L 1007.6,297.8 L 1008.2,297.0 L 1008.7,296.2 L 1009.3,295.4 L 1009.7,294.6 L 1010.2,293.8 L 1010.6,293.0 L 1011.0,292.2 L 1011.3,291.4 L 1011.6,290.7 L 1011.9,289.9 L 1012.1,289.2 L 1012.3,288.5 L 1012.5,287.7 L 1012.6,287.1 L 1012.7,286.4 L 1012.8,285.7 L 1012.8,285.1 L 1012.8,284.5 L 1012.7,283.9 L 1012.7,283.3 L 1012.6,282.8 L 1012.4,282.3 L 1012.2,281.8 L 1012.0,281.4 L 1011.8,280.9 L 1011.5,280.5 L 1011.2,280.2 L 1010.9,279.8 L 1010.6,279.5 L 1010.2,279.3 L 1009.8,279.0 L 1009.3,278.8 L 1008.8,278.7 L 1008.3,278.6 L 1007.8,278.5 L 1007.2,278.5 L 1006.7,278.5 L 1006.0,278.6 L 1005.4,278.7 L 1004.7,278.9 L 1004.1,279.1 L 1003.4,279.4 L 1002.6,279.8 L 1001.9,280.2 L 1001.1,280.6 L 1000.3,281.1 L 999.5,281.7 L 998.7,282.4 L 997.9,283.0 L 997.0,283.8 L 996.2,284.6 L 995.3,285.5 L 994.5,286.4 L 993.7,287.4 L 992.8,288.5 L 992.0,289.6 L 991.2,290.7 L 990.4,291.9 L 989.6,293.1 L 988.9,294.4 L 988.2,295.6 L 987.5,296.9 L 986.9,298.2 L 986.3,299.6 L 985.8,300.9 L 985.4,302.2 L 985.0,303.5 L 984.6,304.7 L 984.4,305.9 L 984.2,307.1 L 984.1,308.2 L 984.0,309.2 L 984.1,310.1 L 984.2,311.0 L 984.4,311.8 L 984.7,312.5 L 985.1,313.1 L 985.6,313.6 L 986.1,314.0 L 986.7,314.2 L 987.4,314.4 L 988.2,314.5 L 989.0,314.4 L 989.8,314.3 L 990.8,314.1 L 991.7,313.8 L 992.7,313.4 L 993.8,312.9 L 994.8,312.3 L 995.9,311.7 L 997.0,311.0 L 998.1,310.3 L 999.2,309.5 L 1000.3,308.7 L 1001.4,307.8 L 1002.4,306.9 L 1003.5,305.9 L 1004.5,305.0 L 1005.5,304.0 L 1006.5,303.0 L 1007.4,302.0 L 1008.3,301.0 L 1009.2,300.0 L 1010.0,299.0 L 1010.8,298.0 L 1011.5,296.9 L 1012.2,295.9 L 1012.8,294.9 L 1013.4,293.9 L 1014.0,293.0 L 1014.5,292.0 L 1015.0,291.0 L 1015.4,290.1 L 1015.8,289.1 L 1016.1,288.2 L 1016.4,287.3 L 1016.7,286.4 L 1016.9,285.6 L 1017.1,284.7 L 1017.2,283.9 L 1017.3,283.1 L 1017.4,282.3 L 1017.4,281.5 L 1017.4,280.8 L 1017.4,280.1 L 1017.3,279.4 L 1017.1,278.7 L 1017.0,278.1 L 1016.8,277.5 L 1016.6,276.9 L 1016.3,276.3 L 1016.0,275.8 L 1015.7,275.3 L 1015.3,274.8 L 1014.9,274.4 L 1014.5,274.0 L 1014.1,273.7 L 1013.6,273.4 L 1013.0,273.1 L 1012.5,272.9 L 1011.9,272.7 L 1011.3,272.5 L 1010.6,272.5 L 1009.9,272.4 L 1009.2,272.5 L 1008.4,272.5 L 1007.6,272.7 L 1006.8,272.9 L 1006.0,273.1 L 1005.1,273.5 L 1004.2,273.9 L 1003.2,274.3 L 1002.3,274.9 L 1001.3,275.5 L 1000.3,276.2 L 999.2,277.0 L 998.2,277.9 L 997.1,278.8 L 996.0,279.9 L 994.9,281.0 L 993.8,282.2 L 992.7,283.5 L 991.5,284.9 L 990.4,286.3 L 989.3,287.8 L 988.3,289.4 L 987.2,291.1 L 986.2,292.8 L 985.2,294.6 L 984.3,296.4 L 983.4,298.2 L 982.6,300.1 L 981.9,301.9 L 981.2,303.7 L 980.6,305.6 L 980.1,307.3 L 979.8,309.0 L 979.5,310.7 L 979.3,312.2 L 979.3,313.7 L 979.3,315.0 L 979.5,316.2 L 979.8,317.3 L 980.2,318.2 L 980.8,319.0 L 981.4,319.6 L 982.2,320.1 L 983.1,320.4 L 984.1,320.5 L 985.2,320.5 L 986.3,320.3 L 987.6,320.0 L 988.9,319.6 L 990.3,319.1 L 991.7,318.4 L 993.1,317.6 L 994.6,316.8 L 996.1,315.8 L 997.6,314.8 L 999.1,313.7 L 1000.6,312.6 L 1002.1,311.5 L 1003.6,310.3 L 1005.0,309.0 L 1006.4,307.8 L 1007.7,306.5 L 1009.0,305.3 L 1010.3,304.0 L 1011.5,302.7 L 1012.6,301.4 L 1013.7,300.2 L 1014.7,298.9 L 1015.7,297.7 L 1016.6,296.4 L 1017.5,295.2 L 1018.3,294.0 L 1019.0,292.8 L 1019.7,291.6 L 1020.4,290.4 L 1020.9,289.3 L 1021.5,288.2 L 1022.0,287.1 L 1022.4,286.0 L 1022.8,284.9 L 1023.1,283.8 L 1023.4,282.8 L 1023.7,281.8 L 1023.9,280.8 L 1024.0,279.8 L 1024.2,278.9 L 1024.2,277.9 L 1024.3,277.0 L 1024.3,276.1 L 1024.3,275.3 L 1024.2,274.4 L 1024.2,273.6 L 1024.0,272.8 L 1023.9,272.0 L 1023.7,271.2 L 1023.5,270.5 L 1023.2,269.8 L 1023.0,269.1 L 1022.7,268.4 L 1022.3,267.8 L 1021.9,267.2 L 1021.5,266.6 L 1021.1,266.1 L 1020.6,265.6 L 1020.1,265.1 L 1019.6,264.7 L 1019.0,264.3 L 1018.4,263.9 L 1017.8,263.6 L 1017.1,263.4 L 1016.4,263.1 L 1015.7,263.0 L 1014.9,262.8 L 1014.0,262.8 L 1013.2,262.8 L 1012.3,262.8 L 1011.3,263.0 L 1010.3,263.1 L 1009.3,263.4 L 1008.2,263.8 L 1007.1,264.2 L 1005.9,264.7 L 1004.7,265.3 L 1003.5,266.0 L 1002.2,266.9 L 1000.9,267.8 L 999.5,268.8 L 998.2,270.0 L 996.7,271.2 L 995.3,272.7 L 993.8,274.2 L 992.3,275.8 L 990.8,277.6 L 989.3,279.5 L 987.7,281.6 L 986.2,283.8 L 984.7,286.1 L 983.2,288.5 L 981.8,291.0 L 980.4,293.6 L 979.1,296.2 L 977.8,298.9 L 976.7,301.7 L 975.6,304.4 L 974.6,307.2 L 973.8,309.9 L 973.1,312.5 L 972.6,315.1 L 972.2,317.5 L 972.1,319.7 L 972.0,321.8 L 972.2,323.7 L 972.6,325.3 L 973.2,326.7 L 973.9,327.8 L 974.9,328.7 L 976.0,329.3 L 977.3,329.7 L 978.7,329.8 L 980.3,329.6 L 982.1,329.3 L 983.9,328.7 L 985.9,327.9 L 987.9,326.9 L 990.0,325.8 L 992.1,324.6 L 994.3,323.2 L 996.5,321.8 L 998.7,320.3 L 1000.8,318.7 L 1002.9,317.1 L 1005.0,315.4 L 1007.1,313.8 L 1009.0,312.1 L 1010.9,310.5 L 1012.8,308.8 L 1014.5,307.2 L 1016.2,305.5 L 1017.8,304.0 L 1019.3,302.4 L 1020.8,300.8 L 1022.1,299.3 L 1023.4,297.8 L 1024.6,296.4 L 1025.7,294.9 L 1026.7,293.5 L 1027.7,292.1 L 1028.6,290.8 L 1029.4,289.4 L 1030.2,288.1 L 1030.9,286.8 L 1031.6,285.6 L 1032.2,284.3 L 1032.7,283.1 L 1033.2,281.9 L 1033.7,280.8 L 1034.1,279.6 L 1034.5,278.5 L 1034.8,277.4 L 1035.1,276.3 L 1035.4,275.2 L 1035.6,274.1 L 1035.9,273.1 L 1036.0,272.1 L 1036.2,271.1 L 1036.4,270.1 L 1036.5,269.1 L 1036.6,268.1 L 1036.7,267.2 L 1036.8,266.3 L 1036.8,265.4 L 1036.9,264.5 L 1036.9,263.6 L 1036.9,262.7 L 1036.9,261.9 L 1036.9,261.0 L 1036.9,260.2 L 1036.9,259.4 L 1036.9,258.6 L 1036.8,257.8 L 1036.8,257.0 L 1036.7,256.3 L 1036.6,255.5 L 1036.5,254.8 L 1036.5,254.1 L 1036.4,253.4 L 1036.2,252.7 L 1036.1,252.0 L 1036.0,251.3 L 1035.9,250.7 L 1035.7,250.0 L 1035.6,249.4 L 1035.4,248.8 L 1035.2,248.2 L 1035.0,247.6 L 1034.8,247.0 L 1034.6,246.4 L 1034.4,245.9 L 1034.1,245.3 L 1033.9,244.8 L 1033.6,244.3 L 1033.3,243.8 L 1033.0,243.3 L 1032.7,242.8 L 1032.4,242.3 L 1032.0,241.9 L 1031.6,241.4 L 1031.2,241.0 L 1030.8,240.6 L 1030.3,240.2 L 1029.8,239.9 L 1029.3,239.5 L 1028.8,239.2 L 1028.2,238.9 L 1027.6,238.7 L 1027.0,238.4 L 1026.3,238.2 L 1025.6,238.0 L 1024.8,237.9 L 1024.0,237.8 L 1023.2,237.7 L 1022.3,237.7 L 1021.3,237.7 L 1020.3,237.8 L 1019.3,237.9 L 1018.2,238.1 L 1017.0,238.4 L 1015.7,238.7 L 1014.4,239.2 L 1013.0,239.7 L 1011.6,240.3 L 1010.0,241.1 L 1008.4,242.0 L 1006.7,243.0 L 1005.0,244.1 L 1003.1,245.5 L 1001.2,247.0 L 999.1,248.7 L 997.0,250.6 L 994.8,252.7 L 992.6,255.1 L 990.2,257.7 L 987.8,260.6 L 985.4,263.8 L 982.9,267.2 L 980.3,270.9 L 977.8,275.0 L 975.2,279.3 L 972.7,283.9 L 970.2,288.7 L 967.8,293.8 L 965.5,299.0 L 963.3,304.4 L 961.3,309.8 L 959.5,315.2 L 958.0,320.6 L 956.7,325.8 L 955.8,330.8 L 955.2,335.4 L 955.0,339.6 L 955.2,343.3 L 955.8,346.4 L 956.9,348.9 L 958.3,350.8 L 960.2,352.0 L 962.5,352.5 L 965.1,352.5 L 968.1,351.8 L 971.3,350.7 L 974.9,349.1 L 978.6,347.1 L 982.4,344.8 L 986.4,342.3 L 990.4,339.7 L 994.4,336.9 L 998.4,334.1 L 1002.4,331.3 L 1006.2,328.6 L 1010.0,325.9 L 1013.6,323.3 L 1017.1,320.8 L 1020.4,318.4 L 1023.6,316.1 L 1026.6,314.0 L 1029.5,311.9 L 1032.1,310.0 L 1034.7,308.2 L 1037.0,306.4 L 1039.2,304.8 L 1041.3,303.2 L 1043.2,301.8 L 1045.0,300.4 L 1046.6,299.0 L 1048.2,297.8 L 1049.6,296.6 L 1051.0,295.4 L 1052.2,294.4 L 1053.4,293.3 L 1054.5,292.3 L 1055.5,291.4 L 1056.4,290.5 L 1057.3,289.6 L 1058.2,288.8 L 1059.0,288.0 L 1059.7,287.2 L 1060.5,286.5 L 1061.2,285.8 L 1061.8,285.2 L 1062.5,284.6 L 1063.1,284.0 L 1063.8,283.4 L 1064.4,282.9 L 1065.0,282.5 L 1065.6,282.0 L 1066.2,281.6 L 1066.8,281.3 L 1067.4,281.0 L 1068.0,280.7 L 1068.6,280.4 L 1069.3,280.3 L 1069.9,280.1 L 1070.6,280.0 L 1071.2,279.9 L 1071.9,279.9 L 1072.6,279.9 L 1073.3,280.0 L 1074.0,280.2 L 1074.7,280.3 L 1075.5,280.6 L 1076.2,280.9 L 1077.0,281.2 L 1077.8,281.6 L 1078.5,282.1 L 1079.3,282.6 L 1080.2,283.2 L 1081.0,283.8 L 1081.8,284.5 L 1082.6,285.2 L 1083.4,286.0 L 1084.3,286.9 L 1085.1,287.8 L 1085.9,288.8 L 1086.7,289.8 L 1087.4,290.8 L 1088.2,291.9 L 1088.9,293.1 L 1089.7,294.2 L 1090.3,295.4 L 1091.0,296.6 L 1091.6,297.8 L 1092.1,299.1 L 1092.6,300.3 L 1093.1,301.5 L 1093.5,302.7 L 1093.8,303.9 L 1094.1,305.0 L 1094.3,306.1 L 1094.4,307.1 L 1094.5,308.1 L 1094.5,309.0 L 1094.4,309.9 L 1094.2,310.6 L 1093.9,311.3 L 1093.6,311.9 L 1093.2,312.4 L 1092.7,312.8 L 1092.2,313.1 L 1091.6,313.3 L 1090.9,313.4 L 1090.2,313.4 L 1089.4,313.3 L 1088.5,313.2 L 1087.7,312.9 L 1086.7,312.6 L 1085.8,312.2 L 1084.8,311.7 L 1083.8,311.1 L 1082.8,310.5 L 1081.8,309.9 L 1080.7,309.1 L 1079.7,308.4 L 1078.7,307.6 L 1077.7,306.7 L 1076.7,305.9 L 1075.7,305.0 L 1074.8,304.0 L 1073.8,303.1 L 1072.9,302.2 L 1072.1,301.2 L 1071.3,300.3 L 1070.5,299.3 L 1069.7,298.3 L 1069.0,297.3 L 1068.3,296.4 L 1067.7,295.4 L 1067.1,294.5 L 1066.5,293.5 L 1066.0,292.6 L 1065.6,291.7 L 1065.1,290.8 L 1064.8,289.9 L 1064.4,289.0 L 1064.1,288.1 L 1063.9,287.2 L 1063.6,286.4 L 1063.5,285.6 L 1063.3,284.8 L 1063.2,284.0 L 1063.2,283.3 L 1063.1,282.5 L 1063.1,281.8 L 1063.2,281.1 L 1063.3,280.4 L 1063.4,279.8 L 1063.5,279.2 L 1063.7,278.6 L 1063.9,278.0 L 1064.2,277.5 L 1064.5,277.0 L 1064.8,276.5 L 1065.1,276.1 L 1065.5,275.7 L 1065.9,275.3 L 1066.4,275.0 L 1066.9,274.7 L 1067.4,274.5 L 1067.9,274.3 L 1068.5,274.1 L 1069.1,274.0 L 1069.8,274.0 L 1070.4,274.0 L 1071.1,274.0 L 1071.9,274.1 L 1072.6,274.3 L 1073.4,274.5 L 1074.3,274.8 L 1075.1,275.1 L 1076.0,275.6 L 1076.9,276.0 L 1077.8,276.6 L 1078.8,277.2 L 1079.8,277.9 L 1080.8,278.7 L 1081.8,279.6 L 1082.8,280.5 L 1083.8,281.6 L 1084.9,282.6 L 1085.9,283.8 L 1087.0,285.1 L 1088.0,286.4 L 1089.0,287.8 L 1090.1,289.3 L 1091.1,290.8 L 1092.0,292.3 L 1092.9,294.0 L 1093.8,295.6 L 1094.7,297.3 L 1095.5,299.0 L 1096.2,300.7 L 1096.8,302.4 L 1097.4,304.1 L 1097.9,305.8 L 1098.3,307.4 L 1098.6,308.9 L 1098.8,310.4 L 1098.9,311.8 L 1098.9,313.1 L 1098.8,314.3 L 1098.6,315.4 L 1098.3,316.3 L 1097.8,317.1 L 1097.3,317.8 L 1096.6,318.3 L 1095.9,318.7 L 1095.0,318.9 L 1094.1,319.0 L 1093.0,319.0 L 1091.9,318.8 L 1090.8,318.5 L 1089.5,318.1 L 1088.2,317.5 L 1086.9,316.9 L 1085.5,316.1 L 1084.2,315.3 L 1082.8,314.4 L 1081.4,313.5 L 1080.0,312.5 L 1078.6,311.4 L 1077.2,310.3 L 1075.9,309.2 L 1074.5,308.0 L 1073.2,306.8 L 1072.0,305.7 L 1070.8,304.5 L 1069.6,303.2 L 1068.5,302.0 L 1067.4,300.8 L 1066.4,299.6 L 1065.5,298.4 L 1064.6,297.2 L 1063.7,296.0 L 1062.9,294.9 L 1062.2,293.7 L 1061.5,292.6 L 1060.9,291.4 L 1060.3,290.3 L 1059.7,289.2 L 1059.2,288.1 L 1058.8,287.1 L 1058.4,286.0 L 1058.1,285.0 L 1057.8,284.0 L 1057.5,283.0 L 1057.3,282.0 L 1057.1,281.1 L 1057.0,280.2 L 1056.9,279.2 L 1056.9,278.4 L 1056.9,277.5 L 1056.9,276.6 L 1056.9,275.8 L 1057.0,275.0 L 1057.2,274.2 L 1057.3,273.5 L 1057.5,272.8 L 1057.7,272.1 L 1058.0,271.4 L 1058.3,270.7 L 1058.6,270.1 L 1059.0,269.5 L 1059.3,269.0 L 1059.8,268.5 L 1060.2,268.0 L 1060.7,267.5 L 1061.2,267.1 L 1061.8,266.7 L 1062.4,266.4 L 1063.0,266.1 L 1063.7,265.8 L 1064.4,265.6 L 1065.1,265.5 L 1065.9,265.4 L 1066.7,265.4 L 1067.5,265.4 L 1068.4,265.5 L 1069.3,265.6 L 1070.3,265.8 L 1071.3,266.1 L 1072.4,266.5 L 1073.4,267.0 L 1074.6,267.5 L 1075.7,268.1 L 1076.9,268.9 L 1078.1,269.7 L 1079.4,270.6 L 1080.7,271.6 L 1082.0,272.8 L 1083.4,274.0 L 1084.8,275.4 L 1086.2,276.9 L 1087.6,278.5 L 1089.0,280.2 L 1090.4,282.1 L 1091.8,284.0 L 1093.2,286.1 L 1094.6,288.3 L 1095.9,290.5 L 1097.2,292.9 L 1098.4,295.3 L 1099.6,297.7 L 1100.7,300.2 L 1101.8,302.7 L 1102.7,305.2 L 1103.5,307.7 L 1104.2,310.1 L 1104.7,312.5 L 1105.1,314.7 L 1105.4,316.8 L 1105.5,318.8 L 1105.4,320.6 L 1105.2,322.2 L 1104.7,323.6 L 1104.2,324.8 L 1103.4,325.8 L 1102.5,326.5 L 1101.4,327.0 L 1100.2,327.3 L 1098.8,327.3 L 1097.3,327.2 L 1095.7,326.8 L 1093.9,326.2 L 1092.1,325.5 L 1090.3,324.6 L 1088.4,323.6 L 1086.4,322.4 L 1084.4,321.2 L 1082.4,319.8 L 1080.4,318.4 L 1078.4,317.0 L 1076.5,315.5 L 1074.6,314.0 L 1072.7,312.4 L 1070.9,310.9 L 1069.2,309.3 L 1067.5,307.7 L 1065.9,306.2 L 1064.3,304.7 L 1062.8,303.1 L 1061.4,301.6 L 1060.1,300.2 L 1058.9,298.7 L 1057.7,297.3 L 1056.6,295.9 L 1055.6,294.5 L 1054.6,293.1 L 1053.7,291.8 L 1052.9,290.4 L 1052.1,289.1 L 1051.4,287.9 L 1050.8,286.6 L 1050.2,285.4 L 1049.7,284.2 L 1049.2,283.0 L 1048.7,281.8 L 1048.3,280.7 L 1048.0,279.6 L 1047.7,278.4 L 1047.4,277.4 L 1047.2,276.3 L 1046.9,275.2 L 1046.8,274.2 L 1046.6,273.2 L 1046.5,272.2 L 1046.4,271.2 L 1046.3,270.2 L 1046.3,269.3 L 1046.3,268.4 L 1046.3,267.4 L 1046.3,266.6 L 1046.3,265.7 L 1046.4,264.8 L 1046.5,264.0 L 1046.6,263.1 L 1046.7,262.3 L 1046.8,261.5 L 1047.0,260.7 L 1047.2,260.0 L 1047.4,259.2 L 1047.6,258.5 L 1047.8,257.8 L 1048.0,257.1 L 1048.3,256.4 L 1048.6,255.7 L 1048.9,255.1 L 1049.2,254.5 L 1049.6,253.9 L 1049.9,253.3 L 1050.3,252.7 L 1050.8,252.2 L 1051.2,251.7 L 1051.7,251.2 L 1052.2,250.7 L 1052.7,250.2 L 1053.2,249.8 L 1053.8,249.4 L 1054.5,249.1 L 1055.1,248.8 L 1055.8,248.5 L 1056.5,248.2 L 1057.3,248.0 L 1058.1,247.8 L 1059.0,247.7 L 1059.9,247.6 L 1060.8,247.6 L 1061.8,247.7 L 1062.8,247.8 L 1063.9,247.9 L 1065.1,248.2 L 1066.3,248.5 L 1067.6,249.0 L 1068.9,249.5 L 1070.3,250.1 L 1071.8,250.8 L 1073.3,251.7 L 1074.9,252.7 L 1076.5,253.8 L 1078.3,255.1 L 1080.0,256.5 L 1081.9,258.2 L 1083.8,260.0 L 1085.8,262.0 L 1087.8,264.1 L 1089.8,266.5 L 1091.9,269.2 L 1094.1,272.0 L 1096.2,275.0 L 1098.3,278.3 L 1100.5,281.8 L 1102.6,285.5 L 1104.7,289.3 L 1106.7,293.4 L 1108.6,297.5 L 1110.4,301.8 L 1112.1,306.1 L 1113.6,310.4 L 1115.0,314.7 L 1116.1,318.9 L 1116.9,323.0 L 1117.5,326.8 L 1117.9,330.3 L 1117.9,333.5 L 1117.6,336.3 L 1117.0,338.7 L 1116.0,340.7 L 1114.8,342.1 L 1113.2,343.1 L 1111.3,343.6 L 1109.2,343.7 L 1106.8,343.3 L 1104.1,342.5 L 1101.3,341.4 L 1098.3,340.0 L 1095.2,338.3 L 1092.0,336.4 L 1088.8,334.3 L 1085.5,332.2 L 1082.2,329.9 L 1079.0,327.6 L 1075.8,325.3 L 1072.7,323.0 L 1069.6,320.7 L 1066.7,318.5 L 1063.9,316.3 L 1061.2,314.2 L 1058.6,312.2 L 1056.2,310.2 L 1053.9,308.3 L 1051.7,306.4 L 1049.6,304.6 L 1047.7,302.9 L 1045.9,301.3 L 1044.2,299.7 L 1042.6,298.2 L 1041.1,296.7 L 1039.7,295.2 L 1038.5,293.9 L 1037.3,292.5 L 1036.1,291.2 L 1035.1,290.0 L 1034.1,288.7 L 1033.2,287.6 L 1032.4,286.4 L 1031.6,285.3 L 1030.8,284.2 L 1030.1,283.2 L 1029.4,282.1 L 1028.8,281.1 L 1028.2,280.2 L 1027.6,279.2 L 1027.0,278.3 L 1026.4,277.5 L 1025.9,276.6 L 1025.3,275.8 L 1024.8,275.0 L 1024.3,274.2 L 1023.7,273.5 L 1023.2,272.8 L 1022.7,272.1 L 1022.1,271.5 L 1021.6,270.9 L 1021.0,270.3 L 1020.4,269.8 L 1019.8,269.3 L 1019.2,268.8 L 1018.6,268.4 L 1017.9,268.0 L 1017.2,267.6 L 1016.5,267.3 L 1015.8,267.1 L 1015.0,266.9 L 1014.2,266.7 L 1013.4,266.6 L 1012.5,266.6 L 1011.7,266.6 L 1010.7,266.7 L 1009.8,266.9 L 1008.8,267.1 L 1007.8,267.4 L 1006.7,267.8 L 1005.6,268.2 L 1004.5,268.8 L 1003.4,269.4 L 1002.2,270.1 L 1001.0,271.0 L 999.7,271.9 L 998.4,272.9 L 997.1,274.0 L 995.8,275.3 L 994.5,276.6 L 993.1,278.1 L 991.7,279.7 L 990.3,281.4 L 989.0,283.2 L 987.6,285.1 L 986.3,287.1 L 985.0,289.2 L 983.7,291.4 L 982.4,293.6 L 981.2,296.0 L 980.1,298.3 L 979.1,300.7 L 978.1,303.1 L 977.3,305.5 L 976.5,307.9 L 975.9,310.2 L 975.4,312.4 L 975.0,314.5 L 974.8,316.5 L 974.8,318.4 L 974.9,320.0 L 975.1,321.6 L 975.6,322.9 L 976.2,324.0 L 976.9,324.9 L 977.8,325.5 L 978.9,326.0 L 980.1,326.2 L 981.4,326.2 L 982.9,326.1 L 984.4,325.7 L 986.1,325.1 L 987.8,324.4 L 989.6,323.6 L 991.5,322.6 L 993.4,321.5 L 995.3,320.3 L 997.2,319.0 L 999.1,317.6 L 1001.0,316.2 L 1002.9,314.8 L 1004.7,313.3 L 1006.5,311.8 L 1008.2,310.3 L 1009.9,308.8 L 1011.5,307.3 L 1013.1,305.8 L 1014.6,304.3 L 1016.0,302.8 L 1017.3,301.3 L 1018.6,299.9 L 1019.8,298.4 L 1021.0,297.0 L 1022.0,295.7 L 1023.0,294.3 L 1023.9,292.9 L 1024.8,291.6 L 1025.6,290.3 L 1026.3,289.0 L 1027.0,287.8 L 1027.6,286.6 L 1028.1,285.3 L 1028.6,284.2 L 1029.1,283.0 L 1029.5,281.8 L 1029.9,280.7 L 1030.2,279.6 L 1030.5,278.5 L 1030.8,277.4 L 1031.0,276.4 L 1031.2,275.3 L 1031.3,274.3 L 1031.4,273.3 L 1031.5,272.3 L 1031.6,271.4 L 1031.6,270.4 L 1031.6,269.5 L 1031.6,268.6 L 1031.6,267.7 L 1031.5,266.8 L 1031.4,266.0 L 1031.3,265.1 L 1031.2,264.3 L 1031.0,263.5 L 1030.9,262.7 L 1030.7,261.9 L 1030.5,261.2 L 1030.2,260.4 L 1030.0,259.7 L 1029.7,259.0 L 1029.4,258.4 L 1029.1,257.7 L 1028.7,257.1 L 1028.3,256.5 L 1027.9,255.9 L 1027.5,255.3 L 1027.1,254.8 L 1026.6,254.2 L 1026.1,253.8 L 1025.6,253.3 L 1025.0,252.9 L 1024.4,252.5 L 1023.8,252.1 L 1023.1,251.8 L 1022.4,251.5 L 1021.7,251.2 L 1020.9,251.0 L 1020.1,250.8 L 1019.2,250.7 L 1018.3,250.7 L 1017.4,250.7 L 1016.4,250.7 L 1015.3,250.8 L 1014.2,251.0 L 1013.1,251.3 L 1011.8,251.7 L 1010.6,252.1 L 1009.3,252.7 L 1007.9,253.3 L 1006.4,254.1 L 1004.9,255.0 L 1003.4,256.0 L 1001.7,257.2 L 1000.1,258.5 L 998.3,259.9 L 996.5,261.6 L 994.7,263.4 L 992.8,265.4 L 990.8,267.5 L 988.9,269.9 L 986.9,272.5 L 984.8,275.3 L 982.8,278.2 L 980.8,281.4 L 978.8,284.7 L 976.8,288.3 L 974.9,291.9 L 973.1,295.7 L 971.3,299.7 L 969.7,303.6 L 968.2,307.6 L 966.9,311.6 L 965.8,315.5 L 964.8,319.4 L 964.1,323.0 L 963.7,326.4 L 963.5,329.5 L 963.6,332.4 L 964.0,334.8 L 964.7,336.9 L 965.7,338.5 L 967.0,339.8 L 968.6,340.6 L 970.4,340.9 L 972.5,340.9 L 974.8,340.5 L 977.3,339.7 L 979.9,338.6 L 982.7,337.3 L 985.6,335.7 L 988.6,333.9 L 991.7,332.0 L 994.7,330.0 L 997.8,327.9 L 1000.8,325.7 L 1003.7,323.6 L 1006.7,321.4 L 1009.5,319.2 L 1012.2,317.1 L 1014.8,315.0 L 1017.3,313.0 L 1019.7,311.0 L 1022.0,309.1 L 1024.2,307.2 L 1026.2,305.4 L 1028.2,303.7 L 1030.0,302.0 L 1031.7,300.4 L 1033.2,298.8 L 1034.7,297.2 L 1036.1,295.7 L 1037.4,294.3 L 1038.6,292.9 L 1039.7,291.5 L 1040.8,290.2 L 1041.7,288.9 L 1042.7,287.7 L 1043.5,286.5 L 1044.3,285.3 L 1045.0,284.1 L 1045.7,283.0 L 1046.4,281.9 L 1047.0,280.8 L 1047.6,279.8 L 1048.2,278.7 L 1048.7,277.7 L 1049.2,276.8 L 1049.7,275.8 L 1050.2,274.9 L 1050.7,274.0 L 1051.2,273.2 L 1051.7,272.3 L 1052.1,271.5 L 1052.6,270.7 L 1053.1,269.9 L 1053.6,269.2 L 1054.1,268.5 L 1054.6,267.8 L 1055.1,267.2 L 1055.6,266.5 L 1056.1,265.9 L 1056.7,265.4 L 1057.3,264.9 L 1057.9,264.4 L 1058.5,263.9 L 1059.1,263.5 L 1059.8,263.1 L 1060.5,262.8 L 1061.2,262.5 L 1062.0,262.2 L 1062.8,262.1 L 1063.6,261.9 L 1064.5,261.8 L 1065.4,261.8 L 1066.3,261.8 L 1067.3,261.9 L 1068.3,262.1 L 1069.4,262.4 L 1070.5,262.7 L 1071.6,263.1 L 1072.8,263.6 L 1074.0,264.2 L 1075.3,264.9 L 1076.6,265.7 L 1077.9,266.6 L 1079.3,267.6 L 1080.7,268.7 L 1082.2,270.0 L 1083.7,271.4 L 1085.2,272.9 L 1086.7,274.6 L 1088.3,276.4 L 1089.8,278.3 L 1091.4,280.4 L 1093.0,282.6 L 1094.5,284.9 L 1096.1,287.4 L 1097.6,289.9 L 1099.0,292.6 L 1100.4,295.3 L 1101.7,298.1 L 1103.0,300.9 L 1104.1,303.8 L 1105.1,306.6 L 1106.0,309.5 L 1106.8,312.2 L 1107.4,314.9 L 1107.8,317.4 L 1108.0,319.8 L 1108.1,322.0 L 1108.0,324.0 L 1107.6,325.8 L 1107.1,327.3 L 1106.4,328.5 L 1105.5,329.5 L 1104.3,330.2 L 1103.0,330.6 L 1101.6,330.8 L 1099.9,330.6 L 1098.2,330.3 L 1096.3,329.7 L 1094.3,328.9 L 1092.2,328.0 L 1090.0,326.8 L 1087.8,325.6 L 1085.6,324.2 L 1083.4,322.7 L 1081.1,321.1 L 1078.9,319.5 L 1076.7,317.9 L 1074.5,316.2 L 1072.4,314.5 L 1070.4,312.8 L 1068.4,311.1 L 1066.5,309.4 L 1064.6,307.7 L 1062.9,306.1 L 1061.2,304.4 L 1059.7,302.8 L 1058.2,301.3 L 1056.8,299.7 L 1055.5,298.2 L 1054.2,296.7 L 1053.1,295.3 L 1052.0,293.8 L 1051.0,292.4 L 1050.0,291.1 L 1049.2,289.7 L 1048.4,288.4 L 1047.6,287.1 L 1046.9,285.8 L 1046.3,284.6 L 1045.7,283.3 L 1045.2,282.1 L 1044.7,281.0 L 1044.3,279.8 L 1043.9,278.7 L 1043.5,277.5 L 1043.2,276.4 L 1042.9,275.3 L 1042.6,274.3 L 1042.4,273.2 L 1042.1,272.2 L 1041.9,271.2 L 1041.7,270.2 L 1041.6,269.2 L 1041.4,268.2 L 1041.3,267.3 L 1041.2,266.4 L 1041.1,265.4 L 1041.0,264.5 L 1040.9,263.7 L 1040.9,262.8 L 1040.8,261.9 L 1040.7,261.1 L 1040.7,260.2 L 1040.7,259.4 L 1040.6,258.6 L 1040.6,257.8 L 1040.6,257.0 L 1040.6,256.3 L 1040.6,255.5 L 1040.6,254.8 L 1040.6,254.1 L 1040.6,253.3 L 1040.6,252.6 L 1040.6,251.9 L 1040.6,251.2 L 1040.6,250.6 L 1040.7,249.9 L 1040.7,249.3 L 1040.7,248.6 L 1040.8,248.0 L 1040.8,247.4 L 1040.8,246.8 L 1040.9,246.2 L 1040.9,245.6 L 1041.0,245.0 L 1041.0,244.4 L 1041.1,243.9 L 1041.1,243.3 L 1041.2,242.8 L 1041.3,242.2 L 1041.4,241.7 L 1041.4,241.2 L 1041.5,240.7 L 1041.6,240.2 L 1041.7,239.7 L 1041.8,239.2 L 1041.9,238.7 L 1042.0,238.3 L 1042.2,237.8 L 1042.3,237.4 L 1042.4,236.9 L 1042.6,236.5 L 1042.7,236.1 L 1042.9,235.7 L 1043.1,235.3 L 1043.3,234.9 L 1043.4,234.5 L 1043.7,234.1 L 1043.9,233.7 L 1044.1,233.4 L 1044.4,233.0 L 1044.6,232.7 L 1044.9,232.3 L 1045.2,232.0 L 1045.5,231.7 L 1045.9,231.4 L 1046.2,231.1 L 1046.6,230.8 L 1047.0,230.5 L 1047.4,230.3 L 1047.9,230.0 L 1048.4,229.8 L 1048.9,229.6 L 1049.4,229.4 L 1050.0,229.3 L 1050.6,229.1 L 1051.3,229.0 L 1051.9,228.9 L 1052.7,228.8 L 1053.5,228.8 L 1054.3,228.8 L 1055.2,228.9 L 1056.1,228.9 L 1057.1,229.1 L 1058.2,229.3 L 1059.3,229.5 L 1060.5,229.8 L 1061.7,230.2 L 1063.1,230.7 L 1064.5,231.2 L 1066.0,231.9 L 1067.5,232.7 L 1069.2,233.6 L 1071.0,234.6 L 1072.8,235.8 L 1074.8,237.2 L 1076.8,238.8 L 1079.0,240.5 L 1081.2,242.5 L 1083.6,244.8 L 1086.0,247.3 L 1088.6,250.1 L 1091.2,253.2 L 1093.9,256.6 L 1096.7,260.4 L 1099.6,264.5 L 1102.5,269.0 L 1105.4,273.8 L 1108.3,279.0 L 1111.2,284.5 L 1114.0,290.3 L 1116.8,296.4 L 1119.4,302.7 L 1121.8,309.1 L 1124.0,315.6 L 1125.9,322.1 L 1127.5,328.3 L 1128.7,334.3 L 1129.5,339.9 L 1129.8,345.0 L 1129.7,349.5 L 1129.1,353.3 L 1127.9,356.3 L 1126.2,358.4 L 1124.1,359.7 L 1121.4,360.2 L 1118.3,359.9 L 1114.8,359.0 L 1110.9,357.3 L 1106.7,355.2 L 1102.4,352.6 L 1097.8,349.8 L 1093.2,346.7 L 1088.5,343.5 L 1083.8,340.2 L 1079.1,336.9 L 1074.5,333.7 L 1070.1,330.7 L 1065.8,327.7 L 1061.7,324.9 L 1057.8,322.3 L 1054.0,319.8 L 1050.5,317.5 L 1047.1,315.4 L 1044.0,313.4 L 1041.0,311.6 L 1038.3,309.9 L 1035.7,308.3 L 1033.3,306.9 L 1031.1,305.5 L 1029.0,304.3 L 1027.1,303.1 L 1025.3,302.1 L 1023.6,301.1 L 1022.1,300.1 L 1020.7,299.3 L 1019.4,298.5 L 1018.2,297.7 L 1017.1,297.0 L 1016.0,296.3 L 1015.1,295.7 L 1014.2,295.1 L 1013.3,294.6 L 1012.5,294.1 L 1011.8,293.6 L 1011.1,293.2 L 1010.5,292.8 L 1009.8,292.4 L 1009.3,292.0 L 1008.7,291.7 L 1008.2,291.4 L 1007.6,291.1 L 1007.1,290.9 L 1006.7,290.7 L 1006.2,290.5 L 1005.7,290.3 L 1005.3,290.2 L 1004.9,290.1 L 1004.4,290.0 L 1004.0,290.0 L 1003.6,290.0 L 1003.2,290.0 L 1002.8,290.0 L 1002.3,290.0 L 1001.9,290.1 L 1001.5,290.2 L 1001.1,290.3 L 1000.7,290.5 L 1000.3,290.7 L 999.9,290.9 L 999.5,291.1 L 999.1,291.4 L 998.7,291.6 L 998.4,291.9 L 998.0,292.3 L 997.6,292.6 L 997.2,292.9 L 996.9,293.3 L 996.5,293.7 L 996.2,294.1 L 995.9,294.5 L 995.6,294.9 L 995.3,295.4 L 995.0,295.8 L 994.7,296.3 L 994.5,296.7 L 994.3,297.2 L 994.0,297.6 L 993.9,298.1 L 993.7,298.5 L 993.5,298.9 L 993.4,299.3 L 993.3,299.8 L 993.2,300.2 L 993.2,300.5 L 993.2,300.9 L 993.2,301.2 L 993.2,301.5 L 993.3,301.8 L 993.4,302.1 L 993.5,302.3 L 993.6,302.6 L 993.8,302.7 L 994.0,302.9 L 994.2,303.0 L 994.4,303.1 L 994.7,303.1 L 994.9,303.2 L 995.2,303.2 L 995.5,303.1 L 995.9,303.1 L 996.2,302.9 L 996.6,302.8 L 996.9,302.7 L 997.3,302.5 L 997.7,302.3 L 998.1,302.0 L 998.5,301.8 L 998.9,301.5 L 999.3,301.2 L 999.7,300.8 L 1000.1,300.5 L 1000.5,300.1 L 1000.9,299.8 L 1001.2,299.4 L 1001.6,299.0 L 1002.0,298.6 L 1002.3,298.1 L 1002.7,297.7 L 1003.0,297.3 L 1003.3,296.8 L 1003.6,296.4 L 1003.9,295.9 L 1004.1,295.5 L 1004.4,295.1 L 1004.6,294.6 L 1004.8,294.2 L 1005.0,293.7 L 1005.2,293.3 L 1005.3,292.9 L 1005.4,292.5 L 1005.5,292.1 L 1005.6,291.7 L 1005.7,291.3 L 1005.7,290.9 L 1005.8,290.6 L 1005.8,290.2 L 1005.7,289.9 L 1005.7,289.6 L 1005.6,289.3 L 1005.5,289.0 L 1005.4,288.8 L 1005.3,288.6 L 1005.2,288.3 L 1005.0,288.1 L 1004.8,288.0 L 1004.6,287.8 L 1004.4,287.7 L 1004.2,287.6 L 1003.9,287.5 L 1003.6,287.5 L 1003.3,287.4 L 1003.0,287.5 L 1002.7,287.5 L 1002.4,287.5 L 1002.0,287.6 L 1001.7,287.7 L 1001.3,287.9 L 1000.9,288.1 L 1000.5,288.3 L 1000.1,288.5 L 999.7,288.8 L 999.3,289.1 L 998.8,289.4 L 998.4,289.7 L 998.0,290.1 L 997.6,290.5 L 997.1,290.9 L 996.7,291.4 L 996.3,291.9 L 995.9,292.4 L 995.5,292.9 L 995.1,293.4 L 994.7,294.0 L 994.3,294.5 L 993.9,295.1 L 993.6,295.7 L 993.3,296.3 L 993.0,296.9 L 992.7,297.5 L 992.4,298.1 L 992.2,298.7 L 992.0,299.3 L 991.8,299.9 L 991.7,300.4 L 991.6,301.0 L 991.5,301.5 L 991.4,302.0 L 991.4,302.4 L 991.5,302.9 L 991.5,303.3 L 991.6,303.7 L 991.7,304.0 L 991.9,304.3 L 992.1,304.6 L 992.3,304.8 L 992.6,305.0 L 992.9,305.1 L 993.2,305.2 L 993.6,305.2 L 993.9,305.2 L 994.4,305.2 L 994.8,305.1 L 995.2,305.0 L 995.7,304.8 L 996.2,304.6 L 996.7,304.4 L 997.2,304.1 L 997.7,303.8 L 998.2,303.5 L 998.7,303.1 L 999.2,302.8 L 999.7,302.3 L 1000.3,301.9 L 1000.8,301.4 L 1001.3,301.0"/>
<text x="950" y="392" class="muted small">σ = 10.320</text>
<text x="950" y="412" class="muted small">ρ = 28.150</text>
<text x="950" y="432" class="muted small">β = 2.688</text>

<rect x="942" y="456" width="210" height="184" class="formula-box"/>
<text x="960" y="484" class="muted label">STATE VECTOR</text>
<text x="960" y="520" class="metric">7,546</text>
<text x="960" y="539" class="muted small">Σ contributions / year</text>
<text x="960" y="573" class="fg label">202 active days</text>
<text x="960" y="595" class="fg label">37d max streak</text>
<text x="960" y="617" class="fg label">81 public repos</text>
<text x="960" y="636" class="muted small">H(lang)=2.70 bits</text>
<text x="950" y="668" class="muted small">Python · TypeScript · JavaScript · Jupyter Notebook</text>
</svg>
