<svg xmlns="http://www.w3.org/2000/svg" viewBox="0 0 1200 700" role="img" aria-labelledby="title desc">
<title id="title">Aravindh-dev12 — mathematical GitHub state</title>
<desc id="desc">A live mathematical portrait generated from GitHub contributions. Daily contribution counts form a logarithmic height field, while profile statistics seed a Lorenz attractor.</desc>
<style>
  :root { --fg:#c9d1d9; --muted:#8b949e; --faint:#30363d; --accent:#58a6ff; --accent2:#bc8cff; --hot:#3fb950; --panel:#0d1117; }
  .bg { fill:var(--panel); } .fg { fill:var(--fg); } .muted { fill:var(--muted); }
  .label { font:600 14px ui-monospace,SFMono-Regular,Menlo,Consolas,monospace; letter-spacing:.08em; }
  .small { font:12px ui-monospace,SFMono-Regular,Menlo,Consolas,monospace; }
  .metric { font:700 25px ui-monospace,SFMono-Regular,Menlo,Consolas,monospace; fill:var(--fg); }
  .eq { font:15px "Times New Roman",serif; fill:var(--fg); }
  .mesh { fill:none; stroke:var(--accent); stroke-width:1; vector-effect:non-scaling-stroke; }
  .mesh-day { stroke-width:1.4; opacity:.52; stroke-dasharray:7 7; animation:flow 8s linear infinite; }
  .sample { fill:var(--hot); animation:pulse 3.4s ease-in-out infinite; }
  .lorenz { fill:none; stroke:var(--accent2); stroke-width:1.25; opacity:.82; stroke-dasharray:5 5; animation:flow 18s linear infinite; }
  .axis,.divider { stroke:var(--faint); stroke-width:1; }
  .formula-box { fill:none; stroke:var(--faint); rx:12; }
  @keyframes flow { to { stroke-dashoffset:-84; } }
  @keyframes pulse { 0%,100%{opacity:.35} 50%{opacity:1} }
  @media (prefers-color-scheme: light) {
    :root { --fg:#24292f; --muted:#57606a; --faint:#d0d7de; --accent:#0969da; --accent2:#8250df; --hot:#1a7f37; --panel:#ffffff; }
  }
</style>
<rect class="bg" width="1200" height="700" rx="18"/>
<text x="48" y="48" class="fg label">ARAVINDHAN / MATHEMATICAL STATE</text>
<text x="48" y="76" class="muted small">profile(t) = data × structure × iteration</text>
<line x1="48" y1="96" x2="1152" y2="96" class="divider"/>

<text x="48" y="128" class="muted label">01 / CONTRIBUTION FIELD</text>
<text x="48" y="154" class="eq">c(w,d) ∈ ℕ,   h(w,d) = ln(1 + c(w,d))</text>
<text x="48" y="177" class="muted small">53 weeks × 7 days → discrete scalar field → isometric surface</text>
<text x="48" y="202" class="muted small">Σc = 10,104  ·  active = 213  ·  streak_max = 37  ·  repos = 92</text>

<line x1="78" y1="498" x2="895" y2="474" class="axis"/>
<line x1="78" y1="498" x2="110" y2="610" class="axis"/>
<g aria-label="Contribution surface"><path class="mesh mesh-day" d="M 78.0,378.0 L 93.5,377.6 L 109.0,377.2 L 124.5,376.8 L 140.0,376.4 L 155.5,376.0 L 171.0,375.6 L 186.5,375.2 L 202.0,374.8 L 217.5,356.8 L 233.0,356.4 L 248.5,373.6 L 264.0,373.2 L 279.5,361.7 L 295.0,341.3 L 310.5,349.8 L 326.0,354.0 L 341.5,371.2 L 357.0,370.8 L 372.5,370.4 L 388.0,347.8 L 403.5,369.6 L 419.0,369.2 L 434.5,368.8 L 450.0,357.3 L 465.5,368.0 L 481.0,367.6 L 496.5,367.2 L 512.0,366.8 L 527.5,366.4 L 543.0,366.0 L 558.5,365.6 L 574.0,365.2 L 589.5,318.6 L 605.0,314.2 L 620.5,346.4 L 636.0,363.6 L 651.5,345.6 L 667.0,327.6 L 682.5,362.4 L 698.0,362.0 L 713.5,316.3 L 729.0,310.4 L 744.5,349.7 L 760.0,282.3 L 775.5,294.5 L 791.0,258.9 L 806.5,273.6 L 822.0,312.6 L 837.5,268.4 L 853.0,301.6 L 868.5,301.2 L 884.0,322.0" style="animation-delay:-0.00s"/><path class="mesh mesh-day" d="M 82.8,396.0 L 98.3,395.6 L 113.8,395.2 L 129.3,372.6 L 144.8,394.4 L 160.3,394.0 L 175.8,393.6 L 191.3,364.5 L 206.8,392.8 L 222.3,370.2 L 237.8,392.0 L 253.3,391.6 L 268.8,391.2 L 284.3,390.8 L 299.8,390.4 L 315.3,390.0 L 330.8,354.4 L 346.3,363.4 L 361.8,388.8 L 377.3,359.7 L 392.8,388.0 L 408.3,370.0 L 423.8,358.5 L 439.3,369.2 L 454.8,386.4 L 470.3,363.8 L 485.8,363.4 L 501.3,356.5 L 516.8,384.8 L 532.3,358.6 L 547.8,384.0 L 563.3,372.5 L 578.8,383.2 L 594.3,340.6 L 609.8,329.1 L 625.3,337.6 L 640.8,364.0 L 656.3,381.2 L 671.8,342.4 L 687.3,335.1 L 702.8,380.0 L 718.3,330.9 L 733.8,368.1 L 749.3,310.8 L 764.8,303.9 L 780.3,315.7 L 795.8,313.2 L 811.3,312.2 L 826.8,284.6 L 842.3,304.6 L 857.8,304.0 L 873.3,318.3 L 888.8,301.5" style="animation-delay:-0.35s"/><path class="mesh mesh-day" d="M 87.6,385.3 L 103.1,413.6 L 118.6,402.1 L 134.1,412.8 L 149.6,412.4 L 165.1,412.0 L 180.6,411.6 L 196.1,389.0 L 211.6,410.8 L 227.1,377.1 L 242.6,410.0 L 258.1,409.6 L 273.6,409.2 L 289.1,408.8 L 304.6,408.4 L 320.1,360.9 L 335.6,407.6 L 351.1,407.2 L 366.6,389.2 L 382.1,406.4 L 397.6,406.0 L 413.1,405.6 L 428.6,394.1 L 444.1,387.2 L 459.6,404.4 L 475.1,381.8 L 490.6,370.3 L 506.1,372.1 L 521.6,367.6 L 537.1,402.4 L 552.6,390.9 L 568.1,384.0 L 583.6,375.4 L 599.1,400.8 L 614.6,371.7 L 630.1,377.8 L 645.6,377.4 L 661.1,399.2 L 676.6,350.1 L 692.1,365.1 L 707.6,398.0 L 723.1,353.2 L 738.6,386.1 L 754.1,309.7 L 769.6,339.1 L 785.1,345.8 L 800.6,321.3 L 816.1,332.9 L 831.6,295.7 L 847.1,372.2 L 862.6,351.8 L 878.1,321.1 L 893.6,341.1" style="animation-delay:-0.70s"/><path class="mesh mesh-day" d="M 92.4,398.7 L 107.9,414.0 L 123.4,431.2 L 138.9,430.8 L 154.4,430.4 L 169.9,430.0 L 185.4,429.6 L 200.9,418.1 L 216.4,428.8 L 231.9,428.4 L 247.4,428.0 L 262.9,427.6 L 278.4,427.2 L 293.9,409.2 L 309.4,408.8 L 324.9,426.0 L 340.4,425.6 L 355.9,425.2 L 371.4,424.8 L 386.9,424.4 L 402.4,392.9 L 417.9,423.6 L 433.4,412.1 L 448.9,394.1 L 464.4,391.3 L 479.9,382.2 L 495.4,421.6 L 510.9,392.5 L 526.4,420.8 L 541.9,402.8 L 557.4,420.0 L 572.9,419.6 L 588.4,419.2 L 603.9,401.2 L 619.4,418.4 L 634.9,382.8 L 650.4,384.3 L 665.9,378.8 L 681.4,416.8 L 696.9,405.3 L 712.4,390.2 L 727.9,362.3 L 743.4,415.2 L 758.9,326.9 L 774.4,320.9 L 789.9,313.5 L 805.4,339.1 L 820.9,325.8 L 836.4,317.5 L 851.9,372.6 L 867.4,328.6 L 882.9,389.4 L 898.4,411.2" style="animation-delay:-1.05s"/><path class="mesh mesh-day" d="M 97.2,450.0 L 112.7,449.6 L 128.2,408.2 L 143.7,448.8 L 159.2,448.4 L 174.7,448.0 L 190.2,447.6 L 205.7,436.1 L 221.2,446.8 L 236.7,446.4 L 252.2,446.0 L 267.7,445.6 L 283.2,445.2 L 298.7,444.8 L 314.2,444.4 L 329.7,444.0 L 345.2,443.6 L 360.7,443.2 L 376.2,425.2 L 391.7,442.4 L 407.2,424.4 L 422.7,419.4 L 438.2,412.5 L 453.7,397.5 L 469.2,399.4 L 484.7,403.2 L 500.2,406.3 L 515.7,413.4 L 531.2,410.1 L 546.7,412.6 L 562.2,415.8 L 577.7,420.0 L 593.2,437.2 L 608.7,414.6 L 624.2,425.3 L 639.7,400.8 L 655.2,413.4 L 670.7,409.4 L 686.2,434.8 L 701.7,408.6 L 717.2,394.2 L 732.7,392.6 L 748.2,407.4 L 763.7,345.0 L 779.2,352.2 L 794.7,354.4 L 810.2,350.8 L 825.7,385.9 L 841.2,343.6 L 856.7,386.0 L 872.2,412.4 L 887.7,380.9 L 903.2,429.2" style="animation-delay:-1.40s"/><path class="mesh mesh-day" d="M 102.0,468.0 L 117.5,441.8 L 133.0,467.2 L 148.5,466.8 L 164.0,466.4 L 179.5,466.0 L 195.0,454.5 L 210.5,465.2 L 226.0,464.8 L 241.5,464.4 L 257.0,464.0 L 272.5,452.5 L 288.0,406.3 L 303.5,462.8 L 319.0,462.4 L 334.5,450.9 L 350.0,461.6 L 365.5,461.2 L 381.0,460.8 L 396.5,429.3 L 412.0,437.8 L 427.5,437.4 L 443.0,433.4 L 458.5,430.1 L 474.0,436.2 L 489.5,435.8 L 505.0,422.4 L 520.5,435.0 L 536.0,434.6 L 551.5,423.1 L 567.0,427.3 L 582.5,426.9 L 598.0,437.6 L 613.5,397.9 L 629.0,411.1 L 644.5,428.2 L 660.0,453.6 L 675.5,453.2 L 691.0,452.8 L 706.5,441.3 L 722.0,434.4 L 737.5,402.1 L 753.0,433.6 L 768.5,392.6 L 784.0,382.2 L 799.5,350.8 L 815.0,370.4 L 830.5,378.5 L 846.0,358.7 L 861.5,371.3 L 877.0,387.8 L 892.5,401.4 L 908.0,447.2" style="animation-delay:-1.75s"/><path class="mesh mesh-day" d="M 106.8,486.0 L 122.3,485.6 L 137.8,459.4 L 153.3,484.8 L 168.8,484.4 L 184.3,484.0 L 199.8,466.0 L 215.3,483.2 L 230.8,482.8 L 246.3,482.4 L 261.8,482.0 L 277.3,441.8 L 292.8,481.2 L 308.3,480.8 L 323.8,480.4 L 339.3,480.0 L 354.8,479.6 L 370.3,479.2 L 385.8,478.8 L 401.3,478.4 L 416.8,478.0 L 432.3,477.6 L 447.8,459.6 L 463.3,465.7 L 478.8,454.2 L 494.3,453.8 L 509.8,458.0 L 525.3,464.1 L 540.8,446.1 L 556.3,456.8 L 571.8,474.0 L 587.3,456.0 L 602.8,434.8 L 618.3,410.9 L 633.8,461.3 L 649.3,422.5 L 664.8,471.6 L 680.3,440.1 L 695.8,470.8 L 711.3,470.4 L 726.8,403.2 L 742.3,447.4 L 757.8,410.6 L 773.3,395.8 L 788.8,408.2 L 804.3,374.2 L 819.8,403.2 L 835.3,467.2 L 850.8,363.6 L 866.3,383.9 L 881.8,403.7 L 897.3,400.1 L 912.8,465.2" style="animation-delay:-2.10s"/><path class="mesh" opacity="0.13" d="M 78.0,378.0 L 82.8,396.0 L 87.6,385.3 L 92.4,398.7 L 97.2,450.0 L 102.0,468.0 L 106.8,486.0"/><path class="mesh" opacity="0.15" d="M 93.5,377.6 L 98.3,395.6 L 103.1,413.6 L 107.9,414.0 L 112.7,449.6 L 117.5,441.8 L 122.3,485.6"/><path class="mesh" opacity="0.18" d="M 109.0,377.2 L 113.8,395.2 L 118.6,402.1 L 123.4,431.2 L 128.2,408.2 L 133.0,467.2 L 137.8,459.4"/><path class="mesh" opacity="0.21" d="M 124.5,376.8 L 129.3,372.6 L 134.1,412.8 L 138.9,430.8 L 143.7,448.8 L 148.5,466.8 L 153.3,484.8"/><path class="mesh" opacity="0.13" d="M 140.0,376.4 L 144.8,394.4 L 149.6,412.4 L 154.4,430.4 L 159.2,448.4 L 164.0,466.4 L 168.8,484.4"/><path class="mesh" opacity="0.15" d="M 155.5,376.0 L 160.3,394.0 L 165.1,412.0 L 169.9,430.0 L 174.7,448.0 L 179.5,466.0 L 184.3,484.0"/><path class="mesh" opacity="0.18" d="M 171.0,375.6 L 175.8,393.6 L 180.6,411.6 L 185.4,429.6 L 190.2,447.6 L 195.0,454.5 L 199.8,466.0"/><path class="mesh" opacity="0.21" d="M 186.5,375.2 L 191.3,364.5 L 196.1,389.0 L 200.9,418.1 L 205.7,436.1 L 210.5,465.2 L 215.3,483.2"/><path class="mesh" opacity="0.13" d="M 202.0,374.8 L 206.8,392.8 L 211.6,410.8 L 216.4,428.8 L 221.2,446.8 L 226.0,464.8 L 230.8,482.8"/><path class="mesh" opacity="0.15" d="M 217.5,356.8 L 222.3,370.2 L 227.1,377.1 L 231.9,428.4 L 236.7,446.4 L 241.5,464.4 L 246.3,482.4"/><path class="mesh" opacity="0.18" d="M 233.0,356.4 L 237.8,392.0 L 242.6,410.0 L 247.4,428.0 L 252.2,446.0 L 257.0,464.0 L 261.8,482.0"/><path class="mesh" opacity="0.21" d="M 248.5,373.6 L 253.3,391.6 L 258.1,409.6 L 262.9,427.6 L 267.7,445.6 L 272.5,452.5 L 277.3,441.8"/><path class="mesh" opacity="0.13" d="M 264.0,373.2 L 268.8,391.2 L 273.6,409.2 L 278.4,427.2 L 283.2,445.2 L 288.0,406.3 L 292.8,481.2"/><path class="mesh" opacity="0.15" d="M 279.5,361.7 L 284.3,390.8 L 289.1,408.8 L 293.9,409.2 L 298.7,444.8 L 303.5,462.8 L 308.3,480.8"/><path class="mesh" opacity="0.18" d="M 295.0,341.3 L 299.8,390.4 L 304.6,408.4 L 309.4,408.8 L 314.2,444.4 L 319.0,462.4 L 323.8,480.4"/><path class="mesh" opacity="0.21" d="M 310.5,349.8 L 315.3,390.0 L 320.1,360.9 L 324.9,426.0 L 329.7,444.0 L 334.5,450.9 L 339.3,480.0"/><path class="mesh" opacity="0.13" d="M 326.0,354.0 L 330.8,354.4 L 335.6,407.6 L 340.4,425.6 L 345.2,443.6 L 350.0,461.6 L 354.8,479.6"/><path class="mesh" opacity="0.15" d="M 341.5,371.2 L 346.3,363.4 L 351.1,407.2 L 355.9,425.2 L 360.7,443.2 L 365.5,461.2 L 370.3,479.2"/><path class="mesh" opacity="0.18" d="M 357.0,370.8 L 361.8,388.8 L 366.6,389.2 L 371.4,424.8 L 376.2,425.2 L 381.0,460.8 L 385.8,478.8"/><path class="mesh" opacity="0.21" d="M 372.5,370.4 L 377.3,359.7 L 382.1,406.4 L 386.9,424.4 L 391.7,442.4 L 396.5,429.3 L 401.3,478.4"/><path class="mesh" opacity="0.13" d="M 388.0,347.8 L 392.8,388.0 L 397.6,406.0 L 402.4,392.9 L 407.2,424.4 L 412.0,437.8 L 416.8,478.0"/><path class="mesh" opacity="0.15" d="M 403.5,369.6 L 408.3,370.0 L 413.1,405.6 L 417.9,423.6 L 422.7,419.4 L 427.5,437.4 L 432.3,477.6"/><path class="mesh" opacity="0.18" d="M 419.0,369.2 L 423.8,358.5 L 428.6,394.1 L 433.4,412.1 L 438.2,412.5 L 443.0,433.4 L 447.8,459.6"/><path class="mesh" opacity="0.21" d="M 434.5,368.8 L 439.3,369.2 L 444.1,387.2 L 448.9,394.1 L 453.7,397.5 L 458.5,430.1 L 463.3,465.7"/><path class="mesh" opacity="0.13" d="M 450.0,357.3 L 454.8,386.4 L 459.6,404.4 L 464.4,391.3 L 469.2,399.4 L 474.0,436.2 L 478.8,454.2"/><path class="mesh" opacity="0.15" d="M 465.5,368.0 L 470.3,363.8 L 475.1,381.8 L 479.9,382.2 L 484.7,403.2 L 489.5,435.8 L 494.3,453.8"/><path class="mesh" opacity="0.18" d="M 481.0,367.6 L 485.8,363.4 L 490.6,370.3 L 495.4,421.6 L 500.2,406.3 L 505.0,422.4 L 509.8,458.0"/><path class="mesh" opacity="0.21" d="M 496.5,367.2 L 501.3,356.5 L 506.1,372.1 L 510.9,392.5 L 515.7,413.4 L 520.5,435.0 L 525.3,464.1"/><path class="mesh" opacity="0.13" d="M 512.0,366.8 L 516.8,384.8 L 521.6,367.6 L 526.4,420.8 L 531.2,410.1 L 536.0,434.6 L 540.8,446.1"/><path class="mesh" opacity="0.15" d="M 527.5,366.4 L 532.3,358.6 L 537.1,402.4 L 541.9,402.8 L 546.7,412.6 L 551.5,423.1 L 556.3,456.8"/><path class="mesh" opacity="0.18" d="M 543.0,366.0 L 547.8,384.0 L 552.6,390.9 L 557.4,420.0 L 562.2,415.8 L 567.0,427.3 L 571.8,474.0"/><path class="mesh" opacity="0.21" d="M 558.5,365.6 L 563.3,372.5 L 568.1,384.0 L 572.9,419.6 L 577.7,420.0 L 582.5,426.9 L 587.3,456.0"/><path class="mesh" opacity="0.13" d="M 574.0,365.2 L 578.8,383.2 L 583.6,375.4 L 588.4,419.2 L 593.2,437.2 L 598.0,437.6 L 602.8,434.8"/><path class="mesh" opacity="0.15" d="M 589.5,318.6 L 594.3,340.6 L 599.1,400.8 L 603.9,401.2 L 608.7,414.6 L 613.5,397.9 L 618.3,410.9"/><path class="mesh" opacity="0.18" d="M 605.0,314.2 L 609.8,329.1 L 614.6,371.7 L 619.4,418.4 L 624.2,425.3 L 629.0,411.1 L 633.8,461.3"/><path class="mesh" opacity="0.21" d="M 620.5,346.4 L 625.3,337.6 L 630.1,377.8 L 634.9,382.8 L 639.7,400.8 L 644.5,428.2 L 649.3,422.5"/><path class="mesh" opacity="0.13" d="M 636.0,363.6 L 640.8,364.0 L 645.6,377.4 L 650.4,384.3 L 655.2,413.4 L 660.0,453.6 L 664.8,471.6"/><path class="mesh" opacity="0.15" d="M 651.5,345.6 L 656.3,381.2 L 661.1,399.2 L 665.9,378.8 L 670.7,409.4 L 675.5,453.2 L 680.3,440.1"/><path class="mesh" opacity="0.18" d="M 667.0,327.6 L 671.8,342.4 L 676.6,350.1 L 681.4,416.8 L 686.2,434.8 L 691.0,452.8 L 695.8,470.8"/><path class="mesh" opacity="0.21" d="M 682.5,362.4 L 687.3,335.1 L 692.1,365.1 L 696.9,405.3 L 701.7,408.6 L 706.5,441.3 L 711.3,470.4"/><path class="mesh" opacity="0.13" d="M 698.0,362.0 L 702.8,380.0 L 707.6,398.0 L 712.4,390.2 L 717.2,394.2 L 722.0,434.4 L 726.8,403.2"/><path class="mesh" opacity="0.15" d="M 713.5,316.3 L 718.3,330.9 L 723.1,353.2 L 727.9,362.3 L 732.7,392.6 L 737.5,402.1 L 742.3,447.4"/><path class="mesh" opacity="0.18" d="M 729.0,310.4 L 733.8,368.1 L 738.6,386.1 L 743.4,415.2 L 748.2,407.4 L 753.0,433.6 L 757.8,410.6"/><path class="mesh" opacity="0.21" d="M 744.5,349.7 L 749.3,310.8 L 754.1,309.7 L 758.9,326.9 L 763.7,345.0 L 768.5,392.6 L 773.3,395.8"/><path class="mesh" opacity="0.13" d="M 760.0,282.3 L 764.8,303.9 L 769.6,339.1 L 774.4,320.9 L 779.2,352.2 L 784.0,382.2 L 788.8,408.2"/><path class="mesh" opacity="0.15" d="M 775.5,294.5 L 780.3,315.7 L 785.1,345.8 L 789.9,313.5 L 794.7,354.4 L 799.5,350.8 L 804.3,374.2"/><path class="mesh" opacity="0.18" d="M 791.0,258.9 L 795.8,313.2 L 800.6,321.3 L 805.4,339.1 L 810.2,350.8 L 815.0,370.4 L 819.8,403.2"/><path class="mesh" opacity="0.21" d="M 806.5,273.6 L 811.3,312.2 L 816.1,332.9 L 820.9,325.8 L 825.7,385.9 L 830.5,378.5 L 835.3,467.2"/><path class="mesh" opacity="0.13" d="M 822.0,312.6 L 826.8,284.6 L 831.6,295.7 L 836.4,317.5 L 841.2,343.6 L 846.0,358.7 L 850.8,363.6"/><path class="mesh" opacity="0.15" d="M 837.5,268.4 L 842.3,304.6 L 847.1,372.2 L 851.9,372.6 L 856.7,386.0 L 861.5,371.3 L 866.3,383.9"/><path class="mesh" opacity="0.18" d="M 853.0,301.6 L 857.8,304.0 L 862.6,351.8 L 867.4,328.6 L 872.2,412.4 L 877.0,387.8 L 881.8,403.7"/><path class="mesh" opacity="0.21" d="M 868.5,301.2 L 873.3,318.3 L 878.1,321.1 L 882.9,389.4 L 887.7,380.9 L 892.5,401.4 L 897.3,400.1"/><path class="mesh" opacity="0.13" d="M 884.0,322.0 L 888.8,301.5 L 893.6,341.1 L 898.4,411.2 L 903.2,429.2 L 908.0,447.2 L 912.8,465.2"/><circle class="sample" cx="87.6" cy="385.3" r="2.09" opacity="0.38" style="animation-delay:-0.40s"/><circle class="sample" cx="92.4" cy="398.7" r="2.15" opacity="0.39" style="animation-delay:-0.60s"/><circle class="sample" cx="107.9" cy="414.0" r="1.99" opacity="0.38" style="animation-delay:-2.00s"/><circle class="sample" cx="117.5" cy="441.8" r="2.06" opacity="0.38" style="animation-delay:-2.40s"/><circle class="sample" cx="118.6" cy="402.1" r="1.93" opacity="0.38" style="animation-delay:-3.20s"/><circle class="sample" cx="128.2" cy="408.2" r="2.25" opacity="0.39" style="animation-delay:-3.60s"/><circle class="sample" cx="137.8" cy="459.4" r="2.06" opacity="0.38" style="animation-delay:-4.00s"/><circle class="sample" cx="129.3" cy="372.6" r="2.03" opacity="0.38" style="animation-delay:-4.40s"/><circle class="sample" cx="195.0" cy="454.5" r="1.93" opacity="0.38" style="animation-delay:-2.00s"/><circle class="sample" cx="199.8" cy="466.0" r="1.99" opacity="0.38" style="animation-delay:-2.20s"/><circle class="sample" cx="191.3" cy="364.5" r="2.09" opacity="0.38" style="animation-delay:-2.60s"/><circle class="sample" cx="196.1" cy="389.0" r="2.03" opacity="0.38" style="animation-delay:-2.80s"/><circle class="sample" cx="200.9" cy="418.1" r="1.93" opacity="0.38" style="animation-delay:-3.00s"/><circle class="sample" cx="205.7" cy="436.1" r="1.93" opacity="0.38" style="animation-delay:-3.20s"/><circle class="sample" cx="217.5" cy="356.8" r="1.99" opacity="0.38" style="animation-delay:-5.20s"/><circle class="sample" cx="222.3" cy="370.2" r="2.03" opacity="0.38" style="animation-delay:-5.40s"/><circle class="sample" cx="227.1" cy="377.1" r="2.15" opacity="0.39" style="animation-delay:-5.60s"/><circle class="sample" cx="233.0" cy="356.4" r="1.99" opacity="0.38" style="animation-delay:-6.60s"/><circle class="sample" cx="272.5" cy="452.5" r="1.93" opacity="0.38" style="animation-delay:-1.60s"/><circle class="sample" cx="277.3" cy="441.8" r="2.24" opacity="0.39" style="animation-delay:-1.80s"/><circle class="sample" cx="288.0" cy="406.3" r="2.56" opacity="0.41" style="animation-delay:-3.00s"/><circle class="sample" cx="279.5" cy="361.7" r="1.93" opacity="0.38" style="animation-delay:-3.40s"/><circle class="sample" cx="293.9" cy="409.2" r="1.99" opacity="0.38" style="animation-delay:-4.00s"/><circle class="sample" cx="295.0" cy="341.3" r="2.12" opacity="0.39" style="animation-delay:-4.80s"/><circle class="sample" cx="309.4" cy="408.8" r="1.99" opacity="0.38" style="animation-delay:-5.40s"/><circle class="sample" cx="310.5" cy="349.8" r="2.03" opacity="0.38" style="animation-delay:-6.20s"/><circle class="sample" cx="320.1" cy="360.9" r="2.36" opacity="0.40" style="animation-delay:-6.60s"/><circle class="sample" cx="334.5" cy="450.9" r="1.93" opacity="0.38" style="animation-delay:-7.20s"/><circle class="sample" cx="326.0" cy="354.0" r="1.99" opacity="0.38" style="animation-delay:-0.20s"/><circle class="sample" cx="330.8" cy="354.4" r="2.17" opacity="0.39" style="animation-delay:-0.40s"/><circle class="sample" cx="346.3" cy="363.4" r="2.06" opacity="0.38" style="animation-delay:-1.80s"/><circle class="sample" cx="366.6" cy="389.2" r="1.99" opacity="0.38" style="animation-delay:-3.40s"/><circle class="sample" cx="376.2" cy="425.2" r="1.99" opacity="0.38" style="animation-delay:-3.80s"/><circle class="sample" cx="377.3" cy="359.7" r="2.09" opacity="0.38" style="animation-delay:-4.60s"/><circle class="sample" cx="396.5" cy="429.3" r="2.12" opacity="0.39" style="animation-delay:-5.40s"/><circle class="sample" cx="388.0" cy="347.8" r="2.03" opacity="0.38" style="animation-delay:-5.80s"/><circle class="sample" cx="402.4" cy="392.9" r="2.12" opacity="0.39" style="animation-delay:-6.40s"/><circle class="sample" cx="407.2" cy="424.4" r="1.99" opacity="0.38" style="animation-delay:-6.60s"/><circle class="sample" cx="412.0" cy="437.8" r="2.03" opacity="0.38" style="animation-delay:-6.80s"/><circle class="sample" cx="408.3" cy="370.0" r="1.99" opacity="0.38" style="animation-delay:0.00s"/><circle class="sample" cx="422.7" cy="419.4" r="2.03" opacity="0.38" style="animation-delay:-0.60s"/><circle class="sample" cx="427.5" cy="437.4" r="2.03" opacity="0.38" style="animation-delay:-0.80s"/><circle class="sample" cx="423.8" cy="358.5" r="2.09" opacity="0.38" style="animation-delay:-1.40s"/><circle class="sample" cx="428.6" cy="394.1" r="1.93" opacity="0.38" style="animation-delay:-1.60s"/><circle class="sample" cx="433.4" cy="412.1" r="1.93" opacity="0.38" style="animation-delay:-1.80s"/><circle class="sample" cx="438.2" cy="412.5" r="2.09" opacity="0.38" style="animation-delay:-2.00s"/><circle class="sample" cx="443.0" cy="433.4" r="2.06" opacity="0.38" style="animation-delay:-2.20s"/><circle class="sample" cx="447.8" cy="459.6" r="1.99" opacity="0.38" style="animation-delay:-2.40s"/><circle class="sample" cx="439.3" cy="369.2" r="1.99" opacity="0.38" style="animation-delay:-2.80s"/><circle class="sample" cx="444.1" cy="387.2" r="1.99" opacity="0.38" style="animation-delay:-3.00s"/><circle class="sample" cx="448.9" cy="394.1" r="2.09" opacity="0.38" style="animation-delay:-3.20s"/><circle class="sample" cx="453.7" cy="397.5" r="2.29" opacity="0.39" style="animation-delay:-3.40s"/><circle class="sample" cx="458.5" cy="430.1" r="2.09" opacity="0.38" style="animation-delay:-3.60s"/><circle class="sample" cx="463.3" cy="465.7" r="1.93" opacity="0.38" style="animation-delay:-3.80s"/><circle class="sample" cx="450.0" cy="357.3" r="1.93" opacity="0.38" style="animation-delay:-4.00s"/><circle class="sample" cx="464.4" cy="391.3" r="2.12" opacity="0.39" style="animation-delay:-4.60s"/><circle class="sample" cx="469.2" cy="399.4" r="2.25" opacity="0.39" style="animation-delay:-4.80s"/><circle class="sample" cx="474.0" cy="436.2" r="2.03" opacity="0.38" style="animation-delay:-5.00s"/><circle class="sample" cx="478.8" cy="454.2" r="2.03" opacity="0.38" style="animation-delay:-5.20s"/><circle class="sample" cx="470.3" cy="363.8" r="2.03" opacity="0.38" style="animation-delay:-5.60s"/><circle class="sample" cx="475.1" cy="381.8" r="2.03" opacity="0.38" style="animation-delay:-5.80s"/><circle class="sample" cx="479.9" cy="382.2" r="2.24" opacity="0.39" style="animation-delay:-6.00s"/><circle class="sample" cx="484.7" cy="403.2" r="2.19" opacity="0.39" style="animation-delay:-6.20s"/><circle class="sample" cx="489.5" cy="435.8" r="2.03" opacity="0.38" style="animation-delay:-6.40s"/><circle class="sample" cx="494.3" cy="453.8" r="2.03" opacity="0.38" style="animation-delay:-6.60s"/><circle class="sample" cx="485.8" cy="363.4" r="2.03" opacity="0.38" style="animation-delay:-7.00s"/><circle class="sample" cx="490.6" cy="370.3" r="2.15" opacity="0.39" style="animation-delay:-7.20s"/><circle class="sample" cx="500.2" cy="406.3" r="2.15" opacity="0.39" style="animation-delay:-0.20s"/><circle class="sample" cx="505.0" cy="422.4" r="2.17" opacity="0.39" style="animation-delay:-0.40s"/><circle class="sample" cx="509.8" cy="458.0" r="1.99" opacity="0.38" style="animation-delay:-0.60s"/><circle class="sample" cx="501.3" cy="356.5" r="2.09" opacity="0.38" style="animation-delay:-1.00s"/><circle class="sample" cx="506.1" cy="372.1" r="2.12" opacity="0.39" style="animation-delay:-1.20s"/><circle class="sample" cx="510.9" cy="392.5" r="2.09" opacity="0.38" style="animation-delay:-1.40s"/><circle class="sample" cx="515.7" cy="413.4" r="2.06" opacity="0.38" style="animation-delay:-1.60s"/><circle class="sample" cx="520.5" cy="435.0" r="2.03" opacity="0.38" style="animation-delay:-1.80s"/><circle class="sample" cx="525.3" cy="464.1" r="1.93" opacity="0.38" style="animation-delay:-2.00s"/><circle class="sample" cx="521.6" cy="367.6" r="2.17" opacity="0.39" style="animation-delay:-2.60s"/><circle class="sample" cx="531.2" cy="410.1" r="2.09" opacity="0.38" style="animation-delay:-3.00s"/><circle class="sample" cx="536.0" cy="434.6" r="2.03" opacity="0.38" style="animation-delay:-3.20s"/><circle class="sample" cx="540.8" cy="446.1" r="2.09" opacity="0.38" style="animation-delay:-3.40s"/><circle class="sample" cx="532.3" cy="358.6" r="2.06" opacity="0.38" style="animation-delay:-3.80s"/><circle class="sample" cx="541.9" cy="402.8" r="1.99" opacity="0.38" style="animation-delay:-4.20s"/><circle class="sample" cx="546.7" cy="412.6" r="2.06" opacity="0.38" style="animation-delay:-4.40s"/><circle class="sample" cx="551.5" cy="423.1" r="2.15" opacity="0.39" style="animation-delay:-4.60s"/><circle class="sample" cx="556.3" cy="456.8" r="1.99" opacity="0.38" style="animation-delay:-4.80s"/><circle class="sample" cx="552.6" cy="390.9" r="1.93" opacity="0.38" style="animation-delay:-5.40s"/><circle class="sample" cx="562.2" cy="415.8" r="2.03" opacity="0.38" style="animation-delay:-5.80s"/><circle class="sample" cx="567.0" cy="427.3" r="2.09" opacity="0.38" style="animation-delay:-6.00s"/><circle class="sample" cx="563.3" cy="372.5" r="1.93" opacity="0.38" style="animation-delay:-6.60s"/><circle class="sample" cx="568.1" cy="384.0" r="1.99" opacity="0.38" style="animation-delay:-6.80s"/><circle class="sample" cx="577.7" cy="420.0" r="1.99" opacity="0.38" style="animation-delay:-7.20s"/><circle class="sample" cx="582.5" cy="426.9" r="2.09" opacity="0.38" style="animation-delay:0.00s"/><circle class="sample" cx="587.3" cy="456.0" r="1.99" opacity="0.38" style="animation-delay:-0.20s"/><circle class="sample" cx="583.6" cy="375.4" r="2.06" opacity="0.38" style="animation-delay:-0.80s"/><circle class="sample" cx="598.0" cy="437.6" r="1.99" opacity="0.38" style="animation-delay:-1.40s"/><circle class="sample" cx="602.8" cy="434.8" r="2.21" opacity="0.39" style="animation-delay:-1.60s"/><circle class="sample" cx="589.5" cy="318.6" r="2.34" opacity="0.39" style="animation-delay:-1.80s"/><circle class="sample" cx="594.3" cy="340.6" r="2.27" opacity="0.39" style="animation-delay:-2.00s"/><circle class="sample" cx="603.9" cy="401.2" r="1.99" opacity="0.38" style="animation-delay:-2.40s"/><circle class="sample" cx="608.7" cy="414.6" r="2.03" opacity="0.38" style="animation-delay:-2.60s"/><circle class="sample" cx="613.5" cy="397.9" r="2.56" opacity="0.41" style="animation-delay:-2.80s"/><circle class="sample" cx="618.3" cy="410.9" r="2.70" opacity="0.42" style="animation-delay:-3.00s"/><circle class="sample" cx="605.0" cy="314.2" r="2.42" opacity="0.40" style="animation-delay:-3.20s"/><circle class="sample" cx="609.8" cy="329.1" r="2.48" opacity="0.40" style="animation-delay:-3.40s"/><circle class="sample" cx="614.6" cy="371.7" r="2.09" opacity="0.38" style="animation-delay:-3.60s"/><circle class="sample" cx="624.2" cy="425.3" r="1.93" opacity="0.38" style="animation-delay:-4.00s"/><circle class="sample" cx="629.0" cy="411.1" r="2.29" opacity="0.39" style="animation-delay:-4.20s"/><circle class="sample" cx="633.8" cy="461.3" r="1.93" opacity="0.38" style="animation-delay:-4.40s"/><circle class="sample" cx="620.5" cy="346.4" r="1.99" opacity="0.38" style="animation-delay:-4.60s"/><circle class="sample" cx="625.3" cy="337.6" r="2.31" opacity="0.39" style="animation-delay:-4.80s"/><circle class="sample" cx="630.1" cy="377.8" r="2.03" opacity="0.38" style="animation-delay:-5.00s"/><circle class="sample" cx="634.9" cy="382.8" r="2.17" opacity="0.39" style="animation-delay:-5.20s"/><circle class="sample" cx="639.7" cy="400.8" r="2.17" opacity="0.39" style="animation-delay:-5.40s"/><circle class="sample" cx="644.5" cy="428.2" r="2.06" opacity="0.38" style="animation-delay:-5.60s"/><circle class="sample" cx="649.3" cy="422.5" r="2.40" opacity="0.40" style="animation-delay:-5.80s"/><circle class="sample" cx="640.8" cy="364.0" r="1.99" opacity="0.38" style="animation-delay:-6.20s"/><circle class="sample" cx="645.6" cy="377.4" r="2.03" opacity="0.38" style="animation-delay:-6.40s"/><circle class="sample" cx="650.4" cy="384.3" r="2.15" opacity="0.39" style="animation-delay:-6.60s"/><circle class="sample" cx="655.2" cy="413.4" r="2.03" opacity="0.38" style="animation-delay:-6.80s"/><circle class="sample" cx="651.5" cy="345.6" r="1.99" opacity="0.38" style="animation-delay:0.00s"/><circle class="sample" cx="665.9" cy="378.8" r="2.21" opacity="0.39" style="animation-delay:-0.60s"/><circle class="sample" cx="670.7" cy="409.4" r="2.06" opacity="0.38" style="animation-delay:-0.80s"/><circle class="sample" cx="680.3" cy="440.1" r="2.12" opacity="0.39" style="animation-delay:-1.20s"/><circle class="sample" cx="667.0" cy="327.6" r="2.17" opacity="0.39" style="animation-delay:-1.40s"/><circle class="sample" cx="671.8" cy="342.4" r="2.21" opacity="0.39" style="animation-delay:-1.60s"/><circle class="sample" cx="676.6" cy="350.1" r="2.39" opacity="0.40" style="animation-delay:-1.80s"/><circle class="sample" cx="687.3" cy="335.1" r="2.32" opacity="0.39" style="animation-delay:-3.00s"/><circle class="sample" cx="692.1" cy="365.1" r="2.15" opacity="0.39" style="animation-delay:-3.20s"/><circle class="sample" cx="696.9" cy="405.3" r="1.93" opacity="0.38" style="animation-delay:-3.40s"/><circle class="sample" cx="701.7" cy="408.6" r="2.06" opacity="0.38" style="animation-delay:-3.60s"/><circle class="sample" cx="706.5" cy="441.3" r="1.93" opacity="0.38" style="animation-delay:-3.80s"/><circle class="sample" cx="712.4" cy="390.2" r="2.06" opacity="0.38" style="animation-delay:-4.80s"/><circle class="sample" cx="717.2" cy="394.2" r="2.24" opacity="0.39" style="animation-delay:-5.00s"/><circle class="sample" cx="722.0" cy="434.4" r="1.99" opacity="0.38" style="animation-delay:-5.20s"/><circle class="sample" cx="726.8" cy="403.2" r="2.85" opacity="0.44" style="animation-delay:-5.40s"/><circle class="sample" cx="713.5" cy="316.3" r="2.32" opacity="0.39" style="animation-delay:-5.60s"/><circle class="sample" cx="718.3" cy="330.9" r="2.39" opacity="0.40" style="animation-delay:-5.80s"/><circle class="sample" cx="723.1" cy="353.2" r="2.31" opacity="0.39" style="animation-delay:-6.00s"/><circle class="sample" cx="727.9" cy="362.3" r="2.48" opacity="0.40" style="animation-delay:-6.20s"/><circle class="sample" cx="732.7" cy="392.6" r="2.25" opacity="0.39" style="animation-delay:-6.40s"/><circle class="sample" cx="737.5" cy="402.1" r="2.40" opacity="0.40" style="animation-delay:-6.60s"/><circle class="sample" cx="742.3" cy="447.4" r="2.03" opacity="0.38" style="animation-delay:-6.80s"/><circle class="sample" cx="729.0" cy="310.4" r="2.43" opacity="0.40" style="animation-delay:-7.00s"/><circle class="sample" cx="733.8" cy="368.1" r="1.93" opacity="0.38" style="animation-delay:-7.20s"/><circle class="sample" cx="738.6" cy="386.1" r="1.93" opacity="0.38" style="animation-delay:0.00s"/><circle class="sample" cx="748.2" cy="407.4" r="2.06" opacity="0.38" style="animation-delay:-0.40s"/><circle class="sample" cx="753.0" cy="433.6" r="1.99" opacity="0.38" style="animation-delay:-0.60s"/><circle class="sample" cx="757.8" cy="410.6" r="2.61" opacity="0.41" style="animation-delay:-0.80s"/><circle class="sample" cx="744.5" cy="349.7" r="1.93" opacity="0.38" style="animation-delay:-1.00s"/><circle class="sample" cx="749.3" cy="310.8" r="2.89" opacity="0.44" style="animation-delay:-1.20s"/><circle class="sample" cx="754.1" cy="309.7" r="3.79" opacity="0.58" style="animation-delay:-1.40s"/><circle class="sample" cx="758.9" cy="326.9" r="3.84" opacity="0.59" style="animation-delay:-1.60s"/><circle class="sample" cx="763.7" cy="345.0" r="3.83" opacity="0.59" style="animation-delay:-1.80s"/><circle class="sample" cx="768.5" cy="392.6" r="2.60" opacity="0.41" style="animation-delay:-2.00s"/><circle class="sample" cx="773.3" cy="395.8" r="3.08" opacity="0.46" style="animation-delay:-2.20s"/><circle class="sample" cx="760.0" cy="282.3" r="3.30" opacity="0.49" style="animation-delay:-2.40s"/><circle class="sample" cx="764.8" cy="303.9" r="3.14" opacity="0.47" style="animation-delay:-2.60s"/><circle class="sample" cx="769.6" cy="339.1" r="2.58" opacity="0.41" style="animation-delay:-2.80s"/><circle class="sample" cx="774.4" cy="320.9" r="4.24" opacity="0.68" style="animation-delay:-3.00s"/><circle class="sample" cx="779.2" cy="352.2" r="3.40" opacity="0.51" style="animation-delay:-3.20s"/><circle class="sample" cx="784.0" cy="382.2" r="2.90" opacity="0.44" style="animation-delay:-3.40s"/><circle class="sample" cx="788.8" cy="408.2" r="2.65" opacity="0.42" style="animation-delay:-3.60s"/><circle class="sample" cx="775.5" cy="294.5" r="2.81" opacity="0.43" style="animation-delay:-3.80s"/><circle class="sample" cx="780.3" cy="315.7" r="2.71" opacity="0.42" style="animation-delay:-4.00s"/><circle class="sample" cx="785.1" cy="345.8" r="2.42" opacity="0.40" style="animation-delay:-4.20s"/><circle class="sample" cx="789.9" cy="313.5" r="4.83" opacity="0.84" style="animation-delay:-4.40s"/><circle class="sample" cx="794.7" cy="354.4" r="3.28" opacity="0.49" style="animation-delay:-4.60s"/><circle class="sample" cx="799.5" cy="350.8" r="4.71" opacity="0.81" style="animation-delay:-4.80s"/><circle class="sample" cx="804.3" cy="374.2" r="4.26" opacity="0.68" style="animation-delay:-5.00s"/><circle class="sample" cx="791.0" cy="258.9" r="4.85" opacity="0.85" style="animation-delay:-5.20s"/><circle class="sample" cx="795.8" cy="313.2" r="2.77" opacity="0.43" style="animation-delay:-5.40s"/><circle class="sample" cx="800.6" cy="321.3" r="3.13" opacity="0.47" style="animation-delay:-5.60s"/><circle class="sample" cx="805.4" cy="339.1" r="3.14" opacity="0.47" style="animation-delay:-5.80s"/><circle class="sample" cx="810.2" cy="350.8" r="3.43" opacity="0.51" style="animation-delay:-6.00s"/><circle class="sample" cx="815.0" cy="370.4" r="3.35" opacity="0.50" style="animation-delay:-6.20s"/><circle class="sample" cx="819.8" cy="403.2" r="2.77" opacity="0.43" style="animation-delay:-6.40s"/><circle class="sample" cx="806.5" cy="273.6" r="3.70" opacity="0.56" style="animation-delay:-6.60s"/><circle class="sample" cx="811.3" cy="312.2" r="2.79" opacity="0.43" style="animation-delay:-6.80s"/><circle class="sample" cx="816.1" cy="332.9" r="2.71" opacity="0.42" style="animation-delay:-7.00s"/><circle class="sample" cx="820.9" cy="325.8" r="3.81" opacity="0.58" style="animation-delay:-7.20s"/><circle class="sample" cx="825.7" cy="385.9" r="2.32" opacity="0.39" style="animation-delay:0.00s"/><circle class="sample" cx="830.5" cy="378.5" r="2.99" opacity="0.45" style="animation-delay:-0.20s"/><circle class="sample" cx="822.0" cy="312.6" r="2.34" opacity="0.39" style="animation-delay:-0.60s"/><circle class="sample" cx="826.8" cy="284.6" r="4.14" opacity="0.66" style="animation-delay:-0.80s"/><circle class="sample" cx="831.6" cy="295.7" r="4.70" opacity="0.81" style="animation-delay:-1.00s"/><circle class="sample" cx="836.4" cy="317.5" r="4.37" opacity="0.71" style="animation-delay:-1.20s"/><circle class="sample" cx="841.2" cy="343.6" r="3.80" opacity="0.58" style="animation-delay:-1.40s"/><circle class="sample" cx="846.0" cy="358.7" r="3.99" opacity="0.62" style="animation-delay:-1.60s"/><circle class="sample" cx="850.8" cy="363.6" r="5.10" opacity="0.93" style="animation-delay:-1.80s"/><circle class="sample" cx="837.5" cy="268.4" r="3.98" opacity="0.62" style="animation-delay:-2.00s"/><circle class="sample" cx="842.3" cy="304.6" r="3.03" opacity="0.46" style="animation-delay:-2.20s"/><circle class="sample" cx="847.1" cy="372.2" r="2.03" opacity="0.38" style="animation-delay:-2.40s"/><circle class="sample" cx="851.9" cy="372.6" r="2.24" opacity="0.39" style="animation-delay:-2.60s"/><circle class="sample" cx="856.7" cy="386.0" r="2.31" opacity="0.39" style="animation-delay:-2.80s"/><circle class="sample" cx="861.5" cy="371.3" r="3.25" opacity="0.49" style="animation-delay:-3.00s"/><circle class="sample" cx="866.3" cy="383.9" r="3.53" opacity="0.53" style="animation-delay:-3.20s"/><circle class="sample" cx="853.0" cy="301.6" r="2.55" opacity="0.41" style="animation-delay:-3.40s"/><circle class="sample" cx="857.8" cy="304.0" r="3.04" opacity="0.46" style="animation-delay:-3.60s"/><circle class="sample" cx="862.6" cy="351.8" r="2.27" opacity="0.39" style="animation-delay:-3.80s"/><circle class="sample" cx="867.4" cy="328.6" r="3.57" opacity="0.54" style="animation-delay:-4.00s"/><circle class="sample" cx="872.2" cy="412.4" r="1.99" opacity="0.38" style="animation-delay:-4.20s"/><circle class="sample" cx="877.0" cy="387.8" r="2.65" opacity="0.42" style="animation-delay:-4.40s"/><circle class="sample" cx="881.8" cy="403.7" r="2.71" opacity="0.42" style="animation-delay:-4.60s"/><circle class="sample" cx="868.5" cy="301.2" r="2.55" opacity="0.41" style="animation-delay:-4.80s"/><circle class="sample" cx="873.3" cy="318.3" r="2.58" opacity="0.41" style="animation-delay:-5.00s"/><circle class="sample" cx="878.1" cy="321.1" r="3.06" opacity="0.46" style="animation-delay:-5.20s"/><circle class="sample" cx="882.9" cy="389.4" r="2.03" opacity="0.38" style="animation-delay:-5.40s"/><circle class="sample" cx="887.7" cy="380.9" r="2.39" opacity="0.40" style="animation-delay:-5.60s"/><circle class="sample" cx="892.5" cy="401.4" r="2.34" opacity="0.39" style="animation-delay:-5.80s"/><circle class="sample" cx="897.3" cy="400.1" r="2.81" opacity="0.43" style="animation-delay:-6.00s"/><circle class="sample" cx="884.0" cy="322.0" r="2.17" opacity="0.39" style="animation-delay:-6.20s"/><circle class="sample" cx="888.8" cy="301.5" r="3.11" opacity="0.47" style="animation-delay:-6.40s"/><circle class="sample" cx="893.6" cy="341.1" r="2.46" opacity="0.40" style="animation-delay:-6.60s"/></g>
<text x="48" y="616" class="muted small">w → time</text>
<text x="104" y="642" class="muted small">d → weekday</text>
<text x="48" y="674" class="muted small">height = log(1 + daily contributions)</text>

<line x1="918" y1="118" x2="918" y2="640" class="divider"/>
<text x="950" y="128" class="muted label">02 / CHAOTIC SIGNATURE</text>
<text x="950" y="153" class="eq">ẋ=σ(y−x)</text>
<text x="950" y="174" class="eq">ẏ=x(ρ−z)−y</text>
<text x="950" y="195" class="eq">ż=xy−βz</text>
<path class="lorenz" d="M 1030.3,314.5 L 1027.4,313.5 L 1024.7,312.7 L 1022.2,312.0 L 1019.9,311.4 L 1017.8,311.0 L 1015.9,310.6 L 1014.2,310.4 L 1012.6,310.2 L 1011.1,310.0 L 1009.8,309.9 L 1008.7,309.9 L 1007.7,309.8 L 1006.8,309.8 L 1006.0,309.8 L 1005.3,309.8 L 1004.7,309.7 L 1004.3,309.7 L 1003.9,309.7 L 1003.6,309.6 L 1003.4,309.5 L 1003.2,309.4 L 1003.2,309.2 L 1003.2,309.0 L 1003.2,308.8 L 1003.4,308.6 L 1003.5,308.3 L 1003.7,308.0 L 1004.0,307.6 L 1004.3,307.2 L 1004.6,306.8 L 1005.0,306.4 L 1005.3,305.9 L 1005.7,305.4 L 1006.1,304.9 L 1006.6,304.3 L 1007.0,303.8 L 1007.4,303.2 L 1007.9,302.6 L 1008.3,301.9 L 1008.8,301.3 L 1009.2,300.7 L 1009.6,300.0 L 1010.1,299.3 L 1010.5,298.7 L 1010.9,298.0 L 1011.2,297.3 L 1011.6,296.7 L 1011.9,296.0 L 1012.2,295.3 L 1012.5,294.6 L 1012.8,294.0 L 1013.1,293.3 L 1013.3,292.7 L 1013.5,292.1 L 1013.7,291.4 L 1013.8,290.8 L 1014.0,290.2 L 1014.1,289.6 L 1014.1,289.1 L 1014.2,288.5 L 1014.2,288.0 L 1014.2,287.5 L 1014.2,287.0 L 1014.1,286.5 L 1014.0,286.0 L 1013.9,285.6 L 1013.8,285.2 L 1013.6,284.8 L 1013.5,284.5 L 1013.2,284.1 L 1013.0,283.8 L 1012.8,283.6 L 1012.5,283.3 L 1012.2,283.1 L 1011.8,282.9 L 1011.5,282.8 L 1011.1,282.7 L 1010.7,282.6 L 1010.3,282.6 L 1009.8,282.6 L 1009.3,282.6 L 1008.9,282.7 L 1008.3,282.8 L 1007.8,283.0 L 1007.3,283.2 L 1006.7,283.5 L 1006.1,283.8 L 1005.5,284.1 L 1004.9,284.5 L 1004.3,284.9 L 1003.7,285.4 L 1003.1,285.9 L 1002.4,286.5 L 1001.8,287.1 L 1001.2,287.8 L 1000.5,288.5 L 999.9,289.2 L 999.2,290.0 L 998.6,290.9 L 998.0,291.7 L 997.4,292.6 L 996.8,293.5 L 996.3,294.5 L 995.7,295.4 L 995.2,296.4 L 994.7,297.4 L 994.3,298.4 L 993.9,299.3 L 993.5,300.3 L 993.2,301.3 L 992.9,302.2 L 992.7,303.2 L 992.5,304.0 L 992.4,304.9 L 992.3,305.7 L 992.3,306.5 L 992.4,307.2 L 992.5,307.8 L 992.6,308.4 L 992.8,308.9 L 993.1,309.4 L 993.5,309.7 L 993.8,310.0 L 994.3,310.3 L 994.8,310.4 L 995.3,310.5 L 995.9,310.5 L 996.5,310.4 L 997.2,310.3 L 997.9,310.1 L 998.6,309.8 L 999.3,309.5 L 1000.1,309.1 L 1000.9,308.6 L 1001.7,308.1 L 1002.5,307.6 L 1003.3,307.0 L 1004.1,306.3 L 1004.9,305.7 L 1005.7,305.0 L 1006.5,304.3 L 1007.3,303.5 L 1008.0,302.8 L 1008.8,302.0 L 1009.5,301.2 L 1010.2,300.4 L 1010.8,299.5 L 1011.5,298.7 L 1012.1,297.9 L 1012.7,297.1 L 1013.2,296.2 L 1013.7,295.4 L 1014.2,294.6 L 1014.6,293.8 L 1015.1,293.0 L 1015.4,292.2 L 1015.8,291.4 L 1016.1,290.6 L 1016.4,289.9 L 1016.6,289.1 L 1016.8,288.4 L 1017.0,287.7 L 1017.1,287.0 L 1017.2,286.3 L 1017.3,285.6 L 1017.3,285.0 L 1017.3,284.4 L 1017.3,283.8 L 1017.2,283.2 L 1017.1,282.6 L 1017.0,282.1 L 1016.8,281.6 L 1016.6,281.1 L 1016.4,280.7 L 1016.2,280.3 L 1015.9,279.9 L 1015.6,279.6 L 1015.2,279.2 L 1014.9,279.0 L 1014.5,278.7 L 1014.0,278.5 L 1013.6,278.4 L 1013.1,278.2 L 1012.6,278.2 L 1012.1,278.1 L 1011.5,278.2 L 1010.9,278.2 L 1010.3,278.3 L 1009.6,278.5 L 1009.0,278.7 L 1008.3,279.0 L 1007.6,279.3 L 1006.8,279.7 L 1006.1,280.1 L 1005.3,280.6 L 1004.5,281.2 L 1003.7,281.8 L 1002.9,282.5 L 1002.1,283.3 L 1001.3,284.1 L 1000.4,285.0 L 999.6,285.9 L 998.8,286.9 L 998.0,287.9 L 997.1,289.0 L 996.3,290.2 L 995.5,291.4 L 994.8,292.6 L 994.0,293.9 L 993.3,295.2 L 992.6,296.5 L 992.0,297.9 L 991.4,299.2 L 990.9,300.6 L 990.4,301.9 L 990.0,303.2 L 989.6,304.5 L 989.3,305.8 L 989.1,307.0 L 988.9,308.1 L 988.9,309.2 L 988.9,310.2 L 989.0,311.2 L 989.1,312.0 L 989.4,312.7 L 989.7,313.4 L 990.2,313.9 L 990.7,314.3 L 991.2,314.7 L 991.9,314.9 L 992.6,315.0 L 993.4,315.0 L 994.2,314.9 L 995.1,314.7 L 996.0,314.4 L 997.0,314.0 L 998.0,313.5 L 999.1,313.0 L 1000.1,312.3 L 1001.2,311.6 L 1002.3,310.9 L 1003.4,310.1 L 1004.5,309.2 L 1005.5,308.4 L 1006.6,307.4 L 1007.6,306.5 L 1008.7,305.5 L 1009.7,304.5 L 1010.6,303.5 L 1011.6,302.5 L 1012.5,301.5 L 1013.4,300.4 L 1014.2,299.4 L 1015.0,298.4 L 1015.7,297.3 L 1016.4,296.3 L 1017.1,295.3 L 1017.7,294.3 L 1018.3,293.3 L 1018.8,292.3 L 1019.3,291.3 L 1019.8,290.3 L 1020.2,289.4 L 1020.5,288.4 L 1020.8,287.5 L 1021.1,286.6 L 1021.4,285.7 L 1021.6,284.9 L 1021.7,284.0 L 1021.9,283.2 L 1021.9,282.4 L 1022.0,281.6 L 1022.0,280.8 L 1022.0,280.1 L 1021.9,279.4 L 1021.8,278.7 L 1021.7,278.0 L 1021.5,277.4 L 1021.3,276.7 L 1021.1,276.2 L 1020.8,275.6 L 1020.6,275.1 L 1020.2,274.6 L 1019.9,274.1 L 1019.5,273.7 L 1019.1,273.3 L 1018.6,273.0 L 1018.1,272.7 L 1017.6,272.4 L 1017.0,272.2 L 1016.5,272.0 L 1015.8,271.9 L 1015.2,271.8 L 1014.5,271.8 L 1013.8,271.8 L 1013.0,271.9 L 1012.3,272.0 L 1011.5,272.2 L 1010.6,272.5 L 1009.7,272.9 L 1008.8,273.3 L 1007.9,273.8 L 1007.0,274.3 L 1006.0,275.0 L 1005.0,275.7 L 1003.9,276.5 L 1002.9,277.4 L 1001.8,278.4 L 1000.7,279.5 L 999.6,280.6 L 998.5,281.9 L 997.4,283.2 L 996.3,284.6 L 995.2,286.1 L 994.2,287.7 L 993.1,289.3 L 992.0,291.1 L 991.0,292.8 L 990.1,294.6 L 989.1,296.5 L 988.2,298.4 L 987.4,300.3 L 986.7,302.2 L 986.0,304.1 L 985.4,306.0 L 985.0,307.8 L 984.6,309.6 L 984.3,311.3 L 984.1,312.9 L 984.0,314.4 L 984.1,315.7 L 984.3,317.0 L 984.6,318.1 L 985.0,319.0 L 985.5,319.8 L 986.2,320.4 L 987.0,320.9 L 987.8,321.2 L 988.8,321.3 L 989.9,321.3 L 991.1,321.1 L 992.3,320.7 L 993.6,320.3 L 995.0,319.7 L 996.4,319.0 L 997.8,318.2 L 999.3,317.3 L 1000.8,316.3 L 1002.3,315.2 L 1003.8,314.1 L 1005.3,312.9 L 1006.8,311.7 L 1008.2,310.5 L 1009.6,309.2 L 1011.0,307.9 L 1012.4,306.6 L 1013.6,305.3 L 1014.9,304.0 L 1016.1,302.7 L 1017.2,301.4 L 1018.3,300.1 L 1019.3,298.8 L 1020.3,297.5 L 1021.2,296.3 L 1022.1,295.0 L 1022.9,293.8 L 1023.6,292.6 L 1024.3,291.4 L 1025.0,290.2 L 1025.6,289.1 L 1026.1,287.9 L 1026.6,286.8 L 1027.0,285.7 L 1027.4,284.6 L 1027.8,283.5 L 1028.1,282.5 L 1028.3,281.5 L 1028.5,280.5 L 1028.7,279.5 L 1028.9,278.5 L 1029.0,277.5 L 1029.0,276.6 L 1029.1,275.7 L 1029.1,274.8 L 1029.0,274.0 L 1029.0,273.1 L 1028.9,272.3 L 1028.8,271.5 L 1028.6,270.7 L 1028.4,269.9 L 1028.2,269.2 L 1028.0,268.5 L 1027.7,267.8 L 1027.4,267.2 L 1027.1,266.5 L 1026.7,265.9 L 1026.3,265.4 L 1025.9,264.8 L 1025.4,264.3 L 1024.9,263.8 L 1024.4,263.4 L 1023.9,263.0 L 1023.3,262.6 L 1022.7,262.3 L 1022.0,262.0 L 1021.3,261.8 L 1020.6,261.6 L 1019.8,261.5 L 1019.0,261.4 L 1018.2,261.4 L 1017.3,261.4 L 1016.4,261.5 L 1015.4,261.7 L 1014.4,262.0 L 1013.4,262.3 L 1012.3,262.7 L 1011.2,263.2 L 1010.0,263.8 L 1008.8,264.5 L 1007.5,265.3 L 1006.3,266.2 L 1004.9,267.2 L 1003.5,268.4 L 1002.1,269.6 L 1000.7,271.0 L 999.2,272.6 L 997.7,274.2 L 996.2,276.0 L 994.7,278.0 L 993.2,280.1 L 991.7,282.3 L 990.1,284.6 L 988.6,287.1 L 987.2,289.6 L 985.7,292.3 L 984.4,295.1 L 983.1,297.9 L 981.8,300.8 L 980.7,303.7 L 979.7,306.5 L 978.8,309.4 L 978.0,312.2 L 977.4,314.9 L 977.0,317.5 L 976.7,319.9 L 976.6,322.2 L 976.7,324.2 L 977.0,326.0 L 977.5,327.6 L 978.1,328.9 L 979.0,329.9 L 980.1,330.6 L 981.3,331.0 L 982.7,331.2 L 984.3,331.1 L 986.0,330.8 L 987.8,330.2 L 989.7,329.4 L 991.7,328.4 L 993.8,327.3 L 996.0,326.0 L 998.2,324.6 L 1000.3,323.1 L 1002.5,321.5 L 1004.7,319.9 L 1006.9,318.2 L 1009.0,316.5 L 1011.1,314.7 L 1013.1,313.0 L 1015.0,311.3 L 1016.9,309.6 L 1018.7,307.9 L 1020.4,306.2 L 1022.1,304.6 L 1023.6,303.0 L 1025.1,301.4 L 1026.5,299.8 L 1027.8,298.3 L 1029.0,296.8 L 1030.2,295.3 L 1031.3,293.9 L 1032.3,292.5 L 1033.2,291.1 L 1034.1,289.8 L 1034.9,288.4 L 1035.6,287.1 L 1036.3,285.9 L 1037.0,284.6 L 1037.5,283.4 L 1038.1,282.2 L 1038.6,281.0 L 1039.0,279.9 L 1039.4,278.7 L 1039.8,277.6 L 1040.2,276.5 L 1040.5,275.4 L 1040.8,274.3 L 1041.0,273.3 L 1041.3,272.3 L 1041.5,271.3 L 1041.7,270.3 L 1041.9,269.3 L 1042.1,268.3 L 1042.2,267.4 L 1042.4,266.5 L 1042.5,265.5 L 1042.6,264.6 L 1042.7,263.8 L 1042.8,262.9 L 1042.9,262.0 L 1043.0,261.2 L 1043.0,260.4 L 1043.1,259.5 L 1043.2,258.7 L 1043.2,258.0 L 1043.3,257.2 L 1043.4,256.4 L 1043.4,255.7 L 1043.5,254.9 L 1043.5,254.2 L 1043.6,253.5 L 1043.6,252.8 L 1043.6,252.1 L 1043.7,251.4 L 1043.7,250.7 L 1043.8,250.1 L 1043.8,249.4 L 1043.9,248.8 L 1043.9,248.2 L 1044.0,247.5 L 1044.0,246.9 L 1044.1,246.3 L 1044.1,245.7 L 1044.2,245.2 L 1044.2,244.6 L 1044.3,244.0 L 1044.3,243.5 L 1044.4,242.9 L 1044.5,242.4 L 1044.6,241.9 L 1044.6,241.4 L 1044.7,240.9 L 1044.8,240.4 L 1044.9,239.9 L 1045.0,239.4 L 1045.1,238.9 L 1045.2,238.5 L 1045.3,238.0 L 1045.4,237.6 L 1045.5,237.1 L 1045.7,236.7 L 1045.8,236.3 L 1046.0,235.9 L 1046.1,235.4 L 1046.3,235.0 L 1046.5,234.7 L 1046.6,234.3 L 1046.8,233.9 L 1047.1,233.5 L 1047.3,233.2 L 1047.5,232.8 L 1047.8,232.5 L 1048.0,232.2 L 1048.3,231.8 L 1048.6,231.5 L 1048.9,231.2 L 1049.3,231.0 L 1049.6,230.7 L 1050.0,230.4 L 1050.4,230.2 L 1050.9,229.9 L 1051.3,229.7 L 1051.8,229.5 L 1052.3,229.3 L 1052.9,229.2 L 1053.5,229.0 L 1054.1,228.9 L 1054.7,228.8 L 1055.4,228.7 L 1056.2,228.7 L 1057.0,228.7 L 1057.8,228.7 L 1058.7,228.8 L 1059.6,228.9 L 1060.6,229.1 L 1061.7,229.4 L 1062.8,229.7 L 1064.0,230.0 L 1065.3,230.5 L 1066.6,231.0 L 1068.0,231.7 L 1069.5,232.4 L 1071.1,233.3 L 1072.8,234.3 L 1074.6,235.5 L 1076.4,236.8 L 1078.4,238.3 L 1080.4,240.0 L 1082.6,242.0 L 1084.8,244.1 L 1087.1,246.6 L 1089.6,249.3 L 1092.1,252.3 L 1094.7,255.6 L 1097.4,259.3 L 1100.1,263.3 L 1102.9,267.7 L 1105.7,272.4 L 1108.5,277.5 L 1111.3,282.9 L 1114.1,288.7 L 1116.7,294.7 L 1119.3,300.9 L 1121.7,307.3 L 1123.9,313.8 L 1125.8,320.3 L 1127.5,326.6 L 1128.8,332.7 L 1129.7,338.4 L 1130.2,343.7 L 1130.3,348.4 L 1129.8,352.4 L 1128.9,355.6 L 1127.5,358.0 L 1125.6,359.6 L 1123.2,360.3 L 1120.3,360.3 L 1117.1,359.5 L 1113.5,358.0 L 1109.6,356.0 L 1105.5,353.5 L 1101.1,350.7 L 1096.7,347.6 L 1092.2,344.4 L 1087.7,341.1 L 1083.2,337.8 L 1078.7,334.6 L 1074.4,331.4 L 1070.2,328.4 L 1066.1,325.5 L 1062.3,322.8 L 1058.5,320.3 L 1055.0,317.9 L 1051.7,315.7 L 1048.6,313.7 L 1045.6,311.8 L 1042.9,310.0 L 1040.3,308.4 L 1037.9,306.9 L 1035.6,305.6 L 1033.5,304.3 L 1031.6,303.1 L 1029.8,302.1 L 1028.1,301.1 L 1026.6,300.1 L 1025.1,299.3 L 1023.8,298.5 L 1022.5,297.7 L 1021.4,297.0 L 1020.3,296.4 L 1019.3,295.8 L 1018.4,295.2 L 1017.5,294.7 L 1016.7,294.2 L 1015.9,293.8 L 1015.2,293.4 L 1014.5,293.0 L 1013.9,292.7 L 1013.3,292.3 L 1012.7,292.1 L 1012.2,291.8 L 1011.6,291.6 L 1011.1,291.4 L 1010.6,291.2 L 1010.1,291.1 L 1009.7,290.9 L 1009.2,290.8 L 1008.8,290.8 L 1008.4,290.7 L 1007.9,290.7 L 1007.5,290.7 L 1007.1,290.8 L 1006.7,290.8 L 1006.3,290.9 L 1005.9,291.0 L 1005.5,291.2 L 1005.2,291.3 L 1004.8,291.5 L 1004.4,291.7 L 1004.0,291.9 L 1003.7,292.2 L 1003.3,292.4 L 1003.0,292.7 L 1002.6,293.0 L 1002.3,293.3 L 1001.9,293.7 L 1001.6,294.0 L 1001.3,294.4 L 1001.0,294.8 L 1000.7,295.1 L 1000.5,295.5 L 1000.2,295.9 L 1000.0,296.3 L 999.7,296.7 L 999.5,297.2 L 999.3,297.6 L 999.2,298.0 L 999.0,298.4 L 998.9,298.8 L 998.8,299.1 L 998.7,299.5 L 998.6,299.9 L 998.5,300.2 L 998.5,300.5 L 998.5,300.8 L 998.5,301.1 L 998.6,301.4 L 998.7,301.6 L 998.8,301.9 L 998.9,302.1 L 999.0,302.2 L 999.2,302.4 L 999.3,302.5 L 999.5,302.6 L 999.8,302.6 L 1000.0,302.6 L 1000.2,302.6 L 1000.5,302.6 L 1000.8,302.5 L 1001.1,302.5 L 1001.4,302.3 L 1001.7,302.2 L 1002.1,302.0 L 1002.4,301.8 L 1002.7,301.6 L 1003.1,301.4 L 1003.4,301.1 L 1003.8,300.9 L 1004.1,300.6 L 1004.5,300.3 L 1004.8,299.9 L 1005.2,299.6 L 1005.5,299.2 L 1005.9,298.9 L 1006.2,298.5 L 1006.5,298.1 L 1006.8,297.7 L 1007.1,297.3 L 1007.4,296.9 L 1007.6,296.5 L 1007.9,296.1 L 1008.1,295.7 L 1008.3,295.3 L 1008.5,294.9 L 1008.7,294.5 L 1008.9,294.1 L 1009.1,293.7 L 1009.2,293.3 L 1009.3,292.9 L 1009.4,292.5 L 1009.5,292.1 L 1009.6,291.8 L 1009.6,291.5 L 1009.6,291.1 L 1009.6,290.8 L 1009.6,290.5 L 1009.6,290.2 L 1009.5,289.9 L 1009.5,289.7 L 1009.4,289.5 L 1009.3,289.2 L 1009.1,289.0 L 1009.0,288.9 L 1008.8,288.7 L 1008.7,288.6 L 1008.5,288.4 L 1008.3,288.4 L 1008.0,288.3 L 1007.8,288.2 L 1007.5,288.2 L 1007.3,288.2 L 1007.0,288.3 L 1006.7,288.3 L 1006.4,288.4 L 1006.0,288.5 L 1005.7,288.6 L 1005.4,288.8 L 1005.0,289.0 L 1004.7,289.2 L 1004.3,289.5 L 1003.9,289.7 L 1003.5,290.0 L 1003.2,290.3 L 1002.8,290.7 L 1002.4,291.1 L 1002.0,291.4 L 1001.6,291.9 L 1001.3,292.3 L 1000.9,292.8 L 1000.5,293.2 L 1000.2,293.7 L 999.8,294.2 L 999.5,294.7 L 999.2,295.3 L 998.9,295.8 L 998.6,296.4 L 998.3,296.9 L 998.1,297.4 L 997.8,298.0 L 997.6,298.5 L 997.5,299.1 L 997.3,299.6 L 997.2,300.1 L 997.1,300.6 L 997.0,301.1 L 996.9,301.5 L 996.9,301.9 L 996.9,302.3 L 997.0,302.7 L 997.1,303.1 L 997.2,303.4 L 997.3,303.7 L 997.5,303.9 L 997.7,304.1 L 997.9,304.3 L 998.2,304.4 L 998.4,304.5 L 998.7,304.5 L 999.1,304.6 L 999.4,304.5 L 999.8,304.5 L 1000.2,304.4 L 1000.6,304.2 L 1001.0,304.1 L 1001.4,303.8 L 1001.9,303.6 L 1002.3,303.3 L 1002.8,303.0 L 1003.2,302.7 L 1003.7,302.4 L 1004.1,302.0 L 1004.6,301.6 L 1005.0,301.2 L 1005.5,300.7 L 1005.9,300.3 L 1006.4,299.8 L 1006.8,299.3 L 1007.2,298.9 L 1007.6,298.4 L 1008.0,297.8 L 1008.4,297.3 L 1008.7,296.8 L 1009.0,296.3 L 1009.4,295.8 L 1009.6,295.3 L 1009.9,294.8 L 1010.2,294.2 L 1010.4,293.7 L 1010.6,293.2 L 1010.8,292.7 L 1011.0,292.2 L 1011.1,291.8 L 1011.2,291.3 L 1011.3,290.9 L 1011.4,290.4 L 1011.4,290.0 L 1011.5,289.6 L 1011.5,289.2 L 1011.4,288.8 L 1011.4,288.4 L 1011.3,288.1 L 1011.2,287.8 L 1011.1,287.5 L 1011.0,287.2 L 1010.8,287.0 L 1010.6,286.7 L 1010.4,286.5 L 1010.2,286.3 L 1010.0,286.2 L 1009.7,286.1 L 1009.4,286.0 L 1009.1,285.9 L 1008.8,285.9 L 1008.5,285.9 L 1008.1,285.9 L 1007.7,285.9 L 1007.3,286.0 L 1006.9,286.1 L 1006.5,286.3 L 1006.1,286.5 L 1005.6,286.7 L 1005.2,287.0 L 1004.7,287.3 L 1004.2,287.6 L 1003.8,288.0 L 1003.3,288.4 L 1002.8,288.8 L 1002.3,289.3 L 1001.8,289.8 L 1001.3,290.3 L 1000.8,290.9 L 1000.3,291.4 L 999.9,292.0 L 999.4,292.7 L 999.0,293.3 L 998.5,294.0 L 998.1,294.7 L 997.7,295.4 L 997.3,296.1 L 996.9,296.9 L 996.6,297.6 L 996.3,298.3 L 996.0,299.0 L 995.7,299.7 L 995.5,300.4 L 995.3,301.1 L 995.2,301.8 L 995.1,302.4 L 995.0,303.0 L 995.0,303.6 L 995.0,304.2 L 995.0,304.7 L 995.1,305.1 L 995.3,305.5 L 995.5,305.9 L 995.7,306.2 L 995.9,306.5 L 996.2,306.7 L 996.6,306.9 L 996.9,307.0 L 997.3,307.1 L 997.8,307.1 L 998.2,307.0 L 998.7,306.9 L 999.2,306.8 L 999.8,306.6 L 1000.3,306.3 L 1000.9,306.1 L 1001.5,305.7 L 1002.1,305.4 L 1002.7,305.0 L 1003.3,304.5 L 1003.9,304.1 L 1004.5,303.6 L 1005.1,303.0 L 1005.7,302.5 L 1006.3,301.9 L 1006.8,301.3 L 1007.4,300.7 L 1007.9,300.1 L 1008.5,299.5 L 1009.0,298.8 L 1009.5,298.2 L 1009.9,297.5 L 1010.4,296.9 L 1010.8,296.2 L 1011.2,295.6 L 1011.6,294.9 L 1011.9,294.3 L 1012.2,293.6 L 1012.5,293.0 L 1012.8,292.4 L 1013.0,291.8 L 1013.2,291.2 L 1013.4,290.6 L 1013.6,290.0 L 1013.7,289.4 L 1013.8,288.9 L 1013.8,288.3 L 1013.9,287.8 L 1013.9,287.3 L 1013.9,286.8 L 1013.8,286.4 L 1013.7,285.9 L 1013.6,285.5 L 1013.5,285.1 L 1013.4,284.7 L 1013.2,284.4 L 1013.0,284.1 L 1012.7,283.8 L 1012.5,283.5 L 1012.2,283.3 L 1011.9,283.1 L 1011.5,283.0 L 1011.2,282.8 L 1010.8,282.8 L 1010.4,282.7 L 1010.0,282.7 L 1009.5,282.7 L 1009.1,282.8 L 1008.6,282.9 L 1008.1,283.0 L 1007.5,283.2 L 1007.0,283.4 L 1006.4,283.7 L 1005.8,284.0 L 1005.3,284.4 L 1004.7,284.8 L 1004.0,285.2 L 1003.4,285.7 L 1002.8,286.3 L 1002.2,286.9 L 1001.5,287.5 L 1000.9,288.2 L 1000.3,288.9 L 999.6,289.6 L 999.0,290.4 L 998.4,291.3 L 997.8,292.1 L 997.2,293.0 L 996.6,293.9 L 996.1,294.9 L 995.6,295.8 L 995.1,296.8 L 994.6,297.8 L 994.2,298.8 L 993.8,299.7 L 993.5,300.7 L 993.2,301.6 L 992.9,302.6 L 992.7,303.5 L 992.6,304.3 L 992.5,305.2 L 992.4,305.9 L 992.4,306.7 L 992.5,307.3 L 992.6,307.9 L 992.8,308.5 L 993.1,309.0 L 993.3,309.4 L 993.7,309.7 L 994.1,310.0 L 994.6,310.2 L 995.1,310.3 L 995.6,310.4 L 996.2,310.3 L 996.8,310.2 L 997.5,310.1 L 998.2,309.8 L 998.9,309.5 L 999.7,309.2 L 1000.4,308.8 L 1001.2,308.3 L 1002.0,307.8 L 1002.8,307.2 L 1003.6,306.6 L 1004.4,306.0 L 1005.2,305.3 L 1006.0,304.6 L 1006.8,303.9 L 1007.5,303.2 L 1008.3,302.4 L 1009.0,301.6 L 1009.7,300.8 L 1010.4,300.0 L 1011.0,299.2 L 1011.6,298.4 L 1012.2,297.6 L 1012.8,296.7 L 1013.3,295.9 L 1013.8,295.1 L 1014.3,294.3 L 1014.7,293.5 L 1015.1,292.7 L 1015.5,291.9 L 1015.8,291.1 L 1016.1,290.4 L 1016.3,289.6 L 1016.6,288.9 L 1016.8,288.1 L 1016.9,287.4 L 1017.0,286.8 L 1017.1,286.1 L 1017.2,285.4 L 1017.2,284.8 L 1017.2,284.2 L 1017.1,283.6 L 1017.0,283.1 L 1016.9,282.5 L 1016.8,282.0 L 1016.6,281.5 L 1016.4,281.1 L 1016.2,280.7 L 1015.9,280.3 L 1015.6,279.9 L 1015.3,279.6 L 1015.0,279.3 L 1014.6,279.0 L 1014.2,278.8 L 1013.7,278.6 L 1013.3,278.5 L 1012.8,278.4 L 1012.2,278.3 L 1011.7,278.3 L 1011.1,278.4 L 1010.5,278.4 L 1009.9,278.6 L 1009.3,278.8 L 1008.6,279.0 L 1007.9,279.3 L 1007.2,279.7 L 1006.4,280.1 L 1005.7,280.5 L 1004.9,281.1 L 1004.1,281.7 L 1003.3,282.3 L 1002.5,283.0 L 1001.7,283.8 L 1000.9,284.6 L 1000.1,285.5 L 999.2,286.5 L 998.4,287.5 L 997.6,288.6 L 996.8,289.7 L 996.0,290.8 L 995.2,292.0 L 994.5,293.3 L 993.8,294.6 L 993.1,295.9 L 992.4,297.2 L 991.8,298.5 L 991.2,299.9 L 990.7,301.2 L 990.3,302.5 L 989.9,303.8 L 989.6,305.1 L 989.3,306.3 L 989.1,307.5 L 989.0,308.6 L 989.0,309.6 L 989.0,310.6 L 989.2,311.4 L 989.4,312.2 L 989.7,312.9 L 990.1,313.5 L 990.5,314.0 L 991.0,314.3 L 991.6,314.6 L 992.3,314.8 L 993.1,314.8 L 993.9,314.8 L 994.7,314.6 L 995.6,314.4 L 996.6,314.0 L 997.5,313.6 L 998.6,313.1 L 999.6,312.5 L 1000.7,311.9 L 1001.7,311.2 L 1002.8,310.4 L 1003.9,309.6 L 1004.9,308.7 L 1006.0,307.8 L 1007.0,306.9 L 1008.1,306.0 L 1009.1,305.0 L 1010.1,304.0 L 1011.0,303.0 L 1011.9,302.0 L 1012.8,300.9 L 1013.6,299.9 L 1014.4,298.9 L 1015.2,297.9 L 1015.9,296.8 L 1016.6,295.8 L 1017.2,294.8 L 1017.8,293.8 L 1018.4,292.8 L 1018.9,291.8 L 1019.4,290.9 L 1019.8,289.9 L 1020.2,289.0 L 1020.5,288.0 L 1020.8,287.1 L 1021.1,286.3 L 1021.3,285.4 L 1021.5,284.5 L 1021.6,283.7 L 1021.7,282.9 L 1021.8,282.1 L 1021.8,281.3 L 1021.8,280.6 L 1021.8,279.9 L 1021.7,279.2 L 1021.6,278.5 L 1021.4,277.8 L 1021.2,277.2 L 1021.0,276.6 L 1020.8,276.1 L 1020.5,275.5 L 1020.2,275.0 L 1019.8,274.5 L 1019.5,274.1 L 1019.1,273.7 L 1018.6,273.4 L 1018.2,273.0 L 1017.6,272.8 L 1017.1,272.5 L 1016.5,272.3 L 1015.9,272.2 L 1015.3,272.1 L 1014.6,272.0 L 1013.9,272.0 L 1013.2,272.1 L 1012.5,272.2 L 1011.7,272.4 L 1010.8,272.7 L 1010.0,273.0 L 1009.1,273.4 L 1008.2,273.8 L 1007.3,274.4 L 1006.3,275.0 L 1005.3,275.7 L 1004.3,276.5 L 1003.3,277.3 L 1002.2,278.3 L 1001.1,279.3 L 1000.1,280.4 L 999.0,281.6 L 997.9,282.9 L 996.8,284.3 L 995.7,285.7 L 994.6,287.3 L 993.5,288.9 L 992.5,290.5 L 991.5,292.3 L 990.5,294.0 L 989.6,295.9 L 988.7,297.7 L 987.9,299.6 L 987.1,301.5 L 986.4,303.4 L 985.8,305.2 L 985.3,307.1 L 984.9,308.8 L 984.6,310.5 L 984.3,312.1 L 984.2,313.7 L 984.3,315.1 L 984.4,316.3 L 984.6,317.5 L 985.0,318.5 L 985.5,319.3 L 986.1,320.0 L 986.8,320.5 L 987.7,320.8 L 988.6,321.0 L 989.6,321.0 L 990.8,320.9 L 991.9,320.6 L 993.2,320.2 L 994.5,319.7 L 995.9,319.0 L 997.3,318.3 L 998.8,317.4 L 1000.3,316.5 L 1001.7,315.4 L 1003.2,314.4 L 1004.7,313.2 L 1006.2,312.0 L 1007.6,310.8 L 1009.0,309.6 L 1010.4,308.3 L 1011.7,307.0 L 1013.0,305.7 L 1014.3,304.4 L 1015.5,303.1 L 1016.6,301.9 L 1017.7,300.6 L 1018.8,299.3 L 1019.8,298.0 L 1020.7,296.8 L 1021.6,295.5 L 1022.4,294.3 L 1023.1,293.1 L 1023.8,291.9 L 1024.5,290.7 L 1025.1,289.5 L 1025.6,288.4 L 1026.1,287.3 L 1026.6,286.2 L 1027.0,285.1 L 1027.4,284.0 L 1027.7,283.0 L 1027.9,281.9 L 1028.2,280.9 L 1028.4,279.9 L 1028.5,279.0 L 1028.6,278.0 L 1028.7,277.1 L 1028.8,276.2 L 1028.8,275.3 L 1028.7,274.4 L 1028.7,273.6 L 1028.6,272.7 L 1028.5,271.9 L 1028.3,271.2 L 1028.2,270.4 L 1027.9,269.7 L 1027.7,269.0 L 1027.4,268.3 L 1027.1,267.6 L 1026.8,267.0 L 1026.4,266.4 L 1026.1,265.8 L 1025.6,265.3 L 1025.2,264.8 L 1024.7,264.3 L 1024.2,263.9 L 1023.6,263.5 L 1023.1,263.1 L 1022.4,262.8 L 1021.8,262.5 L 1021.1,262.3 L 1020.4,262.1 L 1019.6,262.0 L 1018.8,261.9 L 1018.0,261.9 L 1017.1,261.9 L 1016.2,262.0 L 1015.3,262.2 L 1014.3,262.5 L 1013.2,262.8 L 1012.1,263.2 L 1011.0,263.7 L 1009.9,264.3 L 1008.6,265.0 L 1007.4,265.8 L 1006.1,266.7 L 1004.8,267.7 L 1003.4,268.9 L 1002.0,270.1 L 1000.6,271.5 L 999.2,273.0 L 997.7,274.7 L 996.2,276.5 L 994.7,278.4 L 993.2,280.5 L 991.7,282.7 L 990.2,285.0 L 988.7,287.4 L 987.3,290.0 L 985.9,292.6 L 984.5,295.3 L 983.2,298.1 L 982.0,300.9 L 980.9,303.8 L 979.9,306.6 L 979.0,309.4 L 978.3,312.2 L 977.7,314.8 L 977.3,317.4 L 977.0,319.7 L 976.9,321.9 L 977.0,323.9 L 977.3,325.7 L 977.8,327.2 L 978.5,328.5 L 979.4,329.4 L 980.4,330.2 L 981.6,330.6 L 983.0,330.7 L 984.6,330.7 L 986.2,330.3 L 988.0,329.7 L 989.9,329.0 L 991.9,328.0 L 994.0,326.9 L 996.1,325.6 L 998.2,324.2 L 1000.4,322.8 L 1002.6,321.2 L 1004.7,319.6 L 1006.8,317.9 L 1008.9,316.2 L 1011.0,314.5 L 1012.9,312.8 L 1014.9,311.1 L 1016.7,309.4 L 1018.5,307.8 L 1020.2,306.1 L 1021.8,304.5 L 1023.3,302.9 L 1024.8,301.3 L 1026.2,299.7 L 1027.5,298.2 L 1028.7,296.7 L 1029.8,295.3 L 1030.9,293.8 L 1031.9,292.4 L 1032.8,291.1 L 1033.7,289.7 L 1034.5,288.4 L 1035.2,287.1 L 1035.9,285.8 L 1036.5,284.6 L 1037.1,283.4 L 1037.6,282.2 L 1038.1,281.0 L 1038.5,279.8 L 1038.9,278.7 L 1039.3,277.6 L 1039.7,276.5 L 1040.0,275.4 L 1040.2,274.3 L 1040.5,273.3 L 1040.7,272.3 L 1040.9,271.3 L 1041.1,270.3 L 1041.3,269.3 L 1041.4,268.3 L 1041.6,267.4 L 1041.7,266.5 L 1041.8,265.5 L 1041.9,264.6 L 1042.0,263.8 L 1042.1,262.9 L 1042.1,262.0 L 1042.2,261.2 L 1042.2,260.4 L 1042.3,259.5 L 1042.3,258.7 L 1042.4,258.0 L 1042.4,257.2 L 1042.4,256.4 L 1042.4,255.7 L 1042.4,254.9 L 1042.4,254.2 L 1042.4,253.5 L 1042.4,252.8 L 1042.4,252.1 L 1042.4,251.4 L 1042.4,250.7 L 1042.4,250.1 L 1042.4,249.4 L 1042.4,248.8 L 1042.4,248.1 L 1042.4,247.5 L 1042.3,246.9 L 1042.3,246.3 L 1042.3,245.7 L 1042.2,245.2 L 1042.2,244.6 L 1042.2,244.0 L 1042.1,243.5 L 1042.1,242.9 L 1042.1,242.4 L 1042.0,241.9 L 1042.0,241.4 L 1041.9,240.9 L 1041.8,240.4 L 1041.8,239.9 L 1041.7,239.4 L 1041.6,238.9 L 1041.6,238.4 L 1041.5,238.0 L 1041.4,237.5 L 1041.3,237.1 L 1041.2,236.6 L 1041.1,236.2 L 1041.0,235.8 L 1040.9,235.4 L 1040.8,235.0 L 1040.7,234.6 L 1040.5,234.2 L 1040.4,233.8 L 1040.2,233.4 L 1040.1,233.1 L 1039.9,232.7 L 1039.7,232.4 L 1039.6,232.0 L 1039.3,231.7 L 1039.1,231.3 L 1038.9,231.0 L 1038.7,230.7 L 1038.4,230.4 L 1038.1,230.1 L 1037.8,229.8 L 1037.5,229.5 L 1037.2,229.3 L 1036.9,229.0 L 1036.5,228.8 L 1036.1,228.6 L 1035.7,228.3 L 1035.2,228.1 L 1034.8,227.9 L 1034.3,227.8 L 1033.7,227.6 L 1033.2,227.5 L 1032.6,227.4 L 1031.9,227.3 L 1031.2,227.2 L 1030.5,227.2 L 1029.7,227.2 L 1028.9,227.2 L 1028.1,227.3 L 1027.1,227.4 L 1026.2,227.6 L 1025.1,227.8 L 1024.0,228.1 L 1022.8,228.5 L 1021.6,228.9 L 1020.3,229.4 L 1018.9,230.1 L 1017.4,230.8 L 1015.8,231.6 L 1014.2,232.6 L 1012.5,233.7 L 1010.6,235.0 L 1008.7,236.4 L 1006.7,238.1 L 1004.5,240.0 L 1002.3,242.1 L 1000.0,244.4 L 997.5,247.1 L 995.0,250.0 L 992.4,253.3 L 989.7,256.9 L 986.9,260.8 L 984.1,265.1 L 981.3,269.8 L 978.4,274.9 L 975.5,280.3 L 972.7,286.0 L 969.9,292.1 L 967.3,298.4 L 964.7,304.9 L 962.4,311.6 L 960.3,318.2 L 958.5,324.8 L 957.0,331.2 L 955.9,337.2 L 955.2,342.8 L 955.0,347.8 L 955.3,352.2 L 956.0,355.8 L 957.3,358.5 L 959.1,360.4 L 961.4,361.4 L 964.2,361.6 L 967.4,361.0 L 970.9,359.7 L 974.8,357.8 L 979.0,355.3 L 983.4,352.5 L 987.9,349.4 L 992.5,346.1 L 997.1,342.8 L 1001.8,339.4 L 1006.3,336.0 L 1010.8,332.8 L 1015.1,329.7 L 1019.3,326.7 L 1023.3,323.9 L 1027.2,321.3 L 1030.8,318.9 L 1034.3,316.6 L 1037.5,314.6 L 1040.6,312.7 L 1043.4,310.9 L 1046.1,309.3 L 1048.6,307.8 L 1050.9,306.4 L 1053.1,305.2 L 1055.1,304.0 L 1057.0,303.0 L 1058.7,302.0 L 1060.3,301.1 L 1061.8,300.3 L 1063.2,299.5 L 1064.5,298.8 L 1065.6,298.1 L 1066.7,297.5 L 1067.8,297.0 L 1068.7,296.5 L 1069.6,296.0 L 1070.4,295.5 L 1071.2,295.1 L 1071.9,294.8 L 1072.6,294.4 L 1073.2,294.1 L 1073.8,293.8 L 1074.4,293.6 L 1074.9,293.3 L 1075.4,293.1 L 1075.9,292.9 L 1076.4,292.8 L 1076.8,292.6 L 1077.2,292.5 L 1077.6,292.4 L 1078.0,292.4 L 1078.4,292.3 L 1078.8,292.3 L 1079.1,292.3 L 1079.5,292.3 L 1079.8,292.4 L 1080.2,292.4 L 1080.5,292.5 L 1080.8,292.6 L 1081.2,292.7 L 1081.5,292.8 L 1081.8,293.0 L 1082.1,293.1 L 1082.4,293.3 L 1082.6,293.5 L 1082.9,293.7 L 1083.2,293.9 L 1083.5,294.2 L 1083.7,294.4 L 1084.0,294.7 L 1084.2,294.9 L 1084.4,295.2 L 1084.6,295.5 L 1084.9,295.8 L 1085.1,296.1 L 1085.2,296.4 L 1085.4,296.7 L 1085.6,297.0 L 1085.7,297.3 L 1085.8,297.5 L 1086.0,297.8 L 1086.1,298.1 L 1086.1,298.4 L 1086.2,298.7 L 1086.3,298.9 L 1086.3,299.2 L 1086.3,299.4 L 1086.3,299.6 L 1086.3,299.8 L 1086.3,300.0 L 1086.2,300.2 L 1086.2,300.4 L 1086.1,300.5 L 1086.0,300.6 L 1085.9,300.7 L 1085.7,300.8 L 1085.6,300.9 L 1085.4,300.9 L 1085.3,300.9 L 1085.1,300.9 L 1084.9,300.9 L 1084.7,300.9 L 1084.5,300.8 L 1084.2,300.7 L 1084.0,300.6 L 1083.8,300.5 L 1083.5,300.4 L 1083.3,300.2 L 1083.0,300.1 L 1082.7,299.9 L 1082.5,299.7 L 1082.2,299.5 L 1082.0,299.2 L 1081.7,299.0 L 1081.5,298.7 L 1081.2,298.5 L 1081.0,298.2 L 1080.7,297.9 L 1080.5,297.6 L 1080.3,297.3 L 1080.0,297.0 L 1079.8,296.7 L 1079.6,296.4 L 1079.4,296.1 L 1079.3,295.8 L 1079.1,295.5 L 1078.9,295.2 L 1078.8,294.9 L 1078.7,294.6 L 1078.5,294.3 L 1078.4,294.0 L 1078.3,293.7 L 1078.3,293.4 L 1078.2,293.1 L 1078.2,292.9 L 1078.1,292.6 L 1078.1,292.4 L 1078.1,292.1 L 1078.1,291.9 L 1078.1,291.7 L 1078.2,291.5 L 1078.2,291.3 L 1078.3,291.1 L 1078.4,290.9 L 1078.5,290.8 L 1078.6,290.7 L 1078.7,290.6 L 1078.9,290.5 L 1079.0,290.4 L 1079.2,290.3 L 1079.4,290.3 L 1079.6,290.3 L 1079.8,290.3 L 1080.0,290.3 L 1080.2,290.3 L 1080.4,290.4 L 1080.7,290.4 L 1080.9,290.5 L 1081.2,290.7 L 1081.4,290.8 L 1081.7,290.9 L 1082.0,291.1 L 1082.2,291.3 L 1082.5,291.5 L 1082.8,291.8 L 1083.1,292.0 L 1083.4,292.3 L 1083.7,292.6 L 1083.9,292.9 L 1084.2,293.2 L 1084.5,293.5 L 1084.8,293.9 L 1085.0,294.2 L 1085.3,294.6 L 1085.5,295.0 L 1085.8,295.3 L 1086.0,295.7 L 1086.2,296.1 L 1086.4,296.5 L 1086.6,296.9 L 1086.8,297.3 L 1086.9,297.7 L 1087.1,298.1 L 1087.2,298.5 L 1087.3,298.9 L 1087.4,299.2 L 1087.5,299.6 L 1087.5,299.9 L 1087.5,300.2 L 1087.5,300.5 L 1087.5,300.8 L 1087.5,301.1 L 1087.4,301.3 L 1087.3,301.5 L 1087.2,301.7 L 1087.1,301.9 L 1086.9,302.0 L 1086.8,302.2 L 1086.6,302.3 L 1086.4,302.3 L 1086.1,302.4 L 1085.9,302.4 L 1085.6,302.3 L 1085.4,302.3 L 1085.1,302.2 L 1084.8,302.1 L 1084.5,302.0 L 1084.2,301.9 L 1083.9,301.7 L 1083.5,301.5 L 1083.2,301.3 L 1082.9,301.0 L 1082.5,300.8 L 1082.2,300.5 L 1081.8,300.2 L 1081.5,299.9 L 1081.2,299.6 L 1080.8,299.2 L 1080.5,298.9 L 1080.2,298.5 L 1079.9,298.1 L 1079.6,297.8 L 1079.3,297.4 L 1079.1,297.0 L 1078.8,296.6 L 1078.5,296.2 L 1078.3,295.8 L 1078.1,295.4 L 1077.9,295.0 L 1077.7,294.6 L 1077.5,294.3 L 1077.4,293.9 L 1077.2,293.5 L 1077.1,293.1 L 1077.0,292.8 L 1076.9,292.4 L 1076.9,292.1 L 1076.8,291.7 L 1076.8,291.4"/>
<text x="950" y="392" class="muted small">σ = 10.080</text>
<text x="950" y="412" class="muted small">ρ = 28.300</text>
<text x="950" y="432" class="muted small">β = 2.683</text>

<rect x="942" y="456" width="210" height="184" class="formula-box"/>
<text x="960" y="484" class="muted label">STATE VECTOR</text>
<text x="960" y="520" class="metric">10,104</text>
<text x="960" y="539" class="muted small">Σ contributions / year</text>
<text x="960" y="573" class="fg label">213 active days</text>
<text x="960" y="595" class="fg label">37d max streak</text>
<text x="960" y="617" class="fg label">92 public repos</text>
<text x="960" y="636" class="muted small">H(lang)=2.56 bits</text>
<text x="950" y="668" class="muted small">Python · TypeScript · JavaScript · Jupyter Notebook</text>
</svg>
