<svg xmlns="http://www.w3.org/2000/svg" viewBox="0 0 1200 360" role="img" aria-label="ARAVINDHAN / OPERATING.SYSTEM">

<style>
  :root { --fg:#c9d1d9; --muted:#8b949e; --faint:#30363d; --accent:#58a6ff; --accent2:#bc8cff; --hot:#3fb950; --panel:#0d1117; }
  .bg { fill:var(--panel); } .fg { fill:var(--fg); } .muted { fill:var(--muted); }
  .label { font:600 14px ui-monospace,SFMono-Regular,Menlo,Consolas,monospace; letter-spacing:.08em; }
  .small { font:12px ui-monospace,SFMono-Regular,Menlo,Consolas,monospace; }
  .metric { font:700 23px ui-monospace,SFMono-Regular,Menlo,Consolas,monospace; fill:var(--fg); }
  .eq { font:15px "Times New Roman",serif; fill:var(--fg); }
  .divider,.axis { stroke:var(--faint); stroke-width:1; }
  .flow { fill:none; stroke:var(--accent); stroke-width:1.4; stroke-dasharray:7 7; animation:flow 8s linear infinite; vector-effect:non-scaling-stroke; }
  .flow2 { fill:none; stroke:var(--accent2); stroke-width:1.25; stroke-dasharray:5 6; animation:flow 13s linear infinite reverse; vector-effect:non-scaling-stroke; }
  .hot { fill:var(--hot); animation:pulse 3.2s ease-in-out infinite; }
  .node { fill:var(--accent); animation:pulse 3.8s ease-in-out infinite; }
  .panelbox { fill:none; stroke:var(--faint); rx:12; }
  @keyframes flow { to { stroke-dashoffset:-84; } }
  @keyframes pulse { 0%,100%{opacity:.35} 50%{opacity:1} }
  @media (prefers-color-scheme: light) {
    :root { --fg:#24292f; --muted:#57606a; --faint:#d0d7de; --accent:#0969da; --accent2:#8250df; --hot:#1a7f37; --panel:#ffffff; }
  }
</style>
<rect class="bg" width="1200" height="360" rx="18"/>
<text x="48" y="48" class="fg label">ARAVINDHAN / OPERATING.SYSTEM</text>
<text x="48" y="74" class="muted small">activity behaves like a sampled signal</text>
<line x1="48" y1="94" x2="1152" y2="94" class="divider"/>

<text x="48" y="126" class="muted label">04 / ACTIVITY SIGNAL</text>
<text x="48" y="151" class="eq">s(w)=Σ₍d₎ c(w,d)</text>
<text x="48" y="174" class="muted small">weekly contribution signal · smoothed trend · discrete spectrum</text>
<line x1="70" y1="235" x2="860" y2="235" class="axis"/>
<path d="M 70.0,233.7 L 85.0,234.3 L 100.0,232.9 L 115.0,232.9 L 130.0,234.2 L 145.0,234.6 L 160.0,233.9 L 175.0,234.8 L 190.0,235.0 L 205.0,235.0 L 220.0,234.8 L 235.0,234.3 L 250.0,235.0 L 265.0,234.2 L 280.0,234.9 L 295.0,234.2 L 310.0,232.8 L 325.0,234.8 L 340.0,234.5 L 355.0,233.5 L 370.0,234.3 L 385.0,234.7 L 400.0,234.7 L 415.0,234.3 L 430.0,234.1 L 445.0,234.5 L 460.0,233.8 L 475.0,233.1 L 490.0,233.3 L 505.0,232.9 L 520.0,233.2 L 535.0,233.4 L 550.0,233.6 L 565.0,233.7 L 580.0,234.4 L 595.0,234.2 L 610.0,233.9 L 625.0,227.3 L 640.0,230.4 L 655.0,231.0 L 670.0,234.0 L 685.0,233.5 L 700.0,232.5 L 715.0,233.1 L 730.0,229.7 L 745.0,227.5 L 760.0,230.4 L 775.0,174.6 L 790.0,177.1 L 805.0,127.2 L 820.0,159.0 L 835.0,192.3 L 850.0,115.0" class="flow" opacity=".72"/>
<path d="M 70.0,233.6 L 85.0,233.4 L 100.0,233.6 L 115.0,233.8 L 130.0,233.7 L 145.0,234.1 L 160.0,234.5 L 175.0,234.7 L 190.0,234.7 L 205.0,234.8 L 220.0,234.8 L 235.0,234.7 L 250.0,234.6 L 265.0,234.5 L 280.0,234.2 L 295.0,234.2 L 310.0,234.2 L 325.0,234.0 L 340.0,234.0 L 355.0,234.4 L 370.0,234.4 L 385.0,234.3 L 400.0,234.4 L 415.0,234.5 L 430.0,234.3 L 445.0,233.9 L 460.0,233.8 L 475.0,233.5 L 490.0,233.3 L 505.0,233.2 L 520.0,233.3 L 535.0,233.4 L 550.0,233.7 L 565.0,233.9 L 580.0,234.0 L 595.0,232.7 L 610.0,232.1 L 625.0,231.4 L 640.0,231.3 L 655.0,231.2 L 670.0,232.3 L 685.0,232.8 L 700.0,232.6 L 715.0,231.2 L 730.0,230.6 L 745.0,219.0 L 760.0,207.9 L 775.0,187.4 L 790.0,173.7 L 805.0,166.1 L 820.0,154.1 L 835.0,148.4 L 850.0,155.4" class="flow2" style="stroke-width:2" opacity=".9"/>
<circle class="hot" cx="850" cy="115.0" r="4.5"/>
<line x1="890" y1="116" x2="890" y2="324" class="divider"/>
<text x="920" y="128" class="muted label">FREQUENCY CONTENT</text>
<rect x="920" y="170.0" width="7" height="110.0" fill="var(--accent2)" opacity="0.85"/><rect x="933" y="181.2" width="7" height="98.8" fill="var(--accent2)" opacity="0.80"/><rect x="946" y="192.5" width="7" height="87.5" fill="var(--accent2)" opacity="0.75"/><rect x="959" y="206.8" width="7" height="73.2" fill="var(--accent2)" opacity="0.68"/><rect x="972" y="220.7" width="7" height="59.3" fill="var(--accent2)" opacity="0.62"/><rect x="985" y="241.2" width="7" height="38.8" fill="var(--accent2)" opacity="0.53"/><rect x="998" y="256.1" width="7" height="23.9" fill="var(--accent2)" opacity="0.46"/><rect x="1011" y="266.2" width="7" height="13.8" fill="var(--accent2)" opacity="0.41"/><rect x="1024" y="278.2" width="7" height="1.8" fill="var(--accent2)" opacity="0.36"/><rect x="1037" y="269.0" width="7" height="11.0" fill="var(--accent2)" opacity="0.40"/><rect x="1050" y="261.4" width="7" height="18.6" fill="var(--accent2)" opacity="0.43"/><rect x="1063" y="259.4" width="7" height="20.6" fill="var(--accent2)" opacity="0.44"/><rect x="1076" y="256.4" width="7" height="23.6" fill="var(--accent2)" opacity="0.46"/><rect x="1089" y="255.7" width="7" height="24.3" fill="var(--accent2)" opacity="0.46"/><rect x="1102" y="256.1" width="7" height="23.9" fill="var(--accent2)" opacity="0.46"/><rect x="1115" y="257.5" width="7" height="22.5" fill="var(--accent2)" opacity="0.45"/>
<text x="920" y="306" class="muted small">dominant rhythms / last 53 weeks</text>

</svg>
